<?xml version="1.0" standalone="no"?>
<!DOCTYPE svg PUBLIC "-//W3C//DTD SVG 1.1//EN" "http://www.w3.org/Graphics/SVG/1.1/DTD/svg11.dtd" >
<svg xmlns="http://www.w3.org/2000/svg" xmlns:xlink="http://www.w3.org/1999/xlink" version="1.1">
<metadata>
Created by FontForge 20170924 at Mon Jan 21 16:17:11 2019
 By www-data
Copyright (c) 2018 by Yves Michel. All rights reserved.
</metadata>
<defs>
<font id="Abecedary-Regular" horiz-adv-x="1044" >
  <font-face 
    font-family="Abecedary"
    font-weight="400"
    font-stretch="normal"
    units-per-em="2048"
    panose-1="0 0 0 0 0 0 0 0 0 0"
    ascent="1638"
    descent="-410"
    x-height="960"
    cap-height="1576"
    bbox="-100 -822 1863.4 1915"
    underline-thickness="21"
    underline-position="-140"
    unicode-range="U+000D-2265"
  />
<missing-glyph horiz-adv-x="442" 
 />
    <glyph glyph-name=".notdef" horiz-adv-x="442" 
 />
    <glyph glyph-name="exclam" unicode="!" horiz-adv-x="504" 
d="M166 1501q0 28 6 43q5 15 17 23q9 6 26 8q8 1 16 1h17h17t16 -1q17 -2 26 -8q12 -8 18 -23t6 -43v-1189q0 -28 -6 -43q-6 -14 -18 -22q-9 -6 -26 -8q-8 -1 -16 -1h-17h-17t-16 1q-17 2 -26 8q-11 8 -17 22q-6 15 -6 43v1189zM166 83q0 34 24 58q24 25 58 25q35 0 59 -25
q24 -24 24 -58q0 -35 -24 -59t-59 -24q-34 0 -58 24t-24 59z" />
    <glyph glyph-name="dollar" unicode="$" 
d="M584 -70q0 -26 -5.5 -41t-16 -22.5t-26 -9t-35.5 -1.5q-17 0 -32 1t-26 7.5t-17.5 22t-6.5 45.5v70q-81 8 -136.5 36.5t-100.5 70.5q-21 21 -30.5 41.5t-9.5 37.5q2 13 9.5 18t16.5 5q22 0 42 -13.5t40 -31.5t41.5 -37t45.5 -30q33 -16 82 -22v797q-78 18 -138.5 54
t-102.5 83t-63.5 100.5t-21.5 107.5q0 66 24.5 126t68 107t103.5 78.5t130 41.5v73q0 30 7 45t18 22t26 7.5t31 0.5q18 0 33.5 -1t26.5 -8t17 -22.5t6 -43.5v-76q121 -16 164 -84q10 -14 10 -27q0 -10 -7.5 -15t-13.5 -6q-18 0 -38.5 12.5t-41.5 20.5t-36.5 14t-36.5 11
v-559q81 -24 148.5 -66t115.5 -99.5t75 -130.5t27 -160q0 -83 -24.5 -160t-71.5 -139.5t-115 -107t-155 -62.5v-81zM785 468q0 70 -16 127.5t-43 103t-63.5 78.5t-78.5 54v-735q51 22 88.5 63t62.5 92t37.5 107.5t12.5 109.5zM259 1219q0 -24 7 -58t25 -69.5t49 -67
t79 -49.5v510q-38 -16 -67.5 -44.5t-50 -64.5t-31.5 -76.5t-11 -80.5z" />
    <glyph glyph-name="percent" unicode="%" horiz-adv-x="1356" 
d="M136 1274q0 65 16 117q16 54 45 95q14 20 30 36.5t35 27.5q37 24 78 24t79 -24q36 -21 64 -64q27 -39 44 -95t17 -117t-17 -118q-8 -28 -19 -52t-25 -44q-27 -40 -64 -64q-38 -23 -79 -23q-40 0 -78 23q-36 23 -65 64q-29 40 -45 96q-16 54 -16 118zM287 1274
q0 -24 1 -46.5t3 -43.5q2 -20 4.5 -38.5t6.5 -34.5q7 -29 17 -49q10 -18 21 -18q9 0 20 18q5 9 9 21t8 28q7 31 12 73q2 21 3.5 43.5t1.5 46.5q0 23 -1.5 45.5t-3.5 42.5q-4 41 -12 73q-4 16 -8 28.5t-9 21.5q-10 19 -20 19q-11 0 -21 -19t-17 -50q-4 -16 -6.5 -34t-4.5 -39
q-2 -20 -3 -42.5t-1 -45.5zM811 301q0 65 16 117q16 54 45 95q14 20 30 36.5t35 27.5q37 24 78 24t79 -24q19 -11 35 -27.5t30 -36.5q27 -39 44 -95q16 -52 16 -117q0 -64 -16 -118q-8 -28 -19 -52t-25 -44q-29 -41 -65 -64q-38 -23 -79 -23q-40 0 -78 23q-36 23 -65 64
q-29 40 -45 96q-16 54 -16 118zM962 301q0 -24 1 -46.5t3 -43.5q2 -20 4.5 -38.5t6.5 -34.5q7 -29 17 -49q10 -18 21 -18t20 18q5 9 9 21t8 28q7 31 12 73q2 21 3.5 43.5t1.5 46.5q0 23 -1.5 45.5t-3.5 42.5q-4 41 -12 73q-4 16 -8 28.5t-9 21.5q-9 18 -20 18t-21 -18
q-10 -19 -17 -50q-4 -16 -6.5 -34t-4.5 -39q-2 -20 -3 -42.5t-1 -45.5zM837 1632q8 28 17 40q10 13 23 16q13 4 28 0l16 -4l16 -4t16 -5t15 -5q15 -5 22 -15q9 -10 11 -26q1 -8 0 -18.5t-5 -24.5l-467 -1602q-7 -26 -18 -40q-10 -13 -23 -17q-12 -3 -27 0q-7 2 -15 4.5
t-16 4.5q-20 5 -32 9q-14 6 -23 15q-9 12 -10 26q-2 17 6 44z" />
    <glyph glyph-name="ampersand" unicode="&#x26;" horiz-adv-x="1200" 
d="M1098 181q-26 -23 -53 -42t-50 -36l39 -69q8 -13 10 -24.5t2 -21.5q0 -24 -21 -38t-61 -30q-11 -4 -22 -4q-15 0 -28.5 11.5t-24.5 38.5l-42 74q-32 -10 -68.5 -17t-74.5 -12t-75 -7.5t-70 -2.5q-107 0 -191 28.5t-145 81t-98.5 127t-50.5 165.5q-2 16 -3.5 31.5
t-1.5 30.5q0 73 25 138.5t68 121.5t100 101t121 78q-34 64 -55.5 103t-34.5 62t-18.5 33.5t-7.5 17.5q-2 5 -5.5 11t-13.5 26q-17 33 -26.5 71.5t-9.5 79.5q0 49 17.5 96.5t54 84.5t92.5 59.5t132 22.5q70 0 127 -29.5t97 -79t62 -115t22 -138.5q0 -42 -10.5 -88t-37 -90.5
t-72.5 -84.5t-118 -69l381 -696q25 15 42.5 33t32 33.5t29.5 26t36 10.5q11 0 20.5 -7.5t9.5 -30.5q0 -14 -6.5 -32t-24.5 -33zM694 85q25 3 57 10.5t63 18.5l-387 700q-32 -22 -66 -55t-62 -75.5t-46 -94t-18 -111.5q0 -54 19 -111t57 -108t95.5 -93.5t134.5 -67.5
q26 -9 52.5 -13t52.5 -4q12 0 24 1t24 3zM538 964q36 15 59 37t36 48t18 52.5t5 50.5q0 61 -13.5 121.5t-38.5 109t-60.5 78.5t-80.5 30q-43 0 -66.5 -36.5t-23.5 -103.5q0 -30 5.5 -62.5t19.5 -59.5z" />
    <glyph glyph-name="quotesingle" unicode="'" horiz-adv-x="506" 
d="M167.787 1293.12q6.05273 15.7207 8.47363 29.0215q2.4209 13.3018 2.4209 25.3945q0 21.7656 -4.23633 36.2764q-4.2373 14.5107 -10.2891 24.1846q-6.05273 9.67383 -11.5 15.1152t-9.0791 9.06934q-9.68457 10.8828 -13.3154 27.8125
q-3.63184 16.9287 -3.63184 31.4395q0 31.4404 21.7891 57.4385t61.7363 25.998q30.2627 0 50.8418 -13.9053q20.5781 -13.9062 32.6836 -35.0684q12.1045 -21.1611 16.9473 -45.3457q4.8418 -24.1846 4.8418 -44.7412q0 -53.2061 -17.5527 -100.366
q-17.5518 -47.1602 -40.5518 -83.4365q-23 -36.2773 -46 -58.6475q-22.999 -22.3711 -33.8936 -25.999q-6.05273 -2.41797 -14.5264 -4.83691q-8.47363 -2.41797 -15.7363 -2.41797q-7.26367 0 -15.7373 3.02246q-8.47363 3.02344 -8.47363 11.4883
q0 19.3477 4.84277 35.6719q4.8418 16.3242 12.1045 30.2305q7.26367 13.9062 14.5264 26.6035t13.3154 25.998z" />
    <glyph glyph-name="parenleft" unicode="(" horiz-adv-x="816" 
d="M523 1520q14 26 21 41t21 15q9 0 25 -7.5t31.5 -17t27.5 -18t13 -11.5q2 -4 2 -7q0 -7 -4 -17t-12 -27q-229 -492 -229 -890q0 -399 229 -891q7 -15 11.5 -26t4.5 -18q0 -8 -21.5 -26t-64.5 -32q-8 -3 -13 -3q-12 0 -20 12.5t-22 43.5q-271 569 -271 940q0 370 271 939z
" />
    <glyph glyph-name="asterisk" unicode="*" horiz-adv-x="625" 
d="M539 1356l-118 -68l118 -68q27 -16 37.5 -26.5t10.5 -22.5q0 -9 -5 -19t-12.5 -18t-15 -13t-11.5 -5q-16 0 -52 20l-114 65v-139q0 -29 -3.5 -43t-12 -19t-21.5 -4t-32 1q-16 0 -21.5 14.5t-5.5 50.5v145q-45 -26 -75.5 -43.5t-50 -28t-31.5 -15t-21 -4.5q-14 0 -20.5 14
t-18.5 34q-3 4 -3 10q0 7 6 15.5t24 21t50.5 31.5t84.5 46l-119 68q-28 16 -37 25.5t-9 20.5q0 7 4.5 16.5t10.5 18t12 14.5t9 7q2 1 8 1q7 0 19.5 -5t32.5 -16t50 -28t74 -42v137q0 25 2.5 39.5t8.5 21.5t15 8.5t22 1.5q12 0 21 -1t15 -7.5t9 -21t3 -41.5v-131l114 66
q39 21 55 20q9 0 17 -8.5t13 -18.5t8 -18.5t3 -9.5q0 -10 -9 -20.5t-39 -28.5z" />
    <glyph glyph-name="zero" unicode="0" 
d="M77 787q0 55 4 107t12 103q17 102 45 188q28 87 69 160q40 72 90 123q25 26 51.5 46t54.5 34q56 28 119 28q62 0 118 -28q58 -29 106 -80q49 -51 90 -123q20 -36 38 -75.5t32 -84.5q28 -86 45 -188q8 -51 12 -103t4 -107q0 -161 -35 -307q-35 -144 -96 -250
q-60 -107 -141 -168q-82 -62 -173 -62t-173 62q-80 61 -142 168q-60 107 -95 250q-35 146 -35 307zM242 787q0 -149 22 -277q22 -129 60 -227q37 -97 89 -153q51 -56 109 -56t109 56q52 56 89 153q38 98 60 227q22 128 22 277q0 150 -22 278q-22 129 -60 227q-37 97 -89 153
q-51 56 -109 56t-109 -56q-52 -56 -89 -153q-38 -98 -60 -227q-22 -128 -22 -278z" />
    <glyph glyph-name="one" unicode="1" 
d="M577 1501q7 36 22 56q13 19 52 19h27q74 0 74 -75v-1427q0 -28 -6 -43q-6 -14 -18 -22q-9 -6 -26 -8q-8 -1 -16 -1h-17h-17t-16 1q-17 2 -26 8q-9 7 -17 22q-6 15 -6 43v1180q-13 -10 -31 -20t-41 -21q-48 -22 -124 -47q-14 -5 -24 -8t-18 -5q-15 -5 -24 -3q-9 1 -14 10
q-2 4 -4.5 9.5t-5.5 13.5t-5 14t-3 11q-2 9 3 15q4 7 18 12q7 3 17 6.5t23 8.5q32 11 57.5 22t44.5 21q39 21 62 47q24 28 35 64t24 97z" />
    <glyph glyph-name="two" unicode="2" 
d="M440 96h456q27 0 41 -3q13 -3 21 -9q6 -5 8 -15q1 -5 1 -10v-11v-11t-1 -10q-2 -10 -8 -15q-8 -6 -21 -9q-14 -3 -41 -3h-456h-177h-93q-16 0 -29 5q-12 4 -21 12q-4 4 -7.5 8t-6.5 8q-3 5 -5.5 8.5t-5.5 7.5q-11 14 -16 27q-3 12 -1 25q2 11 11 28q5 8 10.5 17t12.5 20
l409 630q46 71 73.5 134.5t46.5 116.5q38 108 38 183q0 86 -23 137q-23 49 -57 75q-34 25 -73 31q-20 4 -37 5.5t-33 1.5q-60 0 -109 -9q-47 -7 -85 -24q-17 -8 -39 -18q-22 -11 -38 -11q-7 0 -16 6q-8 6 -8 17q0 19 19 41q20 25 57 44q19 10 42 18.5t51 15.5q58 14 126 14
q88 0 161 -26q74 -26 122 -70q51 -45 78 -106q28 -60 28 -131v-18.5t1 -28.5q1 -31 -11 -88q-6 -27 -17 -60t-27 -72t-39.5 -84.5t-56.5 -97.5l-411 -654q-11 -17 -4 -30q7 -12 28 -12h132z" />
    <glyph glyph-name="three" unicode="3" 
d="M403 96q109 0 180 33q72 35 113 88q41 55 58 124q17 71 17 139q0 57 -18 107q-16 49 -47 94q-30 43 -70 76q-38 34 -82 58t-88 36q-43 13 -85 13q-28 0 -41 3q-14 3 -21 9q-6 5 -8 15q-1 5 -1 10v11v11t1 10q2 10 8 15q7 6 21 9q13 3 41 3q52 0 95 22q46 23 78 58t52 83
q19 45 19 97q0 48 -13 93q-12 45 -38 84q-26 38 -64 60q-40 23 -91 23q-15 0 -28 -0.5t-24 -1.5t-20.5 -3t-18.5 -4q-8 -2 -16.5 -4.5t-16.5 -5.5t-16.5 -6.5t-17.5 -7.5q-17 -8 -39 -18q-22 -11 -38 -11q-7 0 -16 6q-8 6 -8 17q0 19 13 41q13 24 45 45q33 22 80 35
q51 14 121 14q96 0 165 -34q70 -33 116 -85q45 -51 68 -115t23 -122q0 -39 -12 -82q-5 -21 -14.5 -42t-22.5 -41t-30 -39.5t-37 -38.5t-45.5 -35t-54.5 -30q38 -5 73.5 -16t67.5 -28q66 -33 115 -88q48 -54 77 -131q28 -74 28 -169q0 -28 -2.5 -55.5t-7.5 -56.5
q-9 -57 -33 -111q-23 -53 -62 -100q-40 -48 -98 -82q-29 -17 -64 -31t-77 -24q-83 -20 -189 -20q-68 0 -126 14q-28 7 -51 15.5t-42 18.5q-36 19 -57 43q-19 23 -19 42q0 12 9 17q9 6 15 6q16 0 38 -11q11 -5 20.5 -9.5t18.5 -8.5q74 -31 194 -31z" />
    <glyph glyph-name="four" unicode="4" 
d="M92 894q7 35 13 69t13 67q7 34 12.5 68.5t10.5 69.5q5 36 9 74t7 79q6 81 6 180q0 28 6 43q5 15 17 23q10 6 27 8q8 1 16 1h17h17t16 -1q17 -2 26 -8q12 -8 18 -23t6 -43q0 -50 -1.5 -94.5t-3.5 -85.5q-5 -81 -12 -149q-4 -35 -8.5 -67t-10.5 -63q-11 -62 -24 -120
q-4 -15 1 -27q4 -9 26 -9h492v615q0 28 6 43q5 15 17 23q10 6 27 8q8 1 16 1h17h17t16 -1q17 -2 26 -8q12 -8 18 -23t6 -43v-1427q0 -28 -6 -43q-6 -14 -18 -22q-9 -6 -26 -8q-8 -1 -16 -1h-17h-17t-16 1q-17 2 -26 8q-11 8 -17 22q-7 17 -7 43v716h-603q-17 0 -30 5t-20 12
q-4 4 -7.5 8t-6.5 8q-3 5 -6 8.5t-6 7.5q-5 7 -9.5 13.5t-6.5 13.5q-4 13 -1 28z" />
    <glyph glyph-name="five" unicode="5" 
d="M79 469q0 28 6 43q5 15 17 23q10 6 27 8q8 1 16 1h17h17t16 -1q17 -2 26 -8q12 -8 18 -23t6 -43q0 -84 21 -156q11 -36 25.5 -67.5t33.5 -58.5q38 -53 89 -83t109 -30t109 30q50 29 88 83q37 54 60 126q22 70 22 156t-22 156q-23 73 -60 126q-38 54 -88 83
q-51 30 -109 30h-353q-16 0 -29 5q-12 4 -21 12q-4 4 -7.5 8t-6.5 8q-3 5 -6 8.5t-5 7.5q-5 7 -9.5 13.5t-6.5 13.5q-4 13 -1 28q5 23 9 44t9 41t8.5 39t7.5 38t7.5 38t7.5 38t6.5 39t4.5 42t4 46t4 50q3 52 3 118q0 75 74 75h130h363h24t17 -1q14 0 21 -4q6 -4 8 -12
q1 -5 1 -22q0 -16 -1 -21q-1 -7 -8 -11q-6 -2 -21 -4h-41h-362q-40 0 -40 -32q0 -33 -0.5 -62t-1.5 -54q-1 -48 -6 -89q-3 -40 -9 -71q-5 -32 -12 -63q-3 -15 -6.5 -30.5t-7.5 -32.5q-4 -16 -8 -33.5t-9 -37.5q-3 -17 1 -27q4 -9 27 -9h55h54q14 1 28.5 1h30.5h72
q91 0 173 -38q79 -37 141 -103q61 -65 96 -153q35 -90 35 -187t-35 -187q-34 -86 -95 -153q-62 -66 -141 -103q-80 -37 -173 -37q-92 0 -173 36t-141 99q-61 64 -95 149q-35 87 -35 185z" />
    <glyph glyph-name="six" unicode="6" 
d="M242 480q0 -86 22 -155q22 -70 60 -121q40 -52 90 -80t109 -28t109 28q51 29 89 80q38 50 61 121q22 69 22 155q0 85 -22 154q-23 72 -61 122q-37 50 -89 79t-109 29t-109 -29t-90 -79q-37 -51 -60 -122q-22 -69 -22 -154zM522 1576q46 0 92 -11q44 -10 83 -29
q39 -17 69 -39q16 -11 28 -21.5t23 -21.5l16 -16q7 -7 1 -22q-6 -14 -18 -26t-26 -18q-13 -6 -22 3l-16 16q-14 14 -28 26t-28 20q-29 18 -58 27q-14 5 -29 8t-29 5q-29 3 -57 3q-57 0 -109 -29t-90 -79q-37 -51 -60 -122q-22 -69 -22 -154v-240q60 50 129 77q70 27 151 27
q91 0 173 -38t141 -103q61 -65 96 -153t35 -186q0 -97 -35 -187q-35 -87 -96 -153q-62 -66 -141 -103q-80 -37 -173 -37t-173 37q-41 19 -76 45t-66 58q-61 67 -95 153q-35 90 -35 187v614q0 99 35 187q34 88 95 153q63 67 142 104q82 38 173 38z" />
    <glyph glyph-name="seven" unicode="7" 
d="M474 74q0 -28 -6 -43q-6 -14 -18 -22q-9 -6 -26 -8q-8 -1 -16 -1h-17h-17t-16 1q-17 2 -27 8q-11 8 -17 22q-6 15 -6 43v95q0 96 15 219q15 126 49 257q17 67 39 134t49 136q28 69 61 133.5t73 125.5q23 35 44 68.5t41 65.5t40 64.5t41 65.5q11 17 3 29q-7 13 -27 13
h-132h-456q-28 0 -41 3q-14 3 -21 9q-6 5 -8 15q-1 5 -1 10v11v11t1 10q2 10 8 15q7 6 21 9q13 3 41 3h456h177h93q16 0 29 -5q11 -4 20 -13q10 -8 15 -16q3 -5 5.5 -8.5t5.5 -7.5q12 -15 15 -27q4 -11 1 -25q-1 -12 -11 -28q-5 -8 -10 -16.5t-12 -19.5q-26 -39 -51 -78
l-50 -78q-25 -38 -50 -77l-50 -78q-78 -122 -128 -247q-25 -63 -45 -123.5t-34 -120.5q-29 -119 -39 -231q-5 -57 -8 -108.5t-3 -99.5v-95z" />
    <glyph glyph-name="eight" unicode="8" 
d="M149 1219q0 73 29 139q28 64 79 113q50 48 118 77q66 28 146 28q79 0 145 -28q34 -14 63.5 -33t55.5 -44q51 -48 80 -113q30 -65 30 -139q0 -100 -51 -179q-49 -79 -132 -127q29 -14 54.5 -32.5t48.5 -40.5t43.5 -47t37.5 -53q33 -54 52 -122q19 -64 19 -138
q0 -97 -35 -187q-35 -87 -96 -153q-62 -66 -141 -103q-80 -37 -173 -37t-173 37q-41 19 -76 45t-66 58q-61 67 -95 153q-35 90 -35 187q0 72 18 137q10 33 22.5 63.5t29.5 58.5t37 53t43 47q46 45 103 74q-20 11 -39 25t-36 30q-32 31 -57 71q-23 41 -36 85q-13 45 -13 95z
M242 480q0 -81 22 -150q23 -70 60 -122q37 -51 89 -82q51 -30 109 -30t109 30q52 31 89 82q37 52 60 122q22 69 22 150q0 80 -22 149t-60 122t-89 83t-109 30t-109 -30t-89 -83t-60 -122t-22 -149zM314 1219q0 -56 16 -101q17 -47 45 -83q30 -36 66 -55q38 -20 81 -20
q42 0 80 20q36 19 66 55q28 36 45 83q17 48 17 101t-17 101q-17 49 -45 83q-29 37 -66 56q-38 21 -80 21q-44 0 -81 -21q-37 -19 -66 -56q-28 -34 -45 -83q-16 -45 -16 -101z" />
    <glyph glyph-name="nine" unicode="9" 
d="M802 1094q0 85 -22 154q-23 72 -61 122q-37 50 -89 79t-109 29t-109 -29t-90 -79q-37 -51 -60 -122q-22 -69 -22 -154q0 -86 22 -155q22 -70 60 -121q40 -52 90 -80t109 -28t109 28q51 29 89 80q38 50 61 121q22 69 22 155zM522 0q-46 0 -93 11q-22 5 -42.5 12.5
t-40.5 15.5q-35 16 -69 38q-15 11 -27.5 21.5t-22.5 21.5l-16 17q-8 8 -2 22q4 7 8.5 13.5t10.5 11.5q12 12 26 18t22 -3l16 -15q14 -14 27.5 -26t27.5 -21q29 -17 58 -26q30 -9 59 -12q28 -3 57 -3q59 0 109 28q52 29 89 79q38 50 61 121q22 69 22 155v240
q-59 -50 -129 -78q-69 -28 -151 -28q-91 0 -173 38q-41 19 -76 45t-66 58q-61 65 -95 153q-35 90 -35 187q0 99 35 187q34 88 95 153q63 67 142 104q82 38 173 38t173 -38q80 -37 141 -104q61 -65 96 -153t35 -187v-614q0 -97 -35 -187q-35 -87 -96 -153q-62 -66 -141 -103
q-80 -37 -173 -37z" />
    <glyph glyph-name="question" unicode="?" horiz-adv-x="731" 
d="M192 1273q0 -28 -6 -43q-6 -14 -18 -22q-9 -6 -26 -8q-8 -1 -16 -1h-17h-17t-16 1q-17 2 -27 8q-11 8 -17 22q-6 15 -6 43q0 66 27 122q27 55 72 96q23 20 49.5 35.5t55.5 26.5q60 23 123 23q66 0 126 -23q59 -22 104 -64q46 -41 71 -96q26 -57 26 -120q0 -15 -1 -29
t-3 -27q-5 -26 -12 -54q-4 -14 -8.5 -29t-10.5 -32q-11 -32 -27 -75q-57 -152 -87 -231q-14 -40 -22 -62.5t-10 -27.5q-26 -89 -42 -177q-17 -89 -21 -179q-1 -14 -2 -24.5t-4 -18.5q-6 -14 -17 -22q-9 -6 -26 -8q-8 -1 -16 -1h-17h-17t-16 1q-17 2 -27 8q-11 8 -17 22
q-3 8 -5 18.5t-1 24.5q2 43 7 85.5t13 85.5t17.5 87t22.5 89q4 13 13.5 40t23.5 69t35 99.5t47 130.5q8 22 15 41t13 36t11 31.5t9 28.5q7 26 12 50q2 12 3.5 24.5t1.5 25.5q0 49 -13 88q-12 42 -34 73t-52 49q-29 18 -63 18t-64 -18q-29 -18 -51 -49q-20 -31 -34 -73
q-12 -41 -12 -88zM270 83q0 34 24 58q24 25 59 25q34 0 58 -25q25 -24 25 -58q0 -35 -25 -59q-24 -24 -58 -24q-35 0 -59 24t-24 59z" />
    <glyph glyph-name="at" unicode="@" horiz-adv-x="1890" 
d="M742 480q0 -42 3 -81.5t10 -76.5q13 -71 38 -129q24 -56 55 -87q32 -32 68 -32q35 0 67 32t56 87q23 53 37 129t14 158t-14 158t-37 129q-24 55 -56 87t-67 32q-36 0 -68 -32q-31 -31 -55 -87q-25 -58 -38 -129q-7 -37 -10 -76.5t-3 -81.5zM930 -268q-113 0 -210 28
t-183 80q-85 53 -151 122q-67 71 -113 155q-47 84 -72 178q-25 93 -25 193q0 162 57 302q57 139 171 255q115 115 252 171q139 56 299 56q73 0 141 -14q67 -14 125 -39q29 -13 57.5 -28t54.5 -32q27 -17 53.5 -35.5t52.5 -38.5q61 -48 112 -115q50 -67 88 -145t57 -163
q20 -86 20 -168q0 -96 -18 -184t-63 -157q-46 -68 -120 -110q-77 -43 -189 -43q-44 0 -77 12q-16 7 -30 14.5t-25 16.5q-22 17 -36 38t-20 35q-51 -57 -105 -87q-55 -29 -117 -29q-77 0 -140 42q-62 42 -108 110q-44 70 -68 155t-24 173q0 108 29 198q29 89 77 151
q48 63 109 97t125 34q53 0 98 -20q42 -19 76 -48q0 26 6 40t17 20q9 5 26 7q8 1 16 1h17t17 -0.5t16 -1.5q16 -2 26 -9q12 -8 18 -22q6 -15 6 -41v-614q0 -30 3 -64q4 -33 12 -64q10 -32 22 -50q14 -20 34 -20q40 0 74 20q33 21 58 55q27 36 44 78q10 22 17.5 44.5
t13.5 45.5q14 47 18 91q3 23 5 43.5t2 39.5q0 70 -17 144q-8 36 -20 70t-26 66t-30 62t-35 56q-36 54 -74 89q-82 75 -179 118q-97 44 -223 44q-127 0 -236 -50q-107 -50 -191 -146q-82 -94 -125 -202q-41 -107 -44 -254q-1 -46 2.5 -90.5t11.5 -87.5q16 -86 51 -162
q34 -75 84 -139q50 -63 114 -107q32 -23 68 -40t74 -30q78 -24 167 -24q15 0 28.5 0.5t25.5 1.5q25 1 46 6q11 2 20.5 4.5t19.5 4.5q10 3 19 6t19 8q18 8 38 21t38 13q7 0 15 -6q9 -5 9 -17q0 -17 -17 -39q-16 -19 -52 -38q-17 -8 -39 -15.5t-48 -12.5q-55 -11 -123 -11z
" />
    <glyph glyph-name="A" unicode="A" horiz-adv-x="1102" 
d="M1172 189q-28 -46 -53.5 -81.5t-54 -59.5t-63.5 -36t-81 -12q-30 0 -52 9.5t-38.5 25t-27.5 34.5t-18 38q-21 -26 -53 -46t-71 -33.5t-82.5 -20.5t-87.5 -7q-242 0 -366 200.5t-124 586.5q0 163 40.5 306.5t119.5 251t195.5 169.5t267.5 62q107 0 171.5 -20.5t96.5 -70.5
q10 -14 10 -27q0 -10 -7.5 -15t-13.5 -6q-19 0 -38.5 12.5t-41.5 20.5q-39 16 -78.5 23.5t-98.5 7.5q-75 0 -138 -29t-114 -80t-89.5 -119.5t-64 -148t-38.5 -165.5t-13 -172q0 -79 7.5 -162.5t23 -163t41 -149.5t61.5 -123t83.5 -84t107.5 -31q62 0 108 24.5t76 60.5
t45 78.5t15 78.5v930q0 28 6 43t17 22t26 8t34 1q18 0 33 -1t26.5 -8t17.5 -22t6 -43v-974q0 -30 3.5 -64.5t9.5 -64.5t15 -49.5t20 -19.5q16 0 36 15.5t40.5 40.5t40.5 55t37 59q5 9 9.5 17.5t9.5 16.5l11 20q4 8 16 8q10 0 21 -4.5t20.5 -11.5t16 -15t6.5 -15q0 -2 -1 -6
t-12 -21q-7 -11 -13.5 -22t-13.5 -22z" />
    <glyph glyph-name="B" unicode="B" horiz-adv-x="1056" 
d="M770 468q0 88 -34 160.5t-91 125t-131.5 81.5t-154.5 29v-781q82 0 156.5 32t131 85t90 123t33.5 145zM276 1576q108 0 201.5 -20.5t161.5 -63t107 -107.5t39 -155q0 -51 -12 -99t-33.5 -89.5t-51 -74.5t-63.5 -55q62 -26 118.5 -65.5t99 -93t68 -122t25.5 -151.5
q0 -82 -25.5 -149t-70.5 -120.5t-107 -93t-135.5 -65.5t-155.5 -39t-166 -13q-55 0 -105.5 7.5t-88.5 22.5t-61 36.5t-23 50.5q0 12 8.5 16.5t14.5 4.5q12 0 26.5 -6t30.5 -14t32 -15.5t30 -10.5q20 -4 53 -9v1163q0 25 6 40t17 22.5t26 9.5t34 2q18 0 33.5 -2t26.5 -9.5
t17 -22.5t6 -40v-286q70 0 119 24t80.5 61.5t46 83.5t14.5 90q0 78 -32.5 132t-82.5 87.5t-110.5 48t-117.5 14.5q-35 0 -63 -2.5t-52.5 -7.5t-46.5 -14t-43 -21q-13 -8 -26.5 -13.5t-26.5 -5.5q-5 1 -12.5 6t-7.5 15q0 16 12 32.5t32 31t47 26t56 17.5q52 11 131 11z" />
    <glyph glyph-name="C" unicode="C" horiz-adv-x="857" 
d="M927 189q-66 -94 -149 -141.5t-186 -47.5q-126 0 -234 51t-187.5 150.5t-125 246.5t-45.5 339q0 87 8.5 179.5t30 180.5t57.5 166t91.5 136.5t132.5 92.5t179 34q51 0 99.5 -6.5t88 -19t68.5 -31.5t42 -44q10 -14 10 -27q0 -10 -7.5 -15t-13.5 -6q-19 0 -39 12.5
t-40 20.5q-20 7 -35 14.5t-36 13.5t-53 9.5t-84 3.5q-63 0 -111 -28.5t-83.5 -75t-59.5 -107t-39.5 -124.5t-23.5 -127.5t-11.5 -115.5t-4 -88.5t-0.5 -47.5q0 -86 6.5 -172t24 -165t48 -147.5t77.5 -119.5t113.5 -80t156.5 -29q45 0 86 15.5t75.5 39.5t60.5 54.5t43 60.5
q5 9 9.5 17.5t9.5 16.5l11 20q4 8 16 8q10 0 21 -4.5t20.5 -11.5t16 -15t6.5 -15q0 -2 -1 -6t-12 -21q-7 -11 -13.5 -22t-13.5 -22z" />
    <glyph glyph-name="D" unicode="D" horiz-adv-x="1104" 
d="M0 125q4 8 9 10.5t13 2.5t18 -4t20.5 -9t20 -10.5t17.5 -8.5q23 -10 43 -15.5t52 -7.5v1163q0 25 6 40t17 22.5t26 9.5t34 2q18 0 33.5 -2t26.5 -9.5t17 -22.5t6 -40v-1163q83 12 165 61.5t147.5 137t106 213.5t40.5 292q0 141 -28 248.5t-73.5 187t-103.5 133t-118.5 86
t-117.5 46t-101 13.5q-70 0 -116.5 -10t-89.5 -35q-13 -8 -26.5 -13.5t-26.5 -5.5q-5 1 -12.5 6t-7.5 15q0 16 12 32.5t32 31t47 26t56 17.5q53 11 132 11q78 0 160.5 -17t161 -55t149 -98.5t123 -148.5t83.5 -204.5t31 -265.5q0 -160 -34 -280t-90.5 -207.5t-130 -145
t-152 -92t-157 -48.5t-144.5 -14q-37 0 -79.5 3.5t-81.5 15t-70 32t-46 55.5q-2 6 -2 9q0 5 3 10z" />
    <glyph glyph-name="E" unicode="E" horiz-adv-x="838" 
d="M908 189q-70 -99 -163.5 -144t-208.5 -45q-146 0 -248 37.5t-166 102t-93 152t-29 188.5q0 65 19.5 130.5t57.5 123.5t95 104.5t132 74.5q-57 28 -98 63.5t-66.5 75.5t-37.5 82.5t-12 84.5q0 58 21 121t65.5 115.5t113 86.5t163.5 34q107 0 171.5 -20.5t96.5 -70.5
q10 -14 10 -27q0 -10 -7.5 -15t-13.5 -6q-18 0 -38.5 12.5t-41.5 20.5q-18 7 -31.5 13t-29 10t-37 6t-55.5 2q-50 0 -90.5 -24t-69.5 -62.5t-45 -87t-16 -97.5q0 -47 14 -95t41.5 -87t68 -63.5t94.5 -24.5q27 0 41.5 -3.5t21 -10t7.5 -15.5t1 -20t-1 -20t-7.5 -15.5t-21 -10
t-41.5 -3.5q-60 0 -116 -32.5t-98.5 -87t-68 -126t-25.5 -148.5q0 -68 16.5 -138t58 -127t113 -93t182.5 -36q63 0 111 15.5t84 39.5t62 54.5t45 60.5q5 9 9.5 17.5t9.5 16.5l11 20q4 8 16 8q10 0 21 -4.5t20.5 -11.5t16 -15t6.5 -15q0 -2 -1 -6t-12 -21q-7 -11 -13.5 -22
t-13.5 -22z" />
    <glyph glyph-name="F" unicode="F" horiz-adv-x="744" 
d="M605 1538h54t45 1.5t40 6t38 12.5q16 7 38 12.5t38 5.5q8 0 16.5 -4.5t8.5 -15.5q0 -18 -17 -42.5t-51.5 -47t-87 -38t-122.5 -15.5q-13 0 -37 5.5t-53.5 13.5t-63 17.5t-65.5 17.5t-60 13.5t-48 5.5q-38 0 -67.5 -3t-54 -9.5t-47 -16.5t-47.5 -23q-9 -5 -20.5 -2.5
t-17.5 4.5t-15 7t-9 16q0 19 17 39.5t52 37.5t87.5 28.5t123.5 11.5q42 0 90 -6t93 -13t83 -13t59 -6zM196 864h5q0 1 -13 1h-9t-12 -1q-35 2 -44 11.5t-9 36.5q0 29 8.5 38.5t44.5 9.5h29v316q0 25 5.5 40t16 22.5t26 9.5t34.5 2q18 0 33.5 -2t26.5 -9.5t17 -22.5t6 -40
v-316h221q19 0 29.5 -2.5t15.5 -8t6.5 -15t1.5 -22.5q0 -14 -1.5 -23.5t-6.5 -15.5t-16 -8.5t-29 -2.5h-221v-788q0 -25 -5.5 -40t-16 -22.5t-26 -9.5t-35.5 -2q-17 0 -31.5 1t-26 8t-18 22t-6.5 43v790z" />
    <glyph glyph-name="G" unicode="G" horiz-adv-x="1066" 
d="M734 -109q-36 -28 -56 -60t-30 -69t-12 -79t-2 -89q0 -29 2.5 -66.5t9 -70.5t17 -55.5t26.5 -22.5q14 0 23 17.5t14 41.5t6.5 49t1.5 41v92v271zM1136 189q-16 -25 -34.5 -49t-42.5 -47t-54.5 -45.5t-71.5 -44.5q-11 -6 -15.5 -8.5t-17.5 -9.5v-365q0 -57 -10.5 -113
t-34.5 -100.5t-64.5 -72.5t-100.5 -28q-54 0 -94 24.5t-66.5 68.5t-39 105t-12.5 133q0 58 20 112t55 100t81.5 82.5t99.5 60.5l1 75q-17 -16 -46 -28.5t-63 -21t-69.5 -13t-66.5 -4.5q-47 0 -101.5 10t-109 39.5t-105 83t-89.5 141t-62 213.5t-23 300q0 107 18.5 207.5
t55 188t89.5 160t122.5 124.5t154 80.5t183.5 28.5q107 0 171.5 -20.5t96.5 -70.5q10 -14 10 -27q0 -10 -7.5 -15t-13.5 -6q-18 0 -38.5 12.5t-41.5 20.5q-39 15 -78.5 23t-98.5 8q-94 0 -177 -53.5t-145.5 -148.5t-98.5 -226t-36 -286q0 -148 21.5 -278t63 -226.5
t101.5 -152.5t138 -56q46 0 90 18t78 50t55 76.5t21 97.5v933q0 27 6.5 41t18 21t26.5 8t33 1q17 0 32 -1t26 -7.5t17.5 -21t6.5 -41.5v-1188q5 2 13.5 8t19.5 13q15 10 33 28.5t35.5 40.5t34 46.5t30.5 46.5q5 9 9.5 17.5t9.5 16.5l11 20q4 8 16 8q10 0 21 -4.5t20.5 -11.5
t16 -15t6.5 -15q0 -2 -1 -6t-12 -21q-7 -11 -13.5 -22t-13.5 -22z" />
    <glyph glyph-name="H" unicode="H" horiz-adv-x="1063" 
d="M360 640q-36 -32 -54.5 -72.5t-26.5 -86t-8.5 -95t-0.5 -98.5q0 -30 3.5 -67t10.5 -70t17 -55.5t24 -22.5q15 0 22 18t10 43t3 49.5v38.5v192v226zM780 1097q26 21 39.5 53t19.5 65t6.5 62t0.5 43q0 27 -0.5 59t-4.5 59t-11.5 45t-20.5 18q-11 0 -17 -9.5t-9 -24
t-3.5 -32t-0.5 -34.5q0 -13 0.5 -24.5t0.5 -22.5v-192v-65zM1133 189q-29 -50 -57 -85.5t-58 -58.5t-63.5 -34t-72.5 -11q-74 0 -125 20.5t-82.5 60t-46 96.5t-14.5 129v546l-88 -76v-362q0 -40 -0.5 -86t-6 -92t-17 -89t-34 -75.5t-57.5 -52t-86 -19.5q-53 0 -94 22
t-69.5 61t-43 91.5t-14.5 113.5q0 91 16.5 154.5t49 113t80.5 93t110 95.5v725q0 24 -23.5 28t-58.5 4q-38 0 -67.5 -3t-54 -9.5t-47 -16.5t-47.5 -23q-9 -5 -18.5 -8.5t-19.5 -4.5q-6 0 -15 6t-9 17q0 19 17 39.5t52 37.5t87.5 28.5t123.5 11.5h164q18 0 33.5 -1t26 -8
t16.5 -22.5t6 -43.5v-618l88 73v206q0 40 0.5 86.5t6 92.5t17 88.5t34 75t57.5 52t86 19.5q29 0 63.5 -11t64 -35.5t49.5 -63.5t20 -94q0 -65 -11 -111.5t-38 -88t-71.5 -84t-111.5 -98.5v-709q0 -27 2.5 -62.5t15 -68t39 -54.5t73.5 -22q16 0 35.5 16t40.5 41t41 55t36 58
q5 9 9.5 17.5t9.5 16.5l11 20q4 8 16 8q10 0 21 -4.5t20.5 -11.5t16 -15t6.5 -15q0 -2 -1 -6t-12 -21q-7 -11 -13.5 -22t-13.5 -22z" />
    <glyph glyph-name="I" unicode="I" horiz-adv-x="401" 
d="M283 107q0 -12 0.5 -18t5 -9t15.5 -4.5t31 -3.5q24 -2 45 -14.5t21 -29.5q0 -9 -3 -14.5t-22 -8.5t-60 -4t-116 -1t-115.5 0.5t-59.5 3.5t-22 8.5t-3 15.5q0 18 14.5 27t31.5 13.5t31 5t13 0.5q22 0 25 9.5t3 23.5v1362q0 16 -1.5 21t-10 6.5t-25 3.5t-46.5 11
q-14 4 -24.5 13t-10.5 24q0 10 3 16t22 8.5t59.5 3t115.5 0.5t116 -0.5t60 -3t22 -8.5t3 -16q0 -14 -11 -23t-25.5 -14.5t-29.5 -7.5t-24 -2q-20 0 -24 -7.5t-4 -24.5v-1362z" />
    <glyph glyph-name="J" unicode="J" horiz-adv-x="702" 
d="M772 190q-6 -9 -14.5 -19.5t-20.5 -19.5t-27.5 -15.5t-34.5 -6.5q-25 0 -60 4t-59 10q-24 -55 -60.5 -84t-78.5 -42t-86.5 -15t-85.5 -2q-40 0 -66 4t-45.5 11.5t-37 17.5t-40.5 23q-29 17 -43 38t-14 36q0 11 7 15.5t12 4.5q9 0 19 -4.5t20.5 -10.5l21 -12t19.5 -9
q18 -7 31.5 -14t29 -13t35.5 -9.5t51 -3.5q61 0 97.5 23.5t56 59.5t25.5 78.5t6 80.5v1153q0 32 -40 32q-38 0 -68 -3t-55.5 -9t-48 -16t-44.5 -24q-20 -13 -38 -13q-7 0 -15.5 6t-8.5 17q0 19 17 39.5t52 37.5t87 28.5t123 11.5h130q74 0 74 -75v-1140q0 -19 -1.5 -41.5
t-4 -45t-6.5 -42.5t-8 -34q7 -1 17 -1.5t21 -0.5t21.5 0.5t17.5 2.5q20 5 31.5 19.5t18.5 25.5q5 9 9.5 17.5t9.5 16.5l11 20q4 8 16 8q10 0 21 -4.5t20.5 -11.5t16 -15t6.5 -15q0 -2 -1 -6t-12 -21q-7 -11 -13.5 -21.5t-13.5 -21.5z" />
    <glyph glyph-name="K" unicode="K" horiz-adv-x="994" 
d="M1064 189q-28 -46 -53.5 -81.5t-54 -59.5t-63.5 -36t-81 -12q-27 0 -51 26t-46 70t-43 101t-43 119t-45 125.5t-49 118.5q-29 60 -64 94t-66 51t-52.5 21t-24.5 4v-656q0 -26 -5.5 -41t-16 -22.5t-26 -9t-35.5 -1.5q-17 0 -32 0.5t-26 7t-18 22t-7 44.5v1395
q0 15 -4 23.5t-24 8.5q-8 0 -23 -5t-31.5 -11.5t-31.5 -11.5t-24 -5q-7 0 -15.5 5.5t-8.5 16.5q0 26 16.5 42.5t41.5 26t55 13.5t57 5t48 0t27 -1q45 0 64 -18.5t19 -56.5v-675q31 1 53 17.5t39 41t30 54t25 58.5q30 69 52 137.5t42.5 133.5t42.5 124t52 109q16 27 32 42
t30.5 22.5t25.5 9t17 1.5q54 0 84 -7t45 -16t18.5 -18.5t3.5 -14.5q0 -8 -6.5 -13.5t-14.5 -5.5q-24 0 -46.5 5t-39.5 5q-41 0 -64.5 -28t-40 -79.5t-30 -125.5t-32.5 -166q-14 -73 -33.5 -126.5t-39.5 -90t-38 -58t-28 -30.5q-10 -8 -19.5 -15t-20.5 -14q35 -20 70.5 -46
t67.5 -62.5t59.5 -86t46.5 -116.5q11 -37 22.5 -80.5t22.5 -87t22 -84t21.5 -72t20.5 -50.5t20 -19q16 0 36 15.5t40.5 40.5t40.5 55t37 59q5 9 9.5 17.5t9.5 16.5l11 20q4 8 16 8q10 0 21 -4.5t20.5 -11.5t16 -15t6.5 -15q0 -2 -1 -6t-12 -21q-7 -11 -13.5 -22t-13.5 -22z
" />
    <glyph glyph-name="L" unicode="L" horiz-adv-x="1088" 
d="M349 264q-50 46 -81 67.5t-59 21.5q-16 0 -30 -13t-25 -33.5t-17.5 -45t-6.5 -47.5q0 -14 4.5 -37.5t14.5 -46t26.5 -39.5t40.5 -17q26 0 47.5 23t38 54.5t28.5 63.5t19 49zM1158 189q-66 -94 -152 -141.5t-183 -47.5q-32 0 -62 4.5t-62 17.5t-70 37t-87 64
q-17 14 -34.5 27.5t-41.5 31.5q-16 -37 -39.5 -70t-55.5 -58t-72 -39.5t-88 -14.5q-43 0 -81 17.5t-67 47.5t-46 68.5t-17 80.5q0 41 10.5 79.5t35.5 68t64.5 47.5t98.5 18q46 0 87 -22t81 -50q29 100 38.5 203t9.5 204q0 54 -2 104.5t-4 100t-4 98.5t-2 99q0 79 14 153
t49.5 131.5t95 92.5t150.5 35q40 0 68.5 -3t50.5 -8.5t40.5 -14t38.5 -19.5q29 -16 43.5 -37.5t15.5 -35.5q0 -10 -7.5 -15t-13.5 -6q-18 0 -38.5 12.5t-41.5 20.5q-18 7 -33.5 13t-33 10t-39 6t-50.5 2q-39 0 -69 -29t-51 -79.5t-31.5 -118t-10.5 -144.5q0 -103 7 -197
t7 -191q0 -59 -3.5 -121t-12 -123.5t-23 -120.5t-35.5 -112q42 -36 71.5 -62.5t52 -46t42.5 -31.5t43 -19.5t52.5 -10t71.5 -2.5q59 0 101 14t71.5 36t49 49t33.5 52q5 9 9.5 17.5t9.5 16.5l11 20q4 8 16 8q10 0 21 -4.5t20.5 -11.5t16 -15t6.5 -15q0 -2 -1 -6t-12 -21
q-7 -11 -13.5 -22t-13.5 -22z" />
    <glyph glyph-name="M" unicode="M" horiz-adv-x="1726" 
d="M1796 189q-29 -47 -55 -82.5t-55 -59t-63.5 -35.5t-79.5 -12q-33 0 -68 16t-63.5 48t-47 80.5t-18.5 113.5v892q0 29 -3.5 66.5t-10.5 76.5t-19 76.5t-29 66.5t-40 47t-53 18t-53 -18t-40.5 -47t-29 -66.5t-19 -76.5t-10.5 -76.5t-3 -66.5v-1075q0 -28 -6 -43.5
t-17 -22.5t-26 -8t-34 -1t-34 1t-26 8t-17 22.5t-6 43.5v1075q0 29 -3 66.5t-10.5 76.5t-19 76.5t-29 66.5t-40.5 47t-53 18t-53 -18t-40.5 -47t-29 -66.5t-19 -76.5t-10.5 -76.5t-3 -66.5v-58v-77v-118.5v-181.5v-266.5v-373.5q0 -28 -6 -43.5t-17 -22.5t-26 -8t-34 -1
t-34 1t-26 8t-17 22.5t-6 43.5v1075q0 18 -1 51t-6 72t-14 79.5t-24.5 73.5t-39 54t-56.5 21q-27 0 -49.5 -1.5t-43 -6.5t-41.5 -14t-45 -23q-14 -8 -27.5 -13.5t-26.5 -5.5q-5 1 -12.5 6t-7.5 15q0 18 16 37t42 35t59 27.5t67 15.5q28 3 69 3t74 -8.5t60 -27t49 -47.5
t41 -70q20 48 49.5 78t62.5 46.5t66 22.5t60 6t60 -5.5t66 -22t62.5 -46.5t49.5 -79q20 48 49.5 78t62.5 46.5t66 22.5t60 6t62.5 -6.5t71.5 -23.5t69.5 -46.5t57.5 -76.5q17 -33 28.5 -63.5t18.5 -62.5t10 -68t3 -79v-878q0 -29 2 -63.5t8 -64.5t18 -50t32 -20
q16 0 36 15.5t40.5 40.5t40.5 55t37 59q5 9 9.5 17.5t9.5 16.5l11 20q4 8 16 8q10 0 21 -4.5t20.5 -11.5t16 -15t6.5 -15q0 -2 -1 -6t-12 -21q-7 -11 -13.5 -22t-13.5 -22z" />
    <glyph glyph-name="N" unicode="N" horiz-adv-x="1249" 
d="M1319 189q-30 -51 -58.5 -86.5t-59 -58.5t-63.5 -33.5t-72 -10.5q-34 0 -69 16.5t-63.5 49t-46.5 80.5t-18 112v892q0 29 -3.5 66.5t-10.5 76.5t-19 76.5t-29 66.5t-40 47t-53 18h1q-39 0 -68.5 -32t-48.5 -83t-28.5 -113.5t-9.5 -122.5v-1074q0 -29 -6 -44t-17 -22.5
t-26.5 -8.5t-34.5 -1t-34 1t-25.5 8t-16.5 22.5t-6 43.5v1075q0 8 -0.5 37.5t-4.5 68.5t-12.5 82t-24 79.5t-39.5 60t-59 23.5q-29 0 -51 -1.5t-42.5 -6.5t-41 -13.5t-45.5 -23.5q-14 -8 -27.5 -13.5t-26.5 -5.5q-5 1 -12.5 6t-7.5 15q0 18 16 37t42 35t59 27.5t68 15.5
q28 3 69 3q45 0 79.5 -10t60.5 -29.5t46 -48t37 -65.5q17 43 43 72t57.5 47t66.5 26t71 8q27 0 62 -6.5t71 -23.5t69.5 -46.5t57.5 -76.5q17 -33 28.5 -63.5t18.5 -62.5t10 -68t3 -79v-878q0 -30 2 -64.5t8 -64t18 -49.5t32 -20q16 0 36 16t41 41t41 55t36 58q5 9 9.5 17.5
t9.5 16.5l11 20q4 8 16 8q10 0 21 -4.5t20.5 -11.5t16 -15t6.5 -15q0 -2 -1 -6t-12 -21q-7 -11 -13.5 -22t-13.5 -22z" />
    <glyph glyph-name="O" unicode="O" horiz-adv-x="1068" 
d="M1138 189q-14 -24 -42.5 -34t-62.5 -10q-14 0 -35 3.5t-45 10t-49 16.5t-47 24q-68 -93 -155 -146t-186 -53q-72 0 -138.5 29t-124 81t-104 125t-80 160.5t-51.5 187.5t-18 207q0 110 19 211t53 188.5t81.5 158.5t105 122t122.5 78.5t135 27.5q103 0 172.5 -20t95.5 -71
q10 -14 10 -27q0 -10 -7.5 -15t-13.5 -6q-19 0 -39 12.5t-40 20.5q-19 7 -36 13t-36 10t-41.5 6t-52.5 2q-59 0 -108.5 -27t-90 -75t-71 -114.5t-51 -146t-31 -169t-10.5 -182.5q0 -85 12 -171t34 -165t53 -148t70 -120t84.5 -80t96.5 -29q55 0 102.5 32.5t86.5 87t69 126.5
t50.5 151t31 160.5t10.5 155.5q0 118 -15 205.5t-40.5 149.5t-59 102t-70 64.5t-74 35.5t-71.5 16q-17 2 -34.5 7.5t-17.5 15.5q0 6 12 18t48 12q37 0 87.5 -11.5t103 -35.5t100.5 -60t81 -84q25 -38 46.5 -85t37 -102.5t24 -117t8.5 -127.5q0 -161 -40 -302.5t-109 -250.5
q11 -7 27.5 -13t33.5 -10.5t32 -7.5t22 -3q29 -1 44 11.5t26 29.5q5 9 9.5 17.5t9.5 16.5l11 20q4 8 16 8q10 0 21 -4.5t20.5 -11.5t16 -15t6.5 -15q0 -2 -1 -6t-12 -21q-7 -11 -13.5 -22t-13.5 -22z" />
    <glyph glyph-name="P" unicode="P" horiz-adv-x="828" 
d="M278 1501q-68 0 -115 -10t-89 -35q-14 -8 -27.5 -13.5t-26.5 -5.5q-5 1 -12.5 6t-7.5 15q0 15 11.5 31t32 31t47 27t56.5 18q52 11 131 11q111 0 207 -24t167 -71.5t111.5 -118t40.5 -163.5q0 -87 -31.5 -150.5t-89 -104.5t-139.5 -60.5t-183 -19.5v-790q0 -25 -5.5 -40
t-16 -22.5t-26 -9.5t-35.5 -2q-17 0 -31.5 1t-26 8t-18 22t-6.5 43v1172q0 27 5.5 42t16 22t26 8.5t34.5 1.5q18 0 33 -1t26.5 -8t17.5 -22t6 -43v-286h10q60 0 109 17t84 48.5t54.5 75.5t19.5 98q0 64 -27.5 119.5t-75.5 96t-114 63.5t-143 23z" />
    <glyph glyph-name="Q" unicode="Q" horiz-adv-x="1064" 
d="M1134 189q-37 -56 -88.5 -111t-128.5 -95l-17 -9v-594q0 -25 -5 -40t-15.5 -22.5t-26 -9.5t-35.5 -2q-15 0 -30 0.5t-27 7t-19.5 22t-7.5 44.5q1 60 1 107.5v92v89.5t-0.5 100t-0.5 123.5v159.5q-9 -14 -31.5 -23.5t-55 -16t-73 -9.5t-84.5 -3q-47 0 -101.5 10t-109 39.5
t-105 83t-89.5 141t-62 213.5t-23 300q0 106 17.5 205.5t52.5 187t87.5 160.5t121.5 125.5t155 81.5t189 29q107 0 171.5 -20.5t96.5 -70.5q10 -14 10 -27q0 -10 -7.5 -15t-13.5 -6q-18 0 -38.5 12.5t-41.5 20.5q-39 15 -78.5 23t-98.5 8q-101 0 -184.5 -54t-144.5 -149
t-94.5 -226t-33.5 -285q0 -77 7 -160t22.5 -162t41 -150t61.5 -124.5t83.5 -85t108.5 -31.5q43 0 87 17.5t78.5 49.5t56.5 76.5t22 98.5q0 55 1 113.5t1 122.5q0 188 -1 360t-1 334q0 28 6.5 43.5t18 22t27 7.5t32.5 1q18 0 33 -1t26 -7.5t17 -22t6 -43.5v-1196q9 7 16 11
t13 8.5t12.5 10t15.5 14.5q26 29 54 68.5t53 81.5q5 9 9.5 17.5t9.5 16.5l11 20q4 8 16 8q10 0 21 -4.5t20.5 -11.5t16 -15t6.5 -15q0 -2 -1 -6t-12 -21q-7 -11 -13.5 -22t-13.5 -22z" />
    <glyph glyph-name="R" unicode="R" horiz-adv-x="996" 
d="M1066 189q-28 -47 -54 -82t-54.5 -59t-63 -36t-79.5 -12q-41 0 -82 33.5t-80.5 86t-76 118.5t-67.5 131.5t-55 123t-39 94.5q-22 53 -35.5 91.5t-18.5 51.5v-656q0 -26 -5.5 -41t-16 -22.5t-26 -9t-35.5 -1.5q-18 0 -33 1t-26 7.5t-17 21.5t-6 44v1172q0 27 5.5 42t16 22
t26 8.5t34.5 1.5q18 0 33 -1t26.5 -8t17.5 -22t6 -43v-420q63 0 114.5 27t88 70.5t57 98.5t20.5 111q0 68 -29.5 134t-79.5 118t-115.5 84t-138.5 32q-68 0 -115 -10t-89 -35q-14 -8 -27.5 -13.5t-26.5 -5.5q-5 1 -12.5 6t-7.5 15q0 25 22 46.5t58.5 37.5t84.5 25t99 9
q134 0 235.5 -37.5t169.5 -99t102.5 -141.5t34.5 -165q0 -67 -20 -126t-58 -108.5t-93 -87t-125 -60.5q16 -50 41.5 -119.5t55.5 -145t62.5 -149t64 -132t59.5 -95t49 -36.5q17 0 37 16t40.5 40.5t40 54.5t36.5 59q5 9 9.5 17.5t9.5 16.5l11 20q4 8 16 8q10 0 21 -4.5
t20.5 -11.5t16 -15t6.5 -15q0 -2 -1 -6t-12 -21q-7 -11 -13.5 -22t-13.5 -22z" />
    <glyph glyph-name="S" unicode="S" horiz-adv-x="976" 
d="M1046 189q-6 -9 -14.5 -19.5t-20.5 -19.5t-27.5 -15t-34.5 -6q-39 0 -79 9t-72 22q-24 -32 -62.5 -61t-85.5 -51t-100 -35t-107 -13q-53 0 -96 6.5t-79.5 20t-68 34t-60.5 48.5q-21 21 -30.5 41.5t-9.5 37.5q2 13 9.5 18t16.5 5q22 0 42 -13.5t40 -31.5t41.5 -37
t45.5 -30q54 -25 139 -25q78 0 136.5 37t96.5 94.5t57 127t19 135.5q0 91 -26.5 161.5t-69.5 120t-98.5 78t-113.5 36.5q-91 12 -162.5 47t-120.5 84t-75 107t-26 117q0 73 30 138t81.5 113.5t121.5 77t151 28.5q110 0 175.5 -21.5t95.5 -69.5q10 -14 10 -27q0 -10 -7.5 -15
t-13.5 -6q-18 0 -38.5 12.5t-41.5 20.5q-18 7 -31.5 13t-30 10t-38.5 6t-56 2q-57 0 -101.5 -25.5t-76 -66t-48 -91t-16.5 -99.5q0 -27 9.5 -67.5t34 -80t66.5 -71t108 -40.5q102 -15 188.5 -54t150 -100t99 -143.5t35.5 -182.5q0 -44 -7.5 -83.5t-18.5 -74t-25.5 -63
t-27.5 -50.5q19 -7 45 -11.5t53 1.5q20 5 31.5 19.5t18.5 25.5q5 9 9.5 17.5t9.5 16.5l11 20q4 8 16 8q10 0 21 -4.5t20.5 -11.5t16 -15t6.5 -15q0 -2 -1 -6t-12 -21q-7 -11 -13.5 -22t-13.5 -22z" />
    <glyph glyph-name="T" unicode="T" horiz-adv-x="935" 
d="M1005 189q-33 -47 -62 -82t-65.5 -59t-85.5 -36t-122 -12q-82 0 -141 28.5t-101 77t-68 113.5t-40.5 138.5t-19.5 151t-5 151.5q0 85 9 160t24 148.5t33.5 151.5t38.5 170q7 33 15.5 46.5t30.5 13.5t43 -4t37 -11t26 -15t10 -16t-2.5 -19t-6.5 -26q-23 -88 -40.5 -160
t-28.5 -140.5t-16.5 -139.5t-5.5 -158q0 -39 2 -97t9.5 -123.5t22 -131t39.5 -117.5t62 -85t90 -33q52 0 91 15.5t68.5 39.5t50.5 54.5t38 60.5q5 9 9.5 17.5t9.5 16.5l11 20q4 8 16 8q10 0 21 -4.5t20.5 -11.5t16 -15t6.5 -15q0 -2 -1 -6t-12 -21q-7 -11 -13.5 -22
t-13.5 -22zM605 1538h54t45 1.5t40 6t38 12.5q16 7 38 12.5t38 5.5q8 0 16.5 -4.5t8.5 -15.5q0 -18 -17 -42.5t-51.5 -47t-87 -38t-122.5 -15.5q-13 0 -37 5.5t-53.5 13.5t-63 17.5t-65.5 17.5t-60 13.5t-48 5.5q-38 0 -67.5 -3t-54 -9.5t-47 -16.5t-47.5 -23
q-9 -5 -20.5 -2.5t-17.5 4.5t-15 7t-9 16q0 19 17 39.5t52 37.5t87.5 28.5t123.5 11.5q42 0 90 -6t93 -13t83 -13t59 -6z" />
    <glyph glyph-name="U" unicode="U" horiz-adv-x="1100" 
d="M1170 189q-28 -46 -53 -81.5t-53.5 -59.5t-63 -36t-80.5 -12q-31 0 -53.5 8.5t-38.5 22t-26.5 30.5t-17.5 34q-21 -25 -43.5 -43t-55.5 -29.5t-79.5 -17t-115.5 -5.5q-242 0 -366 200.5t-124 586.5v714q0 30 7 45.5t18.5 22t26.5 7t31 0.5q18 0 33.5 -1t26.5 -8t17 -22.5
t6 -43.5v-714q0 -79 7.5 -162.5t23 -163t41 -149.5t61.5 -123t83.5 -84t107.5 -31q62 0 108 24.5t76 60.5t45 78.5t15 78.5v1185q0 30 7 45.5t18.5 22t26.5 7t31 0.5q18 0 33.5 -1t26.5 -8t17 -22.5t6 -43.5v-1229q0 -30 3.5 -64.5t9.5 -64.5t15 -49.5t20 -19.5
q16 0 35.5 15.5t40 40.5t40 55t36.5 59q5 9 9.5 17.5t9.5 16.5l11 20q4 8 16 8q10 0 21 -4.5t20.5 -11.5t16 -15t6.5 -15q0 -2 -1 -6t-12 -21q-7 -11 -13.5 -22t-13.5 -22z" />
    <glyph glyph-name="V" unicode="V" horiz-adv-x="1008" 
d="M829 178q-22 -54 -47 -89t-51 -54.5t-51 -27t-46 -7.5q-76 0 -135 40.5t-103.5 109.5t-74.5 161t-49 194t-27.5 208.5t-8.5 205.5q0 81 2.5 157.5t2.5 145.5q0 57 -3.5 107.5t-14.5 88t-32.5 59t-55.5 21.5q-13 0 -27.5 -5t-45.5 -28q-10 -8 -21 -10.5t-20 -2.5t-15 8.5
t-6 14.5q1 11 12.5 26t29.5 29t40.5 25t45.5 15q14 2 27 4t25 2q85 0 133 -37t72 -109t29.5 -177t5.5 -240q0 -88 6 -192t18 -208.5t30.5 -201.5t42 -172t53 -120t64.5 -45q23 0 40 38.5t29 102t19 144t11 164.5t5 164t1 141.5t-0.5 98t-0.5 33.5v541q0 30 7 45.5t18.5 22
t26.5 7t31 0.5q18 0 33.5 -1t26.5 -8t17 -22.5t6 -43.5v-692q0 -87 -3 -173.5t-9.5 -164t-18 -141t-27.5 -104.5q7 -1 22.5 -6t33 -10t33.5 -9t23 -2q20 5 31.5 19.5t18.5 25.5q5 9 9.5 17.5t9.5 16.5l11 20q4 8 16 8q10 0 21 -4.5t20.5 -11.5t16 -15t6.5 -15q0 -2 -1 -6
t-12 -21q-7 -11 -13.5 -21.5t-13.5 -21.5q-6 -9 -14.5 -19.5t-20.5 -19.5t-27.5 -15.5t-34.5 -6.5q-12 0 -33 6t-43.5 14t-43 16t-32.5 13z" />
    <glyph glyph-name="W" unicode="W" horiz-adv-x="1499" 
d="M1320 178q-42 -84 -122 -131t-190 -47q-39 0 -69.5 12.5t-53 35t-38.5 54.5t-26 70q-11 -37 -27 -68.5t-39 -54.5t-53 -36t-68 -13q-107 0 -178 42t-115.5 112.5t-66 163.5t-30 195t-8.5 207v199q0 81 3 157.5t3 145.5q0 57 -4 107.5t-15 88t-32.5 59t-55.5 21.5
q-13 0 -27.5 -5t-45.5 -28q-10 -8 -21 -10.5t-20 -2.5t-15 8.5t-6 14.5q1 11 12.5 26t29.5 29t40.5 25t45.5 15q14 2 27 4t25 2q85 0 133 -24t71.5 -79.5t29 -147.5t5.5 -227q-1 -57 -3 -121.5t-3.5 -132t-2.5 -136.5t-1 -136q2 -97 10 -187t29.5 -159t60 -110.5
t101.5 -41.5q28 0 48 31.5t34.5 84t23 121.5t14 144.5t7 152.5t2 145t0 122t-0.5 85v541q0 30 7 45.5t18.5 22t26.5 7t31 0.5q18 0 33.5 -1t26.5 -8t17 -22.5t6 -43.5v-692q0 -66 1.5 -146t5.5 -162t12.5 -158.5t23 -136.5t35 -96t50.5 -36q48 0 81 39t54 102.5t32.5 144
t16.5 163.5t6 160.5t1 135.5q0 61 -0.5 118.5t-0.5 110.5v453q0 30 7 45t18 22t26 7.5t31 0.5q18 0 33.5 -1t26.5 -8t17 -22.5t6 -43.5v-692q0 -86 -1 -172.5t-5.5 -164t-15 -141.5t-28.5 -105q7 -2 22.5 -7t33 -10t33.5 -8.5t23 -1.5q20 5 31.5 19.5t18.5 25.5
q5 9 9.5 17.5t9.5 16.5l11 20q4 8 16 8q10 0 21 -4.5t20.5 -11.5t16 -15t6.5 -15q0 -2 -1 -6t-12 -21q-7 -11 -13.5 -21.5t-13.5 -21.5q-6 -9 -14.5 -19.5t-20.5 -19.5t-27.5 -15.5t-34.5 -6.5q-12 0 -33 6t-43.5 14t-43 16t-32.5 13z" />
    <glyph glyph-name="X" unicode="X" horiz-adv-x="1014" 
d="M1084 189q-28 -46 -54 -81.5t-54.5 -59.5t-63 -36t-79.5 -12q-38 0 -66.5 8t-48.5 21t-33.5 30.5t-20.5 36.5l-170 463l-166 -458q-19 -53 -68 -77t-135 -24q-70 0 -98 4.5t-28 23.5q0 18 14.5 27t31.5 13.5t31 5t13 0.5q32 0 57 19t33 51q1 1 1.5 5.5t6.5 19.5
q7 20 22.5 62t42 114.5t65.5 180.5t95 261q-63 172 -104 287t-66.5 187.5t-39.5 110t-22 54.5q-11 22 -20.5 36t-21.5 22.5t-29 12t-45 6.5q-9 2 -20.5 5t-21.5 8t-16.5 13t-6.5 19q0 19 28 23.5t98 4.5q85 0 135 -26t68 -76l166 -459l167 459q18 51 67.5 76.5t135.5 25.5
q36 0 60.5 -1t39 -4t20.5 -8.5t6 -14.5q0 -14 -11 -23t-25.5 -14.5t-29.5 -7.5t-24 -2q-37 0 -61.5 -28.5t-47.5 -84.5t-49.5 -139.5t-66.5 -192.5q-20 -55 -44.5 -121.5t-53.5 -147.5l250 -686q5 -14 11 -20.5t22 -6.5q17 0 37 16t40.5 40.5t40 54.5t36.5 59q5 9 9.5 17.5
t9.5 16.5l11 20q4 8 16 8q10 0 21 -4.5t20.5 -11.5t16 -15t6.5 -15q0 -2 -1 -6t-12 -21q-7 -11 -13.5 -22t-13.5 -22z" />
    <glyph glyph-name="Y" unicode="Y" horiz-adv-x="1239" 
d="M907 -110q-37 -30 -57.5 -62t-30 -68t-11 -77t-1.5 -89q0 -29 2.5 -66.5t9 -70.5t17 -55.5t26.5 -22.5q14 0 23 17.5t14 41.5t6.5 49t1.5 41v362zM1309 189q-18 -28 -38 -53t-44 -48t-53.5 -44t-67.5 -41q-11 -6 -16 -9t-17 -9v-365q0 -61 -10.5 -118t-35.5 -100.5
t-65 -69.5t-99 -26q-54 0 -94 24.5t-66.5 68.5t-39 105t-11.5 133q0 45 14 93.5t44 95.5t78.5 90t118.5 76v157q-21 -29 -48.5 -56t-58 -47.5t-63 -33t-65.5 -12.5q-76 0 -138 40.5t-110.5 109.5t-83.5 161t-58.5 194t-34.5 208.5t-11 205.5q0 81 2.5 157.5t2.5 145.5
q0 57 -3.5 107.5t-15 88t-32.5 59t-55 21.5q-13 0 -27.5 -5t-45.5 -28q-10 -8 -21 -10.5t-20 -2.5t-15 8.5t-6 14.5q2 18 20 36.5t44.5 32.5t57.5 23t58 9q85 0 130.5 -37t66.5 -109t23.5 -177t1.5 -240q-1 -88 3.5 -192t16 -208.5t31.5 -201.5t50.5 -172t72 -120t96.5 -45
q47 0 83 33t62 87.5t43.5 123.5t28 141t14.5 141t4 122v779q0 30 7 45t19 22t27 7.5t31 0.5q18 0 33.5 -1t26 -8t16.5 -22.5t6 -43.5v-1440q5 3 11 7q5 3 11 6.5t11 7.5q26 18 59.5 58t73.5 104q5 9 9.5 17.5t9.5 16.5l11 20q4 8 16 8q10 0 21 -4.5t20.5 -11.5t16 -15
t6.5 -15q0 -2 -1 -6t-12 -21q-7 -11 -13.5 -22t-13.5 -22z" />
    <glyph glyph-name="Z" unicode="Z" horiz-adv-x="1061" 
d="M1131 189q-33 -46 -64 -81t-69 -59t-86.5 -36.5t-115.5 -12.5q-39 0 -97.5 6t-120 13.5t-119.5 14t-95 6.5q-60 0 -100.5 -2t-77.5 -18q-16 -7 -37.5 -13.5t-38.5 -6.5h-3q-13 0 -29.5 7t-31.5 15.5t-26 16.5t-13 11q-6 9 -6 19q-1 14 15 43l757 1342
q-31 -11 -73.5 -23.5t-94.5 -12.5q-20 0 -63 10t-93 21.5t-97 21.5t-74 10q-61 0 -100.5 -7.5t-76.5 -23.5q-17 -7 -38.5 -10.5t-38.5 -3.5q-6 0 -15 6t-9 17q0 19 17 39.5t52 37.5t87.5 28.5t123.5 11.5q42 0 90 -6t93 -13t83 -13t59 -6h54.5t45 2t39 6t38.5 12
q16 6 36.5 11t37.5 7h2q11 0 29 -8.5t35.5 -20.5t30 -25.5t12.5 -23.5q0 -15 -13 -40l-753 -1333q32 11 73 22.5t92 11.5q19 0 52 -4t73.5 -10t86.5 -13.5t89.5 -13.5t82.5 -10t67 -4q61 0 100.5 11.5t66.5 31t44.5 45t34.5 52.5q5 9 9.5 17.5t9.5 16.5l11 20q4 8 16 8
q10 0 21 -4.5t20.5 -11.5t16 -15t6.5 -15q0 -2 -1 -6t-12 -21q-7 -11 -13.5 -22t-13.5 -22z" />
    <glyph glyph-name="backslash" unicode="\" horiz-adv-x="768" 
d="M696 10q3 -11 4 -19.5t1 -16.5q0 -18 -5.5 -27.5t-17 -15.5t-29.5 -11t-44 -13q-4 -1 -7 -1.5t-7 -0.5q-17 0 -30 12t-23 47l-467 1602q-3 11 -4 19t-1 16q0 19 11.5 32t28.5 21.5t36 12t34 3.5q19 0 32 -13t22 -45z" />
    <glyph glyph-name="asciicircum" unicode="^" horiz-adv-x="1345" 
d="M412 1352q18 0 47.5 -14.5t59.5 -35t56 -42t37 -36.5q13 -16 13 -32q0 -18 -17.5 -22t-39.5 -4q-33 0 -52.5 5.5t-32 14t-20 18.5t-16.5 19q-13 14 -24 24.5t-11 12.5q0 -2 -11.5 -14.5t-27.5 -27.5t-34 -28.5t-30 -17.5q-18 -6 -53 -6q-23 0 -40.5 4t-17.5 22
q0 19 14 38t35 36t45.5 31.5t45 25t33.5 16.5t11 5q21 8 30 8z" />
    <glyph glyph-name="grave" unicode="`" horiz-adv-x="902" 
d="M497 1326q2 -6 2 -8q0 -5 -5 -10t-12.5 -8.5t-16.5 -5.5t-16 -2q-13 0 -35.5 9t-48 24.5t-50.5 36t-42 42.5q-6 7 -12.5 19t-12 25.5t-9 27.5t-3.5 27q0 12 5.5 25t15.5 23.5t23 17.5t28 7q16 0 29 -7.5t22.5 -19t15 -26.5t5.5 -30q0 -8 -1.5 -13t-1.5 -13q0 -18 12 -45
t51 -51q17 -11 33.5 -22.5t23.5 -22.5z" />
    <glyph glyph-name="a" unicode="a" horiz-adv-x="911" 
d="M728 0q-31 0 -58.5 11.5t-49 29t-36.5 38t-22 37.5q-51 -57 -104.5 -86.5t-117.5 -29.5q-78 0 -141 42.5t-107 111t-68 154t-24 172.5q0 110 29 198.5t77 151t109 96.5t125 34q55 0 98 -20t76 -48q0 25 6 39t16.5 20.5t25.5 7.5t34 1t34.5 -1t26.5 -8t17 -22t6 -43v-614
q0 -29 3.5 -63.5t12.5 -64.5t23.5 -50t36.5 -20q16 0 36 15.5t41 40.5t41 55t37 59q5 9 9.5 17.5t9.5 16.5l11 20q4 8 16 8q10 0 21 -4.5t20.5 -11.5t16 -15t6.5 -15q0 -2 -1 -6t-12 -21q-7 -11 -13.5 -22t-13.5 -22q-29 -45 -54.5 -80.5t-54.5 -59.5t-63.5 -36.5
t-80.5 -12.5zM166 480q0 -82 13.5 -155.5t36.5 -129t55 -88.5t69 -33q36 0 68 32.5t55.5 88t37 129.5t13.5 156t-13.5 155.5t-37 129t-55.5 88.5t-68 33q-37 0 -68.5 -32.5t-55 -88t-37 -129.5t-13.5 -156z" />
    <glyph glyph-name="b" unicode="b" horiz-adv-x="797" 
d="M166 480q0 -82 13.5 -155.5t36.5 -129t55 -88.5t69 -33q36 0 68 32.5t55.5 88t37 129.5t13.5 156t-13.5 155.5t-37 129t-55.5 88.5t-68 33q-37 0 -68.5 -32.5t-55 -88t-37 -129.5t-13.5 -156zM867 189q-6 -9 -14.5 -19.5t-20.5 -19.5t-27.5 -15t-34.5 -6
q-46 0 -92.5 12.5t-78.5 27.5q-51 -82 -116.5 -125.5t-142.5 -43.5q-68 0 -129.5 36.5t-108 100.5t-74.5 152t-28 191v1021q0 27 6 42t17.5 22.5t26.5 9t33 1.5t33.5 -2t26.5 -9.5t17 -22.5t6 -41v-608q38 32 82.5 49.5t92.5 17.5q71 0 133 -39t107.5 -105t72 -153
t26.5 -184q0 -33 -4 -68t-11 -69t-17 -66t-22 -58q6 -2 18.5 -7t29 -9t35.5 -6t38 3q20 5 31.5 19.5t18.5 25.5q5 9 9.5 17.5t9.5 16.5l11 20q4 8 16 8q10 0 21 -4.5t20.5 -11.5t16 -15t6.5 -15q0 -2 -1 -6t-12 -21q-7 -11 -13.5 -22t-13.5 -22z" />
    <glyph glyph-name="c" unicode="c" horiz-adv-x="742" 
d="M812 189q-20 -32 -50.5 -65.5t-75 -61t-104 -45t-137.5 -17.5q-94 0 -175 33.5t-141 94.5t-94.5 146t-34.5 187q0 57 8 116.5t25.5 115t45.5 104t69 85t95 57.5t124 21q56 0 106 -15.5t88 -40.5t60 -55.5t22 -61.5q0 -13 -13 -13q-20 0 -41.5 10.5t-41 24.5t-35 27.5
t-23.5 18.5q-26 16 -53 23.5t-69 7.5q-38 0 -67.5 -19.5t-52 -52.5t-38 -76.5t-25 -90.5t-14 -95t-4.5 -91q0 -66 20.5 -134.5t58.5 -125t92.5 -92t122.5 -35.5q39 0 76.5 7.5t73 27t69 52t63.5 83.5q5 9 9.5 17.5t9.5 16.5l11 20q4 8 16 8q10 0 21 -4.5t20.5 -11.5t16 -15
t6.5 -15q0 -2 -1 -6t-12 -21q-7 -11 -13.5 -22t-13.5 -22z" />
    <glyph glyph-name="d" unicode="d" horiz-adv-x="910" 
d="M166 480q0 -82 13.5 -155.5t36.5 -129t55 -88.5t69 -33q36 0 68 32.5t55.5 88t37 129.5t13.5 156t-13.5 155.5t-37 129t-55.5 88.5t-68 33q-37 0 -68.5 -32.5t-55 -88t-37 -129.5t-13.5 -156zM728 0q-29 0 -55.5 10.5t-48.5 27.5t-38 37.5t-24 40.5q-51 -57 -104.5 -86.5
t-117.5 -29.5q-68 0 -129.5 36.5t-108 100.5t-74.5 152t-28 191q0 111 29.5 199.5t77.5 151t108.5 95.5t122.5 33q28 0 51.5 -4.5t44 -13t40 -21.5t40.5 -30v611q0 26 7 41t18.5 22.5t26.5 9.5t30 2q18 0 33.5 -2t27 -9.5t17.5 -22.5t6 -41v-1229q0 -29 3.5 -63.5
t12.5 -64.5t23.5 -50t36.5 -20q16 0 36 15.5t41 40.5t41 55t37 59q5 9 9.5 17.5t9.5 16.5l11 20q4 8 16 8q10 0 21 -4.5t20.5 -11.5t16 -15t6.5 -15q0 -2 -1 -6t-12 -21q-7 -11 -13.5 -22t-13.5 -22q-29 -45 -54.5 -80.5t-54.5 -59.5t-63.5 -36.5t-80.5 -12.5z" />
    <glyph glyph-name="e" unicode="e" horiz-adv-x="742" 
d="M322 886q-40 0 -69.5 -35.5t-49 -93t-29.5 -131.5t-10 -150q0 -23 3 -32q47 26 87.5 40.5t73.5 22.5t58 14t42.5 15.5t26.5 26t9 47.5q0 18 -3.5 45.5t-11 58.5t-19 61.5t-27.5 55t-36 40t-45 15.5zM445 0q-113 0 -196.5 40t-139 106.5t-82.5 153t-27 180.5q0 88 21 174
t62 154t101 110t138 42q60 0 111 -28.5t88.5 -73t60 -98.5t25.5 -105q1 -11 1 -21v-20q0 -34 -7.5 -66.5t-31.5 -59t-68.5 -45t-118.5 -24.5q-53 -2 -108.5 -13.5t-99.5 -38.5q7 -52 31.5 -104.5t62 -94.5t86.5 -68t106 -26q39 0 76.5 7.5t73 27t69 52t63.5 83.5
q5 9 9.5 17.5t9.5 16.5l11 20q4 8 16 8q10 0 21 -4.5t20.5 -11.5t16 -15t6.5 -15q0 -2 -1 -6t-12 -21q-7 -11 -13.5 -22t-13.5 -22q-20 -32 -50.5 -65.5t-75 -61t-104 -45t-137.5 -17.5z" />
    <glyph glyph-name="f" unicode="f" horiz-adv-x="529" 
d="M599 189q-25 -43 -49.5 -74.5t-51.5 -54t-57.5 -36t-67.5 -19.5q5 -29 9 -49.5t6.5 -49.5t4 -75t1.5 -127q0 -114 -14.5 -190.5t-42 -122.5t-67.5 -65.5t-90 -19.5q-48 0 -82 18t-56 62t-32 119.5t-10 191.5v1606q0 75 13 127t36.5 84.5t56.5 47t74 14.5q50 0 85 -17.5
t59 -47.5t38 -70t21 -84t9 -90.5t2 -89.5q0 -50 -3 -99t-14 -104.5t-31.5 -120.5t-54.5 -147l-135 -322v-214q9 9 22.5 15.5t42.5 6.5q30 0 49 -9t32.5 -25t23 -37.5t21.5 -46.5q25 0 51 16t49.5 40.5t44.5 54.5t37 59q5 9 9.5 17.5t9.5 16.5l11 20q4 8 16 8q10 0 21 -4.5
t20.5 -11.5t16 -15t6.5 -15q0 -2 -1 -6t-12 -21q-7 -11 -13.5 -22t-13.5 -22zM268 1177q0 64 -4.5 122.5t-14 103t-24 71t-33.5 26.5q-14 0 -21.5 -19.5t-10.5 -49t-3.5 -64t-0.5 -64.5v-742l65 246q13 51 22.5 96t14.5 88.5t7.5 88.5t2.5 97zM248 -296v100.5t-0.5 76t-3 63
t-6.5 61.5q-14 1 -24 3t-19.5 5t-18.5 8t-20 13v-441v-65t3 -70t10.5 -56t22.5 -23q13 0 22 16.5t15.5 44t10 62t5.5 70.5t2.5 70.5t0.5 61.5zM188 88q1 -8 7.5 -12.5t14.5 -6.5t15 -3t10 -1q0 6 -2 14.5t-5 16.5t-7.5 14t-9.5 6q-14 0 -19 -7t-5 -16q0 -2 0.5 -2.5
t0.5 -2.5z" />
    <glyph glyph-name="g" unicode="g" horiz-adv-x="881" 
d="M166 480q0 -82 13.5 -155.5t36.5 -129t55 -88.5t69 -33q36 0 68 32.5t55.5 88t37 129.5t13.5 156t-13.5 155.5t-37 129t-55.5 88.5t-68 33q-37 0 -68.5 -32.5t-55 -88t-37 -129.5t-13.5 -156zM951 189q-21 -31 -44.5 -62t-54.5 -60t-73 -55t-100 -48v-344q0 -19 -1 -49.5
t-6.5 -65.5t-17 -70.5t-33 -64t-55 -46.5t-81.5 -18q-54 0 -93.5 24.5t-66 68.5t-39 105t-12.5 133q0 58 17.5 113t49 102.5t75.5 85.5t97 62v67q-11 -8 -26 -19.5t-36 -22t-48.5 -18t-62.5 -7.5q-73 0 -135 39.5t-107.5 105.5t-71.5 153t-26 182q0 102 27 189.5t73 152
t108 101.5t133 37q55 0 97.5 -20.5t75.5 -47.5q0 25 5.5 39t16 20.5t25.5 7.5t34 1t34.5 -1t26.5 -8t17.5 -22t6.5 -43l-1 -817q47 16 78.5 35.5t53.5 41.5t37.5 46.5t32.5 51.5q5 9 9.5 17.5t9.5 16.5l11 20q4 8 16 8q10 0 21 -4.5t20.5 -11.5t16 -15t6.5 -15q0 -2 -1 -6
t-12 -21q-7 -11 -13.5 -22t-13.5 -22zM513 -109q-29 -22 -45.5 -46.5t-25 -52t-11 -58t-2.5 -64.5q0 -5 -0.5 -28.5t0.5 -56t4 -68.5t9 -67t16.5 -51t26.5 -20q12 0 17.5 11t8 31t2.5 47.5v59.5v92v271z" />
    <glyph glyph-name="h" unicode="h" horiz-adv-x="831" 
d="M648 0q-62 0 -99 23.5t-56.5 61.5t-26 86.5t-6.5 99.5q0 49 3.5 91.5t8 79.5t8.5 70t4 65q0 63 -9.5 119t-27.5 98t-45 67t-62 25q-42 0 -74.5 -38t-54.5 -97t-33.5 -131t-11.5 -140v-409q0 -25 -5 -39t-15.5 -21t-26 -9t-36.5 -2q-17 0 -32 1t-26.5 7.5t-18 21
t-6.5 42.5v1429q0 27 6 42t17.5 22.5t26.5 9t33 1.5t33.5 -2t26.5 -9.5t17 -22.5t6 -41v-588q24 17 65.5 32t108.5 15q85 0 144.5 -22.5t97 -65.5t54.5 -106t17 -143q0 -36 -3.5 -71t-9 -77t-12 -96t-13.5 -129q-3 -36 -3 -66q0 -23 5 -43t14 -35t20.5 -23.5t24.5 -8.5
q16 0 36 15.5t41 40.5t41 55t37 59q5 9 9.5 17.5t9.5 16.5l11 20q4 8 16 8q10 0 21 -4.5t20.5 -11.5t16 -15t6.5 -15q0 -2 -1 -6t-12 -21q-7 -11 -13.5 -22t-13.5 -22q-29 -45 -54.5 -80.5t-54.5 -59.5t-63.5 -36.5t-80.5 -12.5z" />
    <glyph glyph-name="i" unicode="i" horiz-adv-x="397" 
d="M0 1160q0 36 24 59t58 23t57.5 -24t23.5 -58q0 -33 -23 -57t-58 -24t-58.5 23t-23.5 58zM214 0q-64 0 -105.5 28.5t-65.5 71.5t-33.5 93t-9.5 94v599q0 25 6 40t17 22.5t26 9.5t34 2q18 0 33.5 -2t26.5 -9.5t17 -22.5t6 -40v-614q0 -28 3.5 -62.5t12 -64.5t23 -50.5
t37.5 -20.5q16 0 36 15.5t41 40.5t41 55t37 59q5 9 9.5 17.5t9.5 16.5l11 20q4 8 16 8q10 0 21 -4.5t20.5 -11.5t16 -15t6.5 -15q0 -2 -1 -6t-12 -21q-7 -11 -13.5 -22t-13.5 -22q-29 -45 -54.5 -80.5t-54.5 -59.5t-63.5 -36.5t-80.5 -12.5z" />
    <glyph glyph-name="j" unicode="j" horiz-adv-x="521" 
d="M152 1160q0 35 24.5 58.5t57.5 23.5q34 0 58.5 -23.5t24.5 -58.5t-24 -58t-59 -23t-58.5 23.5t-23.5 57.5zM153 -109q-29 -22 -45.5 -46.5t-25 -52t-11 -58t-2.5 -64.5q0 -5 -0.5 -28.5t0.5 -56t4 -68.5t9 -67t16.5 -51t26.5 -20q12 0 17.5 11t8 31t2.5 47.5v59.5v92v271
zM591 189q-21 -31 -44.5 -62t-55 -60t-73.5 -55t-100 -48l1 -344q0 -19 -1 -49.5t-6.5 -65.5t-17 -70.5t-33 -64t-55 -46.5t-81.5 -18q-54 0 -93.5 24.5t-66 68.5t-39 105t-12.5 133q0 58 17.5 113t49 102.5t75.5 85.5t97 62v340q-10 -21 -21 -43t-24 -45
q-5 -10 -12.5 -19.5t-21.5 -9.5q-19 0 -36.5 14.5t-17.5 29.5q0 11 3.5 18.5t6.5 12.5q12 23 22.5 45t18.5 44q21 60 36.5 129t25.5 136.5t15 128.5t5 105q0 27 6 42t16.5 22t25.5 8.5t34 1.5t34.5 -1t26.5 -8t17 -22t6 -43l-1 -817q47 16 78.5 35.5t53.5 41.5t38 46.5
t33 51.5q5 9 9.5 17.5t9.5 16.5l11 20q4 8 16 8q10 0 21 -4.5t20.5 -11.5t16 -15t6.5 -15q0 -2 -1 -6t-12 -21q-7 -11 -13.5 -22t-13.5 -22z" />
    <glyph glyph-name="k" unicode="k" horiz-adv-x="803" 
d="M620 0q-65 0 -133 28t-125 83t-97 136t-49 187q72 22 122.5 43t82 46.5t46 59.5t14.5 83q0 33 -11 71.5t-30 71.5t-44.5 55t-55.5 22q-40 0 -72 -36.5t-54.5 -94.5t-35 -130.5t-12.5 -144.5v-406q0 -26 -5.5 -41t-16 -22.5t-26 -9t-35.5 -1.5q-17 0 -32 0.5t-26 7.5
t-18 22.5t-7 45.5v1425q0 30 7 45.5t18.5 22t26.5 7t31 0.5q18 0 33.5 -1t26.5 -8t17 -22.5t6 -43.5v-589q41 31 90 39.5t111 8.5t114.5 -18.5t91 -56t60 -93t21.5 -128.5q0 -61 -26 -110.5t-67 -87t-91.5 -61.5t-99.5 -33q9 -49 36.5 -102t65.5 -96.5t84 -71.5t92 -28
q16 0 36 15.5t41 40.5t41 55t37 59q5 9 9.5 17.5t9.5 16.5l11 20q4 8 16 8q10 0 21 -4.5t20.5 -11.5t16 -15t6.5 -15q0 -2 -1 -6t-12 -21q-7 -11 -13.5 -22t-13.5 -22q-29 -45 -54.5 -80.5t-54.5 -59.5t-63.5 -36.5t-80.5 -12.5z" />
    <glyph glyph-name="l" unicode="l" horiz-adv-x="493" 
d="M268 1177q0 23 -1.5 55.5t-5 68.5t-9.5 72t-14.5 64.5t-19.5 46t-26 17.5q-12 0 -19 -14.5t-10.5 -40.5t-5 -62.5t-1.5 -80.5v-738l49 185q16 65 28 112.5t19.5 93t11.5 96.5t4 125zM282 0q-58 0 -109.5 15.5t-89.5 61.5t-60.5 131t-22.5 224v846q0 72 9 128t30 93.5
t56 57t88 19.5q63 0 103.5 -27.5t64.5 -79t33.5 -125.5t9.5 -167q0 -73 -7 -133t-21 -116.5t-34.5 -112.5t-47 -120t-58.5 -139.5t-70 -170.5q0 -100 10 -161t28 -94.5t42.5 -44.5t53.5 -11q37 0 67.5 16.5t56.5 44t50 64.5t48 79l11 20q4 8 16 8q10 0 21 -4.5t20.5 -11.5
t16 -15t6.5 -15q0 -2 -1 -6t-12 -21q-36 -61 -67.5 -105t-67 -72.5t-77 -42t-96.5 -13.5z" />
    <glyph glyph-name="m" unicode="m" horiz-adv-x="1079" 
d="M1149 189q-27 -45 -52.5 -80.5t-54 -59.5t-63 -36.5t-81.5 -12.5q-65 0 -103 25.5t-57.5 66.5t-25.5 92.5t-6 104.5q1 59 4.5 106t7 89.5t6 84.5t2.5 92q0 41 -4 81t-15 72t-31.5 52t-53.5 20q-26 0 -46.5 -29.5t-34 -80t-20.5 -117t-7 -139.5v-446q0 -28 -6 -43t-18 -22
t-30 -8t-41 -1q-15 0 -27.5 1.5t-22.5 9t-15.5 22t-5.5 41.5v504q0 57 -1 112t-8 98.5t-23 70.5t-45 27q-23 0 -42.5 -29t-33.5 -77.5t-21.5 -111t-7.5 -128.5l1 -466q0 -29 -7 -44t-19.5 -22t-30.5 -7.5t-39 -0.5q-15 0 -27.5 1.5t-22.5 9t-15.5 22t-5.5 41.5v812
q0 28 6 43t17 22t26 8t34 1q18 0 33 -1t26.5 -8t17.5 -22t6 -43q20 35 47 54.5t74 19.5q33 0 61 -10t49 -27t34.5 -38.5t17.5 -43.5q5 30 20.5 52.5t38 37.5t51 22t60.5 7q66 0 116.5 -22t84.5 -62t51 -95t17 -121q0 -32 -1 -56t-3.5 -55.5t-7.5 -79t-13 -126.5
q-4 -33 -6 -69t-2 -70q0 -27 2.5 -50.5t10 -41.5t21 -28t36.5 -10q18 0 38 16t40 40.5t39.5 54.5t36.5 59q5 9 9.5 17.5t9.5 16.5l11 20q4 8 16 8q10 0 21 -4.5t20.5 -11.5t16 -15t6.5 -15q0 -2 -1 -6t-12 -21q-7 -11 -13.5 -22t-13.5 -22z" />
    <glyph glyph-name="n" unicode="n" horiz-adv-x="749" 
d="M819 189q-27 -45 -52.5 -80.5t-54 -59.5t-63 -36.5t-81.5 -12.5q-65 0 -103 25.5t-57.5 66.5t-25.5 92.5t-6 104.5q1 59 4.5 106t7 89.5t6 84.5t2.5 92q0 41 -4 81t-15 72t-31.5 52t-53.5 20q-27 0 -50 -31t-40 -82t-26.5 -117t-9.5 -136v-446q0 -25 -5.5 -40t-16 -22.5
t-26 -9.5t-35.5 -2q-16 0 -31 1t-26.5 7.5t-18.5 21.5t-7 44v812q0 25 5.5 40t16 22.5t26 9.5t34.5 2t34.5 -0.5t26.5 -7t17 -22t6 -44.5q18 28 36.5 43.5t35 22t31 7.5t23.5 1q69 0 119 -23t83 -64.5t49 -100t16 -128.5q0 -10 -1 -29t-4 -53t-8 -87t-13 -132q-4 -33 -6 -69
t-2 -70q0 -27 2.5 -50.5t10 -41.5t21 -28t36.5 -10q18 0 38 16t40 40.5t39.5 54.5t36.5 59q5 9 9.5 17.5t9.5 16.5l11 20q4 8 16 8q10 0 21 -4.5t20.5 -11.5t16 -15t6.5 -15q0 -2 -1 -6t-12 -21q-7 -11 -13.5 -22t-13.5 -22z" />
    <glyph glyph-name="o" unicode="o" horiz-adv-x="797" 
d="M166 480q0 -82 13.5 -155.5t36.5 -129t55 -88.5t69 -33q36 0 68 32.5t55.5 88t37 129.5t13.5 156t-13.5 155.5t-37 129t-55.5 88.5t-68 33q-37 0 -68.5 -32.5t-55 -88t-37 -129.5t-13.5 -156zM599 169q-22 -36 -49.5 -67t-60 -53.5t-70 -35.5t-79.5 -13
q-69 0 -130.5 38.5t-108 104t-74 152.5t-27.5 185q0 101 27 188.5t73.5 152.5t108.5 102t131 37q71 0 133 -38.5t108 -104t72.5 -153t26.5 -185.5q0 -65 -14 -134t-40 -127q6 -2 18.5 -7t29 -9t35.5 -6t38 3q20 5 31.5 19.5t18.5 25.5q5 9 9.5 17.5t9.5 16.5l11 20q4 8 16 8
q10 0 21 -4.5t20.5 -11.5t16 -15t6.5 -15q0 -2 -1 -6t-12 -21q-7 -11 -13.5 -22t-13.5 -22q-6 -9 -14.5 -19.5t-20.5 -19.5t-27.5 -15t-34.5 -6q-46 0 -92.5 12.5t-78.5 27.5z" />
    <glyph glyph-name="p" unicode="p" horiz-adv-x="764" 
d="M166 480q0 -82 13.5 -155.5t36.5 -129t55 -88.5t69 -33q36 0 68 32.5t55.5 88t37 129.5t13.5 156t-13.5 155.5t-37 129t-55.5 88.5t-68 33q-37 0 -68.5 -32.5t-55 -88t-37 -129.5t-13.5 -156zM599 169q-18 -30 -43.5 -60t-58 -54.5t-72 -39.5t-85.5 -15q-51 0 -93.5 18.5
t-80.5 47.5v-686q0 -24 -5 -38.5t-15 -22.5t-25.5 -10.5t-37.5 -2.5q-16 0 -31 0.5t-26.5 7.5t-18.5 22t-7 44v1506q0 25 6 40t17 22.5t26 9.5t34 2q18 0 33 -1t26.5 -7.5t17.5 -21t6 -40.5q33 30 73.5 50t96.5 20q76 0 139.5 -41.5t109 -109.5t70.5 -154.5t25 -175.5
q0 -74 -16 -143t-38 -118q6 -2 18.5 -7t29 -9t35.5 -6t38 3q20 5 31.5 19.5t18.5 25.5q5 9 9.5 17.5t9.5 16.5l11 20q4 8 16 8q10 0 21 -4.5t20.5 -11.5t16 -15t6.5 -15q0 -2 -1 -6t-12 -21q-7 -11 -13.5 -22t-13.5 -22q-6 -9 -14.5 -19.5t-20.5 -19.5t-27.5 -15t-34.5 -6
q-46 0 -92.5 12.5t-78.5 27.5z" />
    <glyph glyph-name="q" unicode="q" horiz-adv-x="881" 
d="M166 480q0 -82 13.5 -155.5t36.5 -129t55 -88.5t69 -33q36 0 68 32.5t55.5 88t37 129.5t13.5 156t-13.5 155.5t-37 129t-55.5 88.5t-68 33q-37 0 -68.5 -32.5t-55 -88t-37 -129.5t-13.5 -156zM679 -620q0 -24 -5 -38.5t-15 -22.5t-25.5 -10.5t-37.5 -2.5q-17 0 -31.5 1
t-26 8t-18 22t-6.5 43v687q-40 -32 -83 -49.5t-95 -17.5q-73 0 -134.5 39.5t-106.5 106t-70 153t-25 181.5q0 93 25.5 179.5t70.5 153t106.5 107t133.5 40.5q56 0 100 -20.5t78 -46.5q0 27 6.5 41t17.5 19.5t26 6t32 0.5q18 0 33.5 -2t26.5 -9.5t17 -22.5t6 -40v-817
q47 16 78.5 35.5t53.5 41.5t37.5 46.5t32.5 51.5q5 9 9.5 17.5t9.5 16.5l11 20q4 8 16 8q10 0 21 -4.5t20.5 -11.5t16 -15t6.5 -15q0 -2 -1 -6t-12 -21q-7 -11 -13.5 -22t-13.5 -22q-21 -31 -44.5 -62t-54.5 -60t-73 -55t-100 -48v-584z" />
    <glyph glyph-name="r" unicode="r" horiz-adv-x="778" 
d="M595 0q-111 0 -174.5 56.5t-63.5 170.5q0 43 4.5 90t11.5 94t16 93t19 87q23 97 52 190q-35 -18 -67 -24.5t-63 -6.5q-45 0 -81.5 12.5t-62.5 21.5q3 -29 6.5 -55.5t7.5 -53.5q5 -40 6.5 -79t-3 -80t-16.5 -84.5t-34 -91.5q-10 -21 -21 -43t-24 -45q-5 -10 -12.5 -19.5
t-21.5 -9.5q-19 0 -36.5 14.5t-17.5 29.5q0 11 3.5 18.5t6.5 12.5q12 23 22.5 45t18.5 44q20 52 24 100.5t0 99.5q-5 66 -29.5 134t-53.5 147q-5 14 -8.5 25t-3.5 19q0 17 31 32t89 15q21 0 29 -11t15 -44q3 -15 19.5 -29t38.5 -25t46 -17.5t42 -6.5q11 0 38 2t56.5 10
t55 23.5t32.5 42.5q10 35 20 45.5t24 10.5q20 0 41.5 -4.5t39 -11.5t28.5 -16t11 -18q0 -8 -4 -19t-8 -23q-26 -76 -48.5 -149t-39 -151.5t-26 -167.5t-9.5 -196q0 -18 2.5 -40.5t13 -42.5t31 -33.5t55.5 -13.5q16 0 36 15.5t41 40.5t41 55t37 59q5 9 9.5 17.5t9.5 16.5
l11 20q4 8 16 8q10 0 21 -4.5t20.5 -11.5t16 -15t6.5 -15q0 -2 -1 -6t-12 -21q-7 -11 -13.5 -22t-13.5 -22q-29 -45 -54.5 -80.5t-54.5 -59.5t-63.5 -36.5t-80.5 -12.5z" />
    <glyph glyph-name="s" unicode="s" horiz-adv-x="797" 
d="M894 233q-18 -31 -41 -47.5t-51 -22t-59.5 -1t-67.5 15.5q-39 -80 -109.5 -129t-165.5 -49q-41 0 -81.5 11.5t-72.5 35.5t-52.5 61t-20.5 88q0 20 15.5 28.5t32.5 8.5t32.5 -8.5t15.5 -28.5q0 -16 6.5 -37t22 -40t40.5 -32t62 -13q39 0 64.5 21.5t40.5 53t21 67t6 64.5
q0 40 -14.5 75t-37.5 65.5t-51.5 58t-56.5 54.5q-21 20 -37.5 35.5t-33 34.5t-34.5 45t-42 67q-4 -103 -18.5 -199.5t-53.5 -175.5q-10 -21 -21 -43t-24 -45q-5 -10 -12.5 -19.5t-21.5 -9.5q-19 0 -36.5 14.5t-17.5 29.5q0 11 3.5 18.5t6.5 12.5q12 23 22.5 45t18.5 44
q16 41 26 92.5t15.5 108.5t8 116.5t2.5 118.5q0 20 -2 39.5t-2 39.5t7 31.5t19 17.5t27 7.5t31 1.5q18 0 33 -1.5t26 -9t17 -22.5t6 -41q0 -29 21.5 -67.5t56.5 -83t79.5 -91.5t91.5 -93q28 -27 57 -58t52.5 -65t38.5 -71.5t15 -78.5q0 -9 -2.5 -26.5t-4.5 -24.5
q34 -9 55 -8t34 9.5t21 21.5t16 28l11 20q4 8 16 8q10 0 21 -4.5t20.5 -11.5t16 -15t6.5 -15q0 -2 -1 -6t-12 -21z" />
    <glyph glyph-name="t" unicode="t" horiz-adv-x="457" 
d="M527 189q-27 -45 -52.5 -80t-57 -59t-72.5 -37t-99 -13q-62 0 -108 20t-77 57.5t-46 91t-15 119.5v1213q0 30 7 45.5t18.5 22t26.5 7t31 0.5q18 0 33.5 -1t26.5 -8t17 -22.5t6 -43.5v-443h160q19 0 29.5 -2.5t15.5 -8t6.5 -15t1.5 -23.5q0 -13 -1 -22.5t-6 -15.5
t-15.5 -8.5t-30.5 -2.5h-159l-1 -582q0 -51 2 -105t12.5 -98t32.5 -72.5t61 -28.5q27 0 52.5 15.5t49 40.5t44 55t37.5 59q5 9 9.5 17.5t9.5 16.5l11 20q4 8 16 8q10 0 21 -4.5t20.5 -11.5t16 -15t6.5 -15q0 -2 -1 -6t-12 -21q-7 -11 -13.5 -22t-13.5 -22z" />
    <glyph glyph-name="u" unicode="u" horiz-adv-x="911" 
d="M981 189q-27 -45 -52.5 -80.5t-54 -59.5t-64 -36.5t-82.5 -12.5q-43 0 -72 12t-48 30t-30 37.5t-18 34.5q-50 -59 -102.5 -86.5t-117.5 -27.5q-75 0 -137.5 40t-107.5 105.5t-70 150t-25 173.5v417q0 28 6 43t17 22t26 8t34 1q18 0 33 -1t26.5 -8t17.5 -22t6 -43v-417
q0 -67 11.5 -137t34 -127.5t55 -94t73.5 -36.5q29 0 53.5 18.5t43.5 49t33.5 71.5t24 86t14.5 91.5t5 89.5v406q0 27 5.5 42t16 22t26 8.5t34.5 1.5q18 0 33 -1t26.5 -8t17.5 -22t6 -43v-614q0 -29 4 -63.5t13 -64.5t23.5 -50t36.5 -20q16 0 36 15.5t41 40.5t41 55t37 59
q5 9 9.5 17.5t9.5 16.5l11 20q4 8 16 8q10 0 21 -4.5t20.5 -11.5t16 -15t6.5 -15q0 -2 -1 -6t-12 -21q-7 -11 -13.5 -22t-13.5 -22z" />
    <glyph glyph-name="v" unicode="v" horiz-adv-x="670" 
d="M472 169q-21 -36 -45.5 -63t-54.5 -50q-36 -27 -69 -41q-35 -15 -65 -15q-57 0 -98 26q-40 27 -69 71q-27 43 -42 101q-7 29 -12 58.5t-7 60.5l-38 569q-2 27 4 41t17 22q10 6 28 8q8 1 16.5 1.5t17.5 0.5t17 -0.5t15 -1.5q16 -2 25 -8q11 -8 17 -22q7 -15 9 -41l28 -554
q3 -44 9 -91q6 -44 15 -83q9 -37 21 -61q12 -23 27 -23q21 0 47 33q13 17 25.5 37t23.5 44q23 50 42 100q10 26 18 49t14 43q15 49 24 105.5t13 121.5q4 66 -1.5 135t-22.5 144q-6 24 -1 40q6 14 18 22q7 4 14.5 6.5t15.5 3.5q9 1 18 1.5t18 0.5t17 -0.5t15 -1.5
q13 -2 24 -9q11 -8 17 -22q7 -14 10 -41q4 -37 7 -70.5t6 -63.5q6 -60 6 -118q0 -57 -9 -118q-8 -58 -21 -106t-31 -96q-11 -28 -23 -49.5t-23 -46.5q6 -2 18.5 -7t29 -9t35.5 -6t38 3q20 5 31.5 19.5t18.5 25.5q5 9 9.5 17.5t9.5 16.5l11 20q4 8 16 8q10 0 21 -4.5
t20.5 -11.5t16 -15t6.5 -15q0 -2 -1 -6t-12 -21q-7 -11 -13.5 -22t-13.5 -22q-6 -9 -14.5 -19.5t-20.5 -19.5t-27.5 -15t-34.5 -6q-46 0 -92.5 12.5t-78.5 27.5z" />
    <glyph glyph-name="w" unicode="w" horiz-adv-x="1154" 
d="M1000 153q-23 -76 -70 -114.5t-124 -38.5q-45 0 -89 27.5t-81.5 70t-65.5 93t-41 97.5q-13 -47 -43 -98t-69.5 -93t-85.5 -69.5t-91 -27.5q-58 0 -99.5 27.5t-69.5 72t-42.5 101.5t-18.5 116l-36 569v11q0 21 6 33.5t17.5 19t27 8.5t34.5 2q18 0 32 -2t23.5 -9.5
t15.5 -22.5t7 -40l27 -554q1 -39 7 -84t15.5 -84t23 -64.5t30.5 -25.5q14 0 31 17.5t34 46t33.5 63t30 68.5t24 63.5t15.5 47.5q13 48 20.5 106t11.5 122.5t5 134.5t1 143q0 25 6 40t17 22.5t26 9.5t34 2q18 0 33.5 -2t26.5 -9.5t17 -22.5t6 -40q0 -37 -0.5 -73t-0.5 -71
q0 -103 5 -195.5t28 -166.5q8 -26 19.5 -58.5t25.5 -66.5t29.5 -66.5t31 -58t30 -41t26.5 -15.5q21 0 34.5 30t22 71.5t13 85t6.5 71.5l32 554q1 25 7 40t16.5 22.5t25 9.5t34.5 2q17 0 32 -1.5t26.5 -8t18 -19t6.5 -34.5v-11q-11 -143 -19.5 -284t-21.5 -285q-1 -12 -4 -27
l-6 -30t-6.5 -29t-5.5 -24q18 -5 41 -8.5t46 1.5q20 5 31.5 19.5t18.5 25.5q5 9 9.5 17.5t9.5 16.5l11 20q4 8 16 8q10 0 21 -4.5t20.5 -11.5t16 -15t6.5 -15q0 -2 -1 -6t-12 -21q-7 -11 -13.5 -22t-13.5 -22q-6 -9 -14.5 -19.5t-20.5 -19.5t-27.5 -15t-34.5 -6
q-32 0 -65 6.5t-62 16.5z" />
    <glyph glyph-name="x" unicode="x" horiz-adv-x="955" 
d="M403 480q0 28 -4.5 69t-12.5 86t-20 90t-27.5 80.5t-34 58t-39.5 22.5q-23 0 -35 -17t-17 -45.5t-5.5 -66.5t1.5 -79q1 -16 1.5 -25.5t1.5 -22.5q5 -85 -14 -159t-45 -131q-10 -21 -21 -43t-24 -45q-5 -10 -12.5 -19.5t-21.5 -9.5q-19 0 -36.5 14.5t-17.5 29.5
q0 11 3.5 18.5t6.5 12.5q12 23 22.5 45t18.5 44q9 21 17.5 52t14.5 65.5t8 69.5t-1 64t-5.5 44t-4 25.5t-2 21.5t-0.5 33q0 14 1 28.5t3 30.5q5 37 22.5 63t40 43t46.5 25t42 8q75 0 131.5 -53t101.5 -161q47 109 104 161.5t114 52.5q4 0 20.5 -1t39 -7.5t47.5 -20.5t46 -40
q7 -9 9 -17.5t4 -15.5q0 -12 -18 -12q-17 0 -30 6t-25.5 13.5t-26.5 14t-32 6.5q-35 0 -65.5 -39.5t-53.5 -99.5t-36.5 -131.5t-13.5 -135.5q0 -40 2 -86t9 -91t20 -86.5t35.5 -73t55.5 -50.5t79 -19q28 0 54 15.5t49.5 40.5t44 55t37.5 59q5 9 9.5 17.5t9.5 16.5l11 20
q4 8 16 8q10 0 21 -4.5t20.5 -11.5t16 -15t6.5 -15q0 -2 -1 -6t-12 -21q-7 -11 -13.5 -22t-13.5 -22q-57 -91 -124 -140t-159 -49q-114 0 -174.5 47.5t-81.5 149.5q-23 -54 -46 -91.5t-47 -60.5t-50 -33.5t-54 -10.5v-1q-4 0 -20.5 1t-39 7.5t-47.5 21t-46 40.5
q-7 9 -9 17.5t-4 15.5q0 12 18 12q17 0 30 -6.5t25.5 -14t26.5 -13.5t32 -6q34 0 61.5 39t47 99t29.5 131.5t10 135.5z" />
    <glyph glyph-name="y" unicode="y" horiz-adv-x="882" 
d="M513 -109q-23 -19 -38.5 -38t-26 -43.5t-15 -58.5t-4.5 -82v-35.5t1 -57.5t4 -67t9 -64t16 -47.5t26 -18.5q12 0 18 10.5t8 30t2 47v60.5v93v271zM679 69q47 16 78.5 35.5t53.5 41.5t38 46.5t33 51.5q5 9 9.5 17.5t9.5 16.5l11 20q4 8 16 8q10 0 21 -4.5t20.5 -11.5
t16 -15t6.5 -15q0 -2 -1 -6t-12 -21q-7 -11 -13.5 -22t-13.5 -22q-21 -31 -44.5 -62t-55 -60t-73.5 -55t-100 -48v-344q0 -100 -17.5 -161.5t-45.5 -95.5t-62.5 -45.5t-68.5 -11.5q-54 0 -93.5 24.5t-66 69t-39 105t-12.5 132.5q0 33 9 80t35 98t72.5 100t122.5 86v66
q-10 -9 -26.5 -20.5t-38.5 -22t-49.5 -17.5t-58.5 -7q-69 0 -131 37t-108.5 101.5t-73.5 152.5t-27 189v406q0 28 6 43t17 22t26 8t34 1q18 0 33 -1t26.5 -8t17.5 -22t6 -43v-406q0 -45 5 -92.5t15 -92.5t24.5 -85t34 -70.5t43 -48t52.5 -17.5q39 0 71 36t55 94t35.5 130.5
t12.5 145.5v412q0 25 6 39t16.5 20.5t25.5 7.5t34 1t34.5 -1t26.5 -8t17 -22t6 -43z" />
    <glyph glyph-name="z" unicode="z" horiz-adv-x="837" 
d="M654 0q-31 0 -80 9.5t-101 20.5t-100 20.5t-78 9.5q-23 0 -33.5 -9.5t-17 -20.5t-14 -20.5t-24.5 -9.5q-12 0 -28 6t-30.5 14.5t-25.5 17.5t-13 15q-3 6 -3 15q1 11 4.5 23t11.5 28l346 650q-17 -5 -29 -9t-22.5 -6t-22 -3t-26.5 -1q-48 0 -82 12t-62 22q3 -21 4.5 -35
t2 -25.5t0.5 -22.5v-26q0 -101 -23.5 -185t-54.5 -150q-10 -21 -21 -43t-24 -45q-5 -10 -12.5 -19.5t-21.5 -9.5q-19 0 -36.5 14.5t-17.5 29.5q0 11 3.5 18.5t6.5 12.5q12 23 22.5 45t18.5 44q16 42 27.5 93t11.5 107q0 20 -1.5 45.5t-7.5 59t-18 76.5t-33 100
q-5 13 -8.5 25t-3.5 19q0 6 5.5 14t19.5 15.5t37.5 13t58.5 5.5q23 0 29.5 -13t13.5 -43q3 -13 17.5 -27t35.5 -25t45.5 -18.5t47.5 -7.5q28 0 48.5 1t38.5 4.5t37 11.5t46 23q26 50 41.5 72t35.5 22q3 0 19.5 -5t34.5 -14t32.5 -22t14.5 -30q0 -8 -2.5 -18.5t-10.5 -24.5
l-379 -714q22 6 47 6q36 0 80.5 -8.5t89.5 -20t87 -22t74 -13.5q16 0 36 15.5t41 40.5t41 55t37 59q5 9 9.5 17.5t9.5 16.5l11 20q4 8 16 8q10 0 21 -4.5t20.5 -11.5t16 -15t6.5 -15q0 -2 -1 -6t-12 -21q-7 -11 -13.5 -22t-13.5 -22q-29 -45 -54.5 -80.5t-54.5 -59.5
t-63.5 -36.5t-80.5 -12.5z" />
    <glyph glyph-name="bar" unicode="|" horiz-adv-x="474" 
d="M331 -748q0 -28 -6 -43q-6 -14 -18 -22q-9 -6 -26 -8q-8 -1 -16 -1h-17h-17t-16 1q-17 2 -26 8q-11 8 -17 23t-6 44v2247q0 28 6 43q5 15 17 23q9 6 26 8q8 1 16 1h17h17t16 -1q17 -2 26 -8q12 -8 18 -23t6 -43v-2249z" />
    <glyph glyph-name="asciitilde" unicode="~" horiz-adv-x="1092" 
d="M482 1140q-9 5 -17 8.5t-16 5.5t-14.5 4t-13.5 3q-12 3 -24 3h-24q-19 0 -37 -5q-17 -5 -30 -12q-7 -4 -13 -7.5t-13 -7.5t-14 -7.5t-15 -6.5q-15 -6 -26 5q-10 11 -11 30q-1 10 1 21t6 23q8 23 29 47q35 38 73 47q39 10 85 10q22 0 46 -10q13 -5 27 -11.5t31 -14.5
q19 -10 34 -14q8 -2 14.5 -4t12.5 -4q7 -1 13 -1.5t12 -0.5h24q19 0 37 5q15 4 29 12q7 4 13.5 7t13.5 7t14 7.5t15 6.5q16 6 25 -5q9 -9 11 -30q2 -20 -7 -44q-4 -13 -11 -24.5t-17 -22.5q-17 -20 -36 -30q-19 -11 -38 -17q-21 -7 -41 -8q-11 -1 -21.5 -1h-21.5
q-22 0 -47 9q-13 5 -27.5 12t-30.5 15z" />
    <glyph glyph-name="brokenbar" unicode="&#xa6;" horiz-adv-x="474" 
d="M331 649q0 -28 -6 -43q-6 -14 -18 -22q-9 -6 -26 -8q-8 -1 -16 -1h-17h-17t-16 1q-17 2 -26 8q-11 8 -17 22q-6 16 -6 44v851q0 28 6 43q5 15 17 23q9 6 26 8q8 1 16 1h17h17t16 -1q17 -2 26 -8q12 -8 18 -23t6 -43v-852zM331 -745q0 -28 -6 -44q-6 -14 -18 -22
q-9 -6 -26 -8q-8 -1 -16 -1h-17h-17t-16 1q-17 2 -26 8q-11 8 -17 23t-6 44v851q0 28 6 43q6 14 17 22q9 6 26 8q8 1 16 1h17h17t16 -1q17 -2 26 -8q12 -8 18 -22q6 -15 6 -43v-852z" />
    <glyph glyph-name="section" unicode="&#xa7;" horiz-adv-x="840" 
d="M191 73q-20 19 -25 38q-3 19 1 23q6 7 15 7q9 1 18 -3q12 -5 18 -11q9 -6 15 -12q24 -21 62 -32q37 -9 94 -9q51 0 88 20q37 19 60 53q25 34 35 75q11 44 11 86q0 60 -16 101q-14 42 -42 71q-26 29 -61 44q-34 16 -74 21q-72 9 -122 38q-48 29 -79 66q-31 39 -44 75
q-13 38 -13 66q0 34 11 69q11 33 33 62q22 28 51 51q15 11 31.5 19.5t34.5 15.5q-74 40 -118 102q-43 61 -43 151q0 62 23 119q24 55 66 96q43 43 99 68q57 27 124 33q74 0 121 -19q50 -20 83 -52q21 -19 24 -38q5 -18 0 -23q-6 -8 -15 -8q-5 1 -9 2t-9 3t-9 5t-9 6t-8.5 6
t-6.5 5q-31 20 -65 29q-35 9 -91 9q-51 0 -89 -20q-37 -20 -60 -52q-24 -33 -34 -74q-11 -42 -11 -85q0 -61 14 -102q17 -43 42 -71q14 -14 29.5 -25t32.5 -19q38 -16 75 -20q67 -8 113 -35q49 -27 81 -63t48 -76q16 -39 16 -71q0 -36 -12 -70t-33 -62q-11 -14 -23.5 -26.5
t-27.5 -23.5t-31.5 -19.5t-34.5 -15.5q74 -41 118 -104q44 -62 44 -149q0 -64 -24 -119q-22 -54 -65 -97q-43 -41 -99 -68q-59 -26 -124 -32q-74 0 -122 19q-48 20 -82 52zM449 958q-10 2 -19.5 2.5t-18.5 2.5t-18 4.5t-17 4.5q-34 -6 -55 -25q-24 -20 -38 -45
q-14 -26 -21 -55q-6 -29 -6 -57q0 -10 1.5 -21t3.5 -25q2 -13 7 -26t12 -26q14 -26 40 -46q28 -20 70 -26q37 -4 73 -15q33 8 54 26q11 10 20.5 20.5t16.5 23.5q8 13 13 27t9 28q7 28 7 58q0 17 -5 45q-2 14 -7 27t-12 26q-14 27 -41 46q-26 20 -69 26z" />
    <glyph glyph-name="dieresis" unicode="&#xa8;" horiz-adv-x="537" 
d="M60 1170q0 37 26 63q27 27 64 27q38 0 64 -27q26 -26 26 -63q0 -36 -26 -64q-26 -26 -64 -26q-36 0 -64 26q-26 28 -26 64zM297 1170q0 37 26 63q27 27 64 27q38 0 64 -27q26 -26 26 -63q0 -36 -26 -64q-26 -26 -64 -26q-36 0 -64 26q-26 28 -26 64z" />
    <glyph glyph-name="acute" unicode="&#xb4;" horiz-adv-x="902" 
d="M239 1326q5 8 13 15l21 15q5 4 11 7.5t12 7.5t11 8l10 8q25 22 33 44q9 21 9 34q0 7 -2 15t-2 14q0 12 5 27q4 14 14 27q5 6 10.5 11t12.5 9q14 8 30 8t29 -7t22 -18q10 -11 15 -24q6 -14 6 -25q0 -32 -13 -59q-14 -28 -33 -50q-20 -23 -45 -42q-12 -10 -24 -17.5
t-24 -14.5q-11 -7 -22 -11.5t-21 -8.5q-18 -7 -30 -7q-4 0 -7.5 0.5t-8.5 1.5q-7 1 -16 5q-4 2 -7.5 4.5t-6.5 4.5q-5 5 -5 11q0 2 1 3t1 2t1 2z" />
    <glyph glyph-name="mu1" unicode="&#xb5;" horiz-adv-x="1320" 
d="M230 -559q-5 -12 -9 -21t-8 -16q-7 -13 -17 -17q-8 -4 -24 1q-8 2 -18 6.5t-24 9.5q-29 11 -41 18q-14 8 -18 16q-4 9 0 22q5 16 15 38q32 70 57 135.5t42 128.5q18 63 31 123t21 119q8 60 12.5 117.5t6.5 114.5q3 115 3 233v417q0 28 6 43q6 14 17 22q10 6 27 8
q8 1 16 1h17h17t16 -1q17 -2 26 -8q12 -8 18 -22q6 -15 6 -43v-417q0 -71 12 -141q7 -35 15.5 -66.5t19.5 -60.5q22 -54 55 -92q32 -35 72 -35q43 0 74 37q32 38 54 95q11 29 20 62t14 69q12 72 12 143v406q0 28 6 43q6 14 17 22q10 6 27 8q8 1 16 1h17h17t16 -1
q17 -2 26 -8q11 -8 17 -22q6 -15 6 -43v-614q0 -30 3 -64q2 -17 4.5 -33t5.5 -31q6 -28 14 -50q9 -20 20 -20q19 0 41 19q11 10 23 22t23 27q22 30 45 66q11 18 21.5 35.5t20.5 34.5l11 20q5 10 21 8q14 -1 30 -11q15 -8 24 -21q9 -12 3 -22l-11 -19q-18 -31 -34 -57.5
t-32 -49.5q-29 -42 -62 -72q-30 -27 -69 -41q-35 -13 -82 -13q-33 0 -55 12q-21 11 -39 29q-17 19 -27 37q-5 10 -9 19t-8 17q-49 -58 -105 -86q-55 -28 -116 -28q-16 0 -38 3q-19 3 -47 11q-24 9 -52 24q-28 17 -53 42q-3 -77 -15 -146q-5 -35 -13 -70.5t-19 -72.5
q-21 -74 -54 -159q-16 -42 -35.5 -89.5t-42.5 -101.5z" />
    <glyph glyph-name="paragraph" unicode="&#xb6;" horiz-adv-x="733" 
d="M660 74v-24.5t-1 -18.5q-2 -15 -7 -22q-4 -6 -17 -8q-6 -1 -14.5 -1h-19.5h-19.5t-14.5 1q-13 2 -18 8q-5 8 -6 22q-1 8 -1 18.5v24.5v1211h-122v-1211v-24.5t-1 -18.5q-2 -15 -7 -22q-4 -6 -17 -8q-6 -1 -14.5 -1h-19.5h-19.5t-14.5 1q-13 2 -18 8q-5 8 -6 22
q-1 8 -1 18.5v24.5v833q-302 18 -302 240q0 112 75 175.5t227 63.5h358v-1312z" />
    <glyph glyph-name="cedilla" unicode="&#xb8;" horiz-adv-x="672" 
d="M212 23h150v-81q0 -16 12 -23q14 -8 32 -12q10 -2 20 -4.5t21 -5.5q20 -5 41 -20q19 -13 31 -39q13 -25 13 -67q0 -41 -22 -75q-23 -35 -61 -60q-37 -24 -92 -40q-54 -14 -115 -14h-23.5t-28.5 1q-15 1 -29.5 3t-28.5 4q-29 7 -47 16q-20 11 -20 28q0 29 6 41q8 13 15 14
q9 3 17 0q8 -2 11 -3q5 -1 17 -10q6 -4 13 -8t15 -9q15 -8 37 -16q20 -7 46 -7q36 0 59 13q12 7 21.5 14.5t16.5 17.5q16 20 21 38q7 18 7 34v11t-1 14t-2.5 15.5t-5.5 14.5q-7 15 -22 25q-16 11 -42 11h-18t-16 1q-15 1 -26 8q-10 7 -16 21q-6 15 -6 41v108z" />
    <glyph glyph-name="Aacute" unicode="&#xc1;" horiz-adv-x="1102" 
d="M1172 189q-28 -46 -53.5 -81.5t-54 -59.5t-63.5 -36t-81 -12q-30 0 -52 9.5t-38.5 25t-27.5 34.5t-18 38q-21 -26 -53 -46t-71 -33.5t-82.5 -20.5t-87.5 -7q-242 0 -366 200.5t-124 586.5q0 163 40.5 306.5t119.5 251t195.5 169.5t267.5 62q107 0 171.5 -20.5t96.5 -70.5
q10 -14 10 -27q0 -10 -7.5 -15t-13.5 -6q-19 0 -38.5 12.5t-41.5 20.5q-39 16 -78.5 23.5t-98.5 7.5q-75 0 -138 -29t-114 -80t-89.5 -119.5t-64 -148t-38.5 -165.5t-13 -172q0 -79 7.5 -162.5t23 -163t41 -149.5t61.5 -123t83.5 -84t107.5 -31q62 0 108 24.5t76 60.5
t45 78.5t15 78.5v930q0 28 6 43t17 22t26 8t34 1q18 0 33 -1t26.5 -8t17.5 -22t6 -43v-974q0 -30 3.5 -64.5t9.5 -64.5t15 -49.5t20 -19.5q16 0 36 15.5t40.5 40.5t40.5 55t37 59q5 9 9.5 17.5t9.5 16.5l11 20q4 8 16 8q10 0 21 -4.5t20.5 -11.5t16 -15t6.5 -15q0 -2 -1 -6
t-12 -21q-7 -11 -13.5 -22t-13.5 -22zM503 1650q5 8 13 15l21 15q5 4 11 7.5t12 7.5t11 8l10 8q25 22 33 44q9 21 9 34q0 7 -2 15t-2 14q0 12 5 27q4 14 14 27q5 6 10.5 11t12.5 9q14 8 30 8t29 -7t22 -18q10 -11 15 -24q6 -14 6 -25q0 -32 -13 -59q-14 -28 -33 -50
q-20 -23 -45 -42q-12 -10 -24 -17.5t-24 -14.5q-11 -7 -22 -11.5t-21 -8.5q-18 -7 -30 -7q-4 0 -7.5 0.5t-8.5 1.5q-7 1 -16 5q-4 2 -7.5 4.5t-6.5 4.5q-5 5 -5 11q0 2 1 3t1 2t1 2z" />
    <glyph glyph-name="Acircumflex" unicode="&#xc2;" horiz-adv-x="1102" 
d="M1172 189q-28 -46 -53.5 -81.5t-54 -59.5t-63.5 -36t-81 -12q-30 0 -52 9.5t-38.5 25t-27.5 34.5t-18 38q-21 -26 -53 -46t-71 -33.5t-82.5 -20.5t-87.5 -7q-242 0 -366 200.5t-124 586.5q0 163 40.5 306.5t119.5 251t195.5 169.5t267.5 62q107 0 171.5 -20.5t96.5 -70.5
q10 -14 10 -27q0 -10 -7.5 -15t-13.5 -6q-19 0 -38.5 12.5t-41.5 20.5q-39 16 -78.5 23.5t-98.5 7.5q-75 0 -138 -29t-114 -80t-89.5 -119.5t-64 -148t-38.5 -165.5t-13 -172q0 -79 7.5 -162.5t23 -163t41 -149.5t61.5 -123t83.5 -84t107.5 -31q62 0 108 24.5t76 60.5
t45 78.5t15 78.5v930q0 28 6 43t17 22t26 8t34 1q18 0 33 -1t26.5 -8t17.5 -22t6 -43v-974q0 -30 3.5 -64.5t9.5 -64.5t15 -49.5t20 -19.5q16 0 36 15.5t40.5 40.5t40.5 55t37 59q5 9 9.5 17.5t9.5 16.5l11 20q4 8 16 8q10 0 21 -4.5t20.5 -11.5t16 -15t6.5 -15q0 -2 -1 -6
t-12 -21q-7 -11 -13.5 -22t-13.5 -22zM628 1899q18 0 47.5 -14.5t59.5 -35t56 -42t37 -36.5q13 -16 13 -32q0 -18 -17.5 -22t-39.5 -4q-33 0 -52.5 5.5t-32 14t-20 18.5t-16.5 19q-13 14 -24 24.5t-11 12.5q0 -2 -11.5 -14.5t-27.5 -27.5t-34 -28.5t-30 -17.5q-18 -6 -53 -6
q-23 0 -40.5 4t-17.5 22q0 19 14 38t35 36t45.5 31.5t45 25t33.5 16.5t11 5q21 8 30 8z" />
    <glyph glyph-name="Adieresis" unicode="&#xc4;" horiz-adv-x="1102" 
d="M415 1824q0 37 26 63q27 27 64 27q38 0 64 -27q26 -26 26 -63q0 -36 -26 -64q-26 -26 -64 -26q-36 0 -64 26q-26 28 -26 64zM650 1824q0 37 26 63q27 27 64 27q38 0 64 -27q26 -26 26 -63q0 -36 -26 -64q-26 -26 -64 -26q-36 0 -64 26q-26 28 -26 64zM1172 189
q-28 -46 -53.5 -81.5t-54 -59.5t-63.5 -36t-81 -12q-30 0 -52 9.5t-38.5 25t-27.5 34.5t-18 38q-21 -26 -53 -46t-71 -33.5t-82.5 -20.5t-87.5 -7q-242 0 -366 200.5t-124 586.5q0 163 40.5 306.5t119.5 251t195.5 169.5t267.5 62q107 0 171.5 -20.5t96.5 -70.5
q10 -14 10 -27q0 -10 -7.5 -15t-13.5 -6q-19 0 -38.5 12.5t-41.5 20.5q-39 16 -78.5 23.5t-98.5 7.5q-75 0 -138 -29t-114 -80t-89.5 -119.5t-64 -148t-38.5 -165.5t-13 -172q0 -79 7.5 -162.5t23 -163t41 -149.5t61.5 -123t83.5 -84t107.5 -31q62 0 108 24.5t76 60.5
t45 78.5t15 78.5v930q0 28 6 43t17 22t26 8t34 1q18 0 33 -1t26.5 -8t17.5 -22t6 -43v-974q0 -30 3.5 -64.5t9.5 -64.5t15 -49.5t20 -19.5q16 0 36 15.5t40.5 40.5t40.5 55t37 59q5 9 9.5 17.5t9.5 16.5l11 20q4 8 16 8q10 0 21 -4.5t20.5 -11.5t16 -15t6.5 -15q0 -2 -1 -6
t-12 -21q-7 -11 -13.5 -22t-13.5 -22z" />
    <glyph glyph-name="Ccedilla" unicode="&#xc7;" horiz-adv-x="857" 
d="M508 6q-112 16 -205 75t-161 158t-105 237q-37 136 -37 311q0 45 2 89.5t6 90.5q9 93 30 180q23 90 58 166q36 78 91 136t133 93q75 34 179 34q79 0 131 -11q48 -10 89 -34q19 -11 30 -22q12 -12 18 -24q7 -10 9 -20t-1 -14q-7 -12 -19 -14q-10 0 -25 5q-7 3 -13.5 6.5
t-14.5 7.5q-15 10 -26 14q-40 16 -78 23q-20 4 -45 6t-55 2q-73 0 -126 -38t-90 -99q-38 -62 -60 -138q-22 -75 -36 -157q-6 -40 -10.5 -78t-6.5 -75t-3 -69t-1 -60q0 -45 1.5 -89t5.5 -89q8 -90 25 -167q20 -82 49 -147q31 -66 78 -116q24 -25 52.5 -44t60.5 -33
q65 -28 154 -28q69 0 114 19q46 19 77 49q33 31 53 66q11 18 21 35.5t20 34.5l11 20q5 10 21 8q14 -1 30 -11q15 -8 24 -21q9 -12 3 -22l-11 -19q-15 -26 -31 -48.5t-34 -42.5q-17 -20 -35.5 -36.5t-37.5 -30.5q-36 -28 -79 -45q-41 -17 -80 -24v-64q0 -16 12 -23
q14 -8 32 -12q10 -2 19.5 -4.5t20.5 -5.5q20 -5 41 -20q19 -13 31 -39q13 -25 13 -67q0 -41 -22 -75q-23 -35 -61 -60q-36 -24 -91 -40q-54 -14 -115 -14h-23.5t-28.5 1q-15 1 -29.5 3t-28.5 4q-30 6 -48 16q-20 11 -20 28q0 29 6 41q8 13 15 14q9 3 17 0q8 -2 11 -3
q5 -1 17 -10q6 -4 13 -8t15 -9t17.5 -8.5t19.5 -7.5q20 -7 47 -7q35 0 58 13q12 7 21.5 14.5t16.5 17.5q16 20 21 38q7 18 7 34v11t-1 14t-2.5 15.5t-5.5 14.5q-7 15 -22 25q-16 11 -42 11h-18t-16 1q-15 1 -26 8q-10 7 -16 21q-5 17 -5 41v91z" />
    <glyph glyph-name="Eacute" unicode="&#xc9;" horiz-adv-x="917" 
d="M1061 189q-70 -99 -163.5 -144t-208.5 -45q-146 0 -248 37.5t-166 102t-93 152t-29 188.5q0 65 19.5 130.5t57.5 123.5t95 104.5t132 74.5q-57 28 -98 63.5t-66.5 75.5t-37.5 82.5t-12 84.5q0 58 21 121t65.5 115.5t113 86.5t163.5 34q107 0 171.5 -20.5t96.5 -70.5
q10 -14 10 -27q0 -10 -7.5 -15t-13.5 -6q-18 0 -38.5 12.5t-41.5 20.5q-18 7 -31.5 13t-29 10t-37 6t-55.5 2q-50 0 -90.5 -24t-69.5 -62.5t-45 -87t-16 -97.5q0 -47 14 -95t41.5 -87t68 -63.5t94.5 -24.5q27 0 41.5 -3.5t21 -10t7.5 -15.5t1 -20t-1 -20t-7.5 -15.5t-21 -10
t-41.5 -3.5q-60 0 -116 -32.5t-98.5 -87t-68 -126t-25.5 -148.5q0 -68 16.5 -138t58 -127t113 -93t182.5 -36q63 0 111 15.5t84 39.5t62 54.5t45 60.5q5 9 9.5 17.5t9.5 16.5l11 20q4 8 16 8q10 0 21 -4.5t20.5 -11.5t16 -15t6.5 -15q0 -2 -1 -6t-12 -21q-7 -11 -13.5 -22
t-13.5 -22zM443 1650q5 8 13 15l21 15q5 4 11 7.5t12 7.5t11 8l10 8q25 22 33 44q9 21 9 34q0 7 -2 15t-2 14q0 12 5 27q4 14 14 27q5 6 10.5 11t12.5 9q14 8 30 8t29 -7t22 -18q10 -11 15 -24q6 -14 6 -25q0 -32 -13 -59q-14 -28 -33 -50q-20 -23 -45 -42
q-12 -10 -24 -17.5t-24 -14.5q-11 -7 -22 -11.5t-21 -8.5q-18 -7 -30 -7q-4 0 -7.5 0.5t-8.5 1.5q-7 1 -16 5q-4 2 -7.5 4.5t-6.5 4.5q-5 5 -5 11q0 2 1 3t1 2t1 2z" />
    <glyph glyph-name="Edieresis" unicode="&#xcb;" horiz-adv-x="917" 
d="M350 1824q0 37 26 63q27 27 64 27q38 0 64 -27q26 -26 26 -63q0 -36 -26 -64q-26 -26 -64 -26q-36 0 -64 26q-26 28 -26 64zM585 1824q0 37 26 63q27 27 64 27q38 0 64 -27q26 -26 26 -63q0 -36 -26 -64q-26 -26 -64 -26q-36 0 -64 26q-26 28 -26 64zM1061 189
q-70 -99 -163.5 -144t-208.5 -45q-146 0 -248 37.5t-166 102t-93 152t-29 188.5q0 65 19.5 130.5t57.5 123.5t95 104.5t132 74.5q-57 28 -98 63.5t-66.5 75.5t-37.5 82.5t-12 84.5q0 58 21 121t65.5 115.5t113 86.5t163.5 34q107 0 171.5 -20.5t96.5 -70.5q10 -14 10 -27
q0 -10 -7.5 -15t-13.5 -6q-18 0 -38.5 12.5t-41.5 20.5q-18 7 -31.5 13t-29 10t-37 6t-55.5 2q-50 0 -90.5 -24t-69.5 -62.5t-45 -87t-16 -97.5q0 -47 14 -95t41.5 -87t68 -63.5t94.5 -24.5q27 0 41.5 -3.5t21 -10t7.5 -15.5t1 -20t-1 -20t-7.5 -15.5t-21 -10t-41.5 -3.5
q-60 0 -116 -32.5t-98.5 -87t-68 -126t-25.5 -148.5q0 -68 16.5 -138t58 -127t113 -93t182.5 -36q63 0 111 15.5t84 39.5t62 54.5t45 60.5q5 9 9.5 17.5t9.5 16.5l11 20q4 8 16 8q10 0 21 -4.5t20.5 -11.5t16 -15t6.5 -15q0 -2 -1 -6t-12 -21q-7 -11 -13.5 -22t-13.5 -22z
" />
    <glyph glyph-name="Iacute" unicode="&#xcd;" horiz-adv-x="401" 
d="M283 107q0 -12 0.5 -18t5 -9t15.5 -4.5t31 -3.5q24 -2 45 -14.5t21 -29.5q0 -9 -3 -14.5t-22 -8.5t-60 -4t-116 -1t-115.5 0.5t-59.5 3.5t-22 8.5t-3 15.5q0 18 14.5 27t31.5 13.5t31 5t13 0.5q22 0 25 9.5t3 23.5v1362q0 16 -1.5 21t-10 6.5t-25 3.5t-46.5 11
q-14 4 -24.5 13t-10.5 24q0 10 3 16t22 8.5t59.5 3t115.5 0.5t116 -0.5t60 -3t22 -8.5t3 -16q0 -14 -11 -23t-25.5 -14.5t-29.5 -7.5t-24 -2q-20 0 -24 -7.5t-4 -24.5v-1362zM71 1650q5 8 13 15l21 15q5 4 11 7.5t12 7.5t11 8l10 8q25 22 33 44q9 21 9 34q0 7 -2 15t-2 14
q0 12 5 27q4 14 14 27q5 6 10.5 11t12.5 9q14 8 30 8t29 -7t22 -18q10 -11 15 -24q6 -14 6 -25q0 -32 -13 -59q-14 -28 -33 -50q-20 -23 -45 -42q-12 -10 -24 -17.5t-24 -14.5q-11 -7 -22 -11.5t-21 -8.5q-18 -7 -30 -7q-4 0 -7.5 0.5t-8.5 1.5q-7 1 -16 5q-4 2 -7.5 4.5
t-6.5 4.5q-5 5 -5 11q0 2 1 3t1 2t1 2z" />
    <glyph glyph-name="Icircumflex" unicode="&#xce;" horiz-adv-x="401" 
d="M283 107q0 -12 0.5 -18t5 -9t15.5 -4.5t31 -3.5q24 -2 45 -14.5t21 -29.5q0 -9 -3 -14.5t-22 -8.5t-60 -4t-116 -1t-115.5 0.5t-59.5 3.5t-22 8.5t-3 15.5q0 18 14.5 27t31.5 13.5t31 5t13 0.5q22 0 25 9.5t3 23.5v1362q0 16 -1.5 21t-10 6.5t-25 3.5t-46.5 11
q-14 4 -24.5 13t-10.5 24q0 10 3 16t22 8.5t59.5 3t115.5 0.5t116 -0.5t60 -3t22 -8.5t3 -16q0 -14 -11 -23t-25.5 -14.5t-29.5 -7.5t-24 -2q-20 0 -24 -7.5t-4 -24.5v-1362zM202 1899q18 0 47.5 -14.5t59.5 -35t56 -42t37 -36.5q13 -16 13 -32q0 -18 -17.5 -22t-39.5 -4
q-33 0 -52.5 5.5t-32 14t-20 18.5t-16.5 19q-13 14 -24 24.5t-11 12.5q0 -2 -11.5 -14.5t-27.5 -27.5t-34 -28.5t-30 -17.5q-18 -6 -53 -6q-23 0 -40.5 4t-17.5 22q0 19 14 38t35 36t45.5 31.5t45 25t33.5 16.5t11 5q21 8 30 8z" />
    <glyph glyph-name="Oacute" unicode="&#xd3;" horiz-adv-x="1068" 
d="M1138 189q-14 -24 -42.5 -34t-62.5 -10q-14 0 -35 3.5t-45 10t-49 16.5t-47 24q-68 -93 -155 -146t-186 -53q-72 0 -138.5 29t-124 81t-104 125t-80 160.5t-51.5 187.5t-18 207q0 110 19 211t53 188.5t81.5 158.5t105 122t122.5 78.5t135 27.5q103 0 172.5 -20t95.5 -71
q10 -14 10 -27q0 -10 -7.5 -15t-13.5 -6q-19 0 -39 12.5t-40 20.5q-19 7 -36 13t-36 10t-41.5 6t-52.5 2q-59 0 -108.5 -27t-90 -75t-71 -114.5t-51 -146t-31 -169t-10.5 -182.5q0 -85 12 -171t34 -165t53 -148t70 -120t84.5 -80t96.5 -29q55 0 102.5 32.5t86.5 87t69 126.5
t50.5 151t31 160.5t10.5 155.5q0 118 -15 205.5t-40.5 149.5t-59 102t-70 64.5t-74 35.5t-71.5 16q-17 2 -34.5 7.5t-17.5 15.5q0 6 12 18t48 12q37 0 87.5 -11.5t103 -35.5t100.5 -60t81 -84q25 -38 46.5 -85t37 -102.5t24 -117t8.5 -127.5q0 -161 -40 -302.5t-109 -250.5
q11 -7 27.5 -13t33.5 -10.5t32 -7.5t22 -3q29 -1 44 11.5t26 29.5q5 9 9.5 17.5t9.5 16.5l11 20q4 8 16 8q10 0 21 -4.5t20.5 -11.5t16 -15t6.5 -15q0 -2 -1 -6t-12 -21q-7 -11 -13.5 -22t-13.5 -22zM389 1650q5 8 13 15l21 15q5 4 11 7.5t12 7.5t11 8l10 8q25 22 33 44
q9 21 9 34q0 7 -2 15t-2 14q0 12 5 27q4 14 14 27q5 6 10.5 11t12.5 9q14 8 30 8t29 -7t22 -18q10 -11 15 -24q6 -14 6 -25q0 -32 -13 -59q-14 -28 -33 -50q-20 -23 -45 -42q-12 -10 -24 -17.5t-24 -14.5q-11 -7 -22 -11.5t-21 -8.5q-18 -7 -30 -7q-4 0 -7.5 0.5t-8.5 1.5
q-7 1 -16 5q-4 2 -7.5 4.5t-6.5 4.5q-5 5 -5 11q0 2 1 3t1 2t1 2z" />
    <glyph glyph-name="Ocircumflex" unicode="&#xd4;" horiz-adv-x="1068" 
d="M1138 189q-14 -24 -42.5 -34t-62.5 -10q-14 0 -35 3.5t-45 10t-49 16.5t-47 24q-68 -93 -155 -146t-186 -53q-72 0 -138.5 29t-124 81t-104 125t-80 160.5t-51.5 187.5t-18 207q0 110 19 211t53 188.5t81.5 158.5t105 122t122.5 78.5t135 27.5q103 0 172.5 -20t95.5 -71
q10 -14 10 -27q0 -10 -7.5 -15t-13.5 -6q-19 0 -39 12.5t-40 20.5q-19 7 -36 13t-36 10t-41.5 6t-52.5 2q-59 0 -108.5 -27t-90 -75t-71 -114.5t-51 -146t-31 -169t-10.5 -182.5q0 -85 12 -171t34 -165t53 -148t70 -120t84.5 -80t96.5 -29q55 0 102.5 32.5t86.5 87t69 126.5
t50.5 151t31 160.5t10.5 155.5q0 118 -15 205.5t-40.5 149.5t-59 102t-70 64.5t-74 35.5t-71.5 16q-17 2 -34.5 7.5t-17.5 15.5q0 6 12 18t48 12q37 0 87.5 -11.5t103 -35.5t100.5 -60t81 -84q25 -38 46.5 -85t37 -102.5t24 -117t8.5 -127.5q0 -161 -40 -302.5t-109 -250.5
q11 -7 27.5 -13t33.5 -10.5t32 -7.5t22 -3q29 -1 44 11.5t26 29.5q5 9 9.5 17.5t9.5 16.5l11 20q4 8 16 8q10 0 21 -4.5t20.5 -11.5t16 -15t6.5 -15q0 -2 -1 -6t-12 -21q-7 -11 -13.5 -22t-13.5 -22zM520 1900q18 0 47.5 -14.5t59.5 -35t56 -42t37 -36.5q13 -16 13 -32
q0 -18 -17.5 -22t-39.5 -4q-33 0 -52.5 5.5t-32 14t-20 18.5t-16.5 19q-13 14 -24 24.5t-11 12.5q0 -2 -11.5 -14.5t-27.5 -27.5t-34 -28.5t-30 -17.5q-18 -6 -53 -6q-23 0 -40.5 4t-17.5 22q0 19 14 38t35 36t45.5 31.5t45 25t33.5 16.5t11 5q21 8 30 8z" />
    <glyph glyph-name="Odieresis" unicode="&#xd6;" horiz-adv-x="1068" 
d="M301 1825q0 37 26 63q27 27 64 27q38 0 64 -27q26 -26 26 -63q0 -36 -26 -64q-26 -26 -64 -26q-36 0 -64 26q-26 28 -26 64zM536 1825q0 37 26 63q27 27 64 27q38 0 64 -27q26 -26 26 -63q0 -36 -26 -64q-26 -26 -64 -26q-36 0 -64 26q-26 28 -26 64zM1138 189
q-14 -24 -42.5 -34t-62.5 -10q-14 0 -35 3.5t-45 10t-49 16.5t-47 24q-68 -93 -155 -146t-186 -53q-72 0 -138.5 29t-124 81t-104 125t-80 160.5t-51.5 187.5t-18 207q0 110 19 211t53 188.5t81.5 158.5t105 122t122.5 78.5t135 27.5q103 0 172.5 -20t95.5 -71
q10 -14 10 -27q0 -10 -7.5 -15t-13.5 -6q-19 0 -39 12.5t-40 20.5q-19 7 -36 13t-36 10t-41.5 6t-52.5 2q-59 0 -108.5 -27t-90 -75t-71 -114.5t-51 -146t-31 -169t-10.5 -182.5q0 -85 12 -171t34 -165t53 -148t70 -120t84.5 -80t96.5 -29q55 0 102.5 32.5t86.5 87t69 126.5
t50.5 151t31 160.5t10.5 155.5q0 118 -15 205.5t-40.5 149.5t-59 102t-70 64.5t-74 35.5t-71.5 16q-17 2 -34.5 7.5t-17.5 15.5q0 6 12 18t48 12q37 0 87.5 -11.5t103 -35.5t100.5 -60t81 -84q25 -38 46.5 -85t37 -102.5t24 -117t8.5 -127.5q0 -161 -40 -302.5t-109 -250.5
q11 -7 27.5 -13t33.5 -10.5t32 -7.5t22 -3q29 -1 44 11.5t26 29.5q5 9 9.5 17.5t9.5 16.5l11 20q4 8 16 8q10 0 21 -4.5t20.5 -11.5t16 -15t6.5 -15q0 -2 -1 -6t-12 -21q-7 -11 -13.5 -22t-13.5 -22z" />
    <glyph glyph-name="Uacute" unicode="&#xda;" horiz-adv-x="1100" 
d="M1170 189q-28 -46 -53 -81.5t-53.5 -59.5t-63 -36t-80.5 -12q-31 0 -53.5 8.5t-38.5 22t-26.5 30.5t-17.5 34q-21 -25 -43.5 -43t-55.5 -29.5t-79.5 -17t-115.5 -5.5q-242 0 -366 200.5t-124 586.5v714q0 30 7 45.5t18.5 22t26.5 7t31 0.5q18 0 33.5 -1t26.5 -8t17 -22.5
t6 -43.5v-714q0 -79 7.5 -162.5t23 -163t41 -149.5t61.5 -123t83.5 -84t107.5 -31q62 0 108 24.5t76 60.5t45 78.5t15 78.5v1185q0 30 7 45.5t18.5 22t26.5 7t31 0.5q18 0 33.5 -1t26.5 -8t17 -22.5t6 -43.5v-1229q0 -30 3.5 -64.5t9.5 -64.5t15 -49.5t20 -19.5
q16 0 35.5 15.5t40 40.5t40 55t36.5 59q5 9 9.5 17.5t9.5 16.5l11 20q4 8 16 8q10 0 21 -4.5t20.5 -11.5t16 -15t6.5 -15q0 -2 -1 -6t-12 -21q-7 -11 -13.5 -22t-13.5 -22zM330 1650q5 8 13 15l21 15q5 4 11 7.5t12 7.5t11 8l10 8q25 22 33 44q9 21 9 34q0 7 -2 15t-2 14
q0 12 5 27q4 14 14 27q5 6 10.5 11t12.5 9q14 8 30 8t29 -7t22 -18q10 -11 15 -24q6 -14 6 -25q0 -32 -13 -59q-14 -28 -33 -50q-20 -23 -45 -42q-12 -10 -24 -17.5t-24 -14.5q-11 -7 -22 -11.5t-21 -8.5q-18 -7 -30 -7q-4 0 -7.5 0.5t-8.5 1.5q-7 1 -16 5q-4 2 -7.5 4.5
t-6.5 4.5q-5 5 -5 11q0 2 1 3t1 2t1 2z" />
    <glyph glyph-name="Udieresis" unicode="&#xdc;" horiz-adv-x="1100" 
d="M-8 1704q0 37 26 63q27 27 64 27q38 0 64 -27q26 -26 26 -63q0 -36 -26 -64q-26 -26 -64 -26q-36 0 -64 26q-26 28 -26 64zM728 1704q0 37 26 63q27 27 64 27q38 0 64 -27q26 -26 26 -63q0 -36 -26 -64q-26 -26 -64 -26q-36 0 -64 26q-26 28 -26 64zM1170 189
q-28 -46 -53 -81.5t-53.5 -59.5t-63 -36t-80.5 -12q-31 0 -53.5 8.5t-38.5 22t-26.5 30.5t-17.5 34q-21 -25 -43.5 -43t-55.5 -29.5t-79.5 -17t-115.5 -5.5q-242 0 -366 200.5t-124 586.5v714q0 30 7 45.5t18.5 22t26.5 7t31 0.5q18 0 33.5 -1t26.5 -8t17 -22.5t6 -43.5
v-714q0 -79 7.5 -162.5t23 -163t41 -149.5t61.5 -123t83.5 -84t107.5 -31q62 0 108 24.5t76 60.5t45 78.5t15 78.5v1185q0 30 7 45.5t18.5 22t26.5 7t31 0.5q18 0 33.5 -1t26.5 -8t17 -22.5t6 -43.5v-1229q0 -30 3.5 -64.5t9.5 -64.5t15 -49.5t20 -19.5q16 0 35.5 15.5
t40 40.5t40 55t36.5 59q5 9 9.5 17.5t9.5 16.5l11 20q4 8 16 8q10 0 21 -4.5t20.5 -11.5t16 -15t6.5 -15q0 -2 -1 -6t-12 -21q-7 -11 -13.5 -22t-13.5 -22z" />
    <glyph glyph-name="Yacute" unicode="&#xdd;" horiz-adv-x="1239" 
d="M907 -110q-37 -30 -57.5 -62t-30 -68t-11 -77t-1.5 -89q0 -29 2.5 -66.5t9 -70.5t17 -55.5t26.5 -22.5q14 0 23 17.5t14 41.5t6.5 49t1.5 41v362zM1309 189q-18 -28 -38 -53t-44 -48t-53.5 -44t-67.5 -41q-11 -6 -16 -9t-17 -9v-365q0 -61 -10.5 -118t-35.5 -100.5
t-65 -69.5t-99 -26q-54 0 -94 24.5t-66.5 68.5t-39 105t-11.5 133q0 45 14 93.5t44 95.5t78.5 90t118.5 76v157q-21 -29 -48.5 -56t-58 -47.5t-63 -33t-65.5 -12.5q-76 0 -138 40.5t-110.5 109.5t-83.5 161t-58.5 194t-34.5 208.5t-11 205.5q0 81 2.5 157.5t2.5 145.5
q0 57 -3.5 107.5t-15 88t-32.5 59t-55 21.5q-13 0 -27.5 -5t-45.5 -28q-10 -8 -21 -10.5t-20 -2.5t-15 8.5t-6 14.5q2 18 20 36.5t44.5 32.5t57.5 23t58 9q85 0 130.5 -37t66.5 -109t23.5 -177t1.5 -240q-1 -88 3.5 -192t16 -208.5t31.5 -201.5t50.5 -172t72 -120t96.5 -45
q47 0 83 33t62 87.5t43.5 123.5t28 141t14.5 141t4 122v779q0 30 7 45t19 22t27 7.5t31 0.5q18 0 33.5 -1t26 -8t16.5 -22.5t6 -43.5v-1440q5 3 11 7q5 3 11 6.5t11 7.5q26 18 59.5 58t73.5 104q5 9 9.5 17.5t9.5 16.5l11 20q4 8 16 8q10 0 21 -4.5t20.5 -11.5t16 -15
t6.5 -15q0 -2 -1 -6t-12 -21q-7 -11 -13.5 -22t-13.5 -22zM506 1650q5 8 13 15l21 15q5 4 11 7.5t12 7.5t11 8l10 8q25 22 33 44q9 21 9 34q0 7 -2 15t-2 14q0 12 5 27q4 14 14 27q5 6 10.5 11t12.5 9q14 8 30 8t29 -7t22 -18q10 -11 15 -24q6 -14 6 -25q0 -32 -13 -59
q-14 -28 -33 -50q-20 -23 -45 -42q-12 -10 -24 -17.5t-24 -14.5q-11 -7 -22 -11.5t-21 -8.5q-18 -7 -30 -7q-4 0 -7.5 0.5t-8.5 1.5q-7 1 -16 5q-4 2 -7.5 4.5t-6.5 4.5q-5 5 -5 11q0 2 1 3t1 2t1 2z" />
    <glyph glyph-name="aacute" unicode="&#xe1;" horiz-adv-x="911" 
d="M728 0q-31 0 -58.5 11.5t-49 29t-36.5 38t-22 37.5q-51 -57 -104.5 -86.5t-117.5 -29.5q-78 0 -141 42.5t-107 111t-68 154t-24 172.5q0 110 29 198.5t77 151t109 96.5t125 34q55 0 98 -20t76 -48q0 25 6 39t16.5 20.5t25.5 7.5t34 1t34.5 -1t26.5 -8t17 -22t6 -43v-614
q0 -29 3.5 -63.5t12.5 -64.5t23.5 -50t36.5 -20q16 0 36 15.5t41 40.5t41 55t37 59q5 9 9.5 17.5t9.5 16.5l11 20q4 8 16 8q10 0 21 -4.5t20.5 -11.5t16 -15t6.5 -15q0 -2 -1 -6t-12 -21q-7 -11 -13.5 -22t-13.5 -22q-29 -45 -54.5 -80.5t-54.5 -59.5t-63.5 -36.5
t-80.5 -12.5zM166 480q0 -82 13.5 -155.5t36.5 -129t55 -88.5t69 -33q36 0 68 32.5t55.5 88t37 129.5t13.5 156t-13.5 155.5t-37 129t-55.5 88.5t-68 33q-37 0 -68.5 -32.5t-55 -88t-37 -129.5t-13.5 -156zM239 1112q5 8 13 15l21 15q5 4 11 7.5t12 7.5t11 8l10 8
q25 22 33 44q9 21 9 34q0 7 -2 15t-2 14q0 12 5 27q4 14 14 27q5 6 10.5 11t12.5 9q14 8 30 8t29 -7t22 -18q10 -11 15 -24q6 -14 6 -25q0 -32 -13 -59q-14 -28 -33 -50q-20 -23 -45 -42q-12 -10 -24 -17.5t-24 -14.5q-11 -7 -22 -11.5t-21 -8.5q-18 -7 -30 -7
q-4 0 -7.5 0.5t-8.5 1.5q-7 1 -16 5q-4 2 -7.5 4.5t-6.5 4.5q-5 5 -5 11q0 2 1 3t1 2t1 2z" />
    <glyph glyph-name="acircumflex" unicode="&#xe2;" horiz-adv-x="911" 
d="M728 0q-31 0 -58.5 11.5t-49 29t-36.5 38t-22 37.5q-51 -57 -104.5 -86.5t-117.5 -29.5q-78 0 -141 42.5t-107 111t-68 154t-24 172.5q0 110 29 198.5t77 151t109 96.5t125 34q55 0 98 -20t76 -48q0 25 6 39t16.5 20.5t25.5 7.5t34 1t34.5 -1t26.5 -8t17 -22t6 -43v-614
q0 -29 3.5 -63.5t12.5 -64.5t23.5 -50t36.5 -20q16 0 36 15.5t41 40.5t41 55t37 59q5 9 9.5 17.5t9.5 16.5l11 20q4 8 16 8q10 0 21 -4.5t20.5 -11.5t16 -15t6.5 -15q0 -2 -1 -6t-12 -21q-7 -11 -13.5 -22t-13.5 -22q-29 -45 -54.5 -80.5t-54.5 -59.5t-63.5 -36.5
t-80.5 -12.5zM166 480q0 -82 13.5 -155.5t36.5 -129t55 -88.5t69 -33q36 0 68 32.5t55.5 88t37 129.5t13.5 156t-13.5 155.5t-37 129t-55.5 88.5t-68 33q-37 0 -68.5 -32.5t-55 -88t-37 -129.5t-13.5 -156zM394 1352q18 0 47.5 -14.5t59.5 -35t56 -42t37 -36.5
q13 -16 13 -32q0 -18 -17.5 -22t-39.5 -4q-33 0 -52.5 5.5t-32 14t-20 18.5t-16.5 19q-13 14 -24 24.5t-11 12.5q0 -2 -11.5 -14.5t-27.5 -27.5t-34 -28.5t-30 -17.5q-18 -6 -53 -6q-23 0 -40.5 4t-17.5 22q0 19 14 38t35 36t45.5 31.5t45 25t33.5 16.5t11 5q21 8 30 8z" />
    <glyph glyph-name="adieresis" unicode="&#xe4;" horiz-adv-x="911" 
d="M139 1170q0 37 26 63q27 27 64 27q38 0 64 -27q26 -26 26 -63q0 -36 -26 -64q-26 -26 -64 -26q-36 0 -64 26q-26 28 -26 64zM374 1170q0 37 26 63q27 27 64 27q38 0 64 -27q26 -26 26 -63q0 -36 -26 -64q-26 -26 -64 -26q-36 0 -64 26q-26 28 -26 64zM728 0
q-31 0 -58.5 11.5t-49 29t-36.5 38t-22 37.5q-51 -57 -104.5 -86.5t-117.5 -29.5q-78 0 -141 42.5t-107 111t-68 154t-24 172.5q0 110 29 198.5t77 151t109 96.5t125 34q55 0 98 -20t76 -48q0 25 6 39t16.5 20.5t25.5 7.5t34 1t34.5 -1t26.5 -8t17 -22t6 -43v-614
q0 -29 3.5 -63.5t12.5 -64.5t23.5 -50t36.5 -20q16 0 36 15.5t41 40.5t41 55t37 59q5 9 9.5 17.5t9.5 16.5l11 20q4 8 16 8q10 0 21 -4.5t20.5 -11.5t16 -15t6.5 -15q0 -2 -1 -6t-12 -21q-7 -11 -13.5 -22t-13.5 -22q-29 -45 -54.5 -80.5t-54.5 -59.5t-63.5 -36.5
t-80.5 -12.5zM166 480q0 -82 13.5 -155.5t36.5 -129t55 -88.5t69 -33q36 0 68 32.5t55.5 88t37 129.5t13.5 156t-13.5 155.5t-37 129t-55.5 88.5t-68 33q-37 0 -68.5 -32.5t-55 -88t-37 -129.5t-13.5 -156z" />
    <glyph glyph-name="ccedilla" unicode="&#xe7;" horiz-adv-x="742" 
d="M812 189q-20 -32 -50.5 -65.5t-75 -61t-104 -45t-137.5 -17.5q-94 0 -175 33.5t-141 94.5t-94.5 146t-34.5 187q0 57 8 116.5t25.5 115t45.5 104t69 85t95 57.5t124 21q56 0 106 -15.5t88 -40.5t60 -55.5t22 -61.5q0 -13 -13 -13q-20 0 -41.5 10.5t-41 24.5t-35 27.5
t-23.5 18.5q-26 16 -53 23.5t-69 7.5q-38 0 -67.5 -19.5t-52 -52.5t-38 -76.5t-25 -90.5t-14 -95t-4.5 -91q0 -66 20.5 -134.5t58.5 -125t92.5 -92t122.5 -35.5q39 0 76.5 7.5t73 27t69 52t63.5 83.5q5 9 9.5 17.5t9.5 16.5l11 20q4 8 16 8q10 0 21 -4.5t20.5 -11.5t16 -15
t6.5 -15q0 -2 -1 -6t-12 -21q-7 -11 -13.5 -22t-13.5 -22zM376 23h150v-81q0 -16 12 -23q14 -8 32 -12q10 -2 20 -4.5t21 -5.5q20 -5 41 -20q19 -13 31 -39q13 -25 13 -67q0 -41 -22 -75q-23 -35 -61 -60q-37 -24 -92 -40q-54 -14 -115 -14h-23.5t-28.5 1q-15 1 -29.5 3
t-28.5 4q-29 7 -47 16q-20 11 -20 28q0 29 6 41q8 13 15 14q9 3 17 0q8 -2 11 -3q5 -1 17 -10q6 -4 13 -8t15 -9q15 -8 37 -16q20 -7 46 -7q36 0 59 13q12 7 21.5 14.5t16.5 17.5q16 20 21 38q7 18 7 34v11t-1 14t-2.5 15.5t-5.5 14.5q-7 15 -22 25q-16 11 -42 11h-18t-16 1
q-15 1 -26 8q-10 7 -16 21q-6 15 -6 41v108z" />
    <glyph glyph-name="eacute" unicode="&#xe9;" horiz-adv-x="742" 
d="M322 886q-40 0 -69.5 -35.5t-49 -93t-29.5 -131.5t-10 -150q0 -23 3 -32q47 26 87.5 40.5t73.5 22.5t58 14t42.5 15.5t26.5 26t9 47.5q0 18 -3.5 45.5t-11 58.5t-19 61.5t-27.5 55t-36 40t-45 15.5zM445 0q-113 0 -196.5 40t-139 106.5t-82.5 153t-27 180.5q0 88 21 174
t62 154t101 110t138 42q60 0 111 -28.5t88.5 -73t60 -98.5t25.5 -105q1 -11 1 -21v-20q0 -34 -7.5 -66.5t-31.5 -59t-68.5 -45t-118.5 -24.5q-53 -2 -108.5 -13.5t-99.5 -38.5q7 -52 31.5 -104.5t62 -94.5t86.5 -68t106 -26q39 0 76.5 7.5t73 27t69 52t63.5 83.5
q5 9 9.5 17.5t9.5 16.5l11 20q4 8 16 8q10 0 21 -4.5t20.5 -11.5t16 -15t6.5 -15q0 -2 -1 -6t-12 -21q-7 -11 -13.5 -22t-13.5 -22q-20 -32 -50.5 -65.5t-75 -61t-104 -45t-137.5 -17.5zM217 1111q5 8 13 15l21 15q5 4 11 7.5t12 7.5t11 8l10 8q25 22 33 44q9 21 9 34
q0 7 -2 15t-2 14q0 12 5 27q4 14 14 27q5 6 10.5 11t12.5 9q14 8 30 8t29 -7t22 -18q10 -11 15 -24q6 -14 6 -25q0 -32 -13 -59q-14 -28 -33 -50q-20 -23 -45 -42q-12 -10 -24 -17.5t-24 -14.5q-11 -7 -22 -11.5t-21 -8.5q-18 -7 -30 -7q-4 0 -7.5 0.5t-8.5 1.5q-7 1 -16 5
q-4 2 -7.5 4.5t-6.5 4.5q-5 5 -5 11q0 2 1 3t1 2t1 2z" />
    <glyph glyph-name="edieresis" unicode="&#xeb;" horiz-adv-x="742" 
d="M103 1170q0 37 26 63q27 27 64 27q38 0 64 -27q26 -26 26 -63q0 -36 -26 -64q-26 -26 -64 -26q-36 0 -64 26q-26 28 -26 64zM338 1170q0 37 26 63q27 27 64 27q38 0 64 -27q26 -26 26 -63q0 -36 -26 -64q-26 -26 -64 -26q-36 0 -64 26q-26 28 -26 64zM322 886
q-40 0 -69.5 -35.5t-49 -93t-29.5 -131.5t-10 -150q0 -23 3 -32q47 26 87.5 40.5t73.5 22.5t58 14t42.5 15.5t26.5 26t9 47.5q0 18 -3.5 45.5t-11 58.5t-19 61.5t-27.5 55t-36 40t-45 15.5zM445 0q-113 0 -196.5 40t-139 106.5t-82.5 153t-27 180.5q0 88 21 174t62 154
t101 110t138 42q60 0 111 -28.5t88.5 -73t60 -98.5t25.5 -105q1 -11 1 -21v-20q0 -34 -7.5 -66.5t-31.5 -59t-68.5 -45t-118.5 -24.5q-53 -2 -108.5 -13.5t-99.5 -38.5q7 -52 31.5 -104.5t62 -94.5t86.5 -68t106 -26q39 0 76.5 7.5t73 27t69 52t63.5 83.5q5 9 9.5 17.5
t9.5 16.5l11 20q4 8 16 8q10 0 21 -4.5t20.5 -11.5t16 -15t6.5 -15q0 -2 -1 -6t-12 -21q-7 -11 -13.5 -22t-13.5 -22q-20 -32 -50.5 -65.5t-75 -61t-104 -45t-137.5 -17.5z" />
    <glyph glyph-name="iacute" unicode="&#xed;" horiz-adv-x="397" 
d="M-97 1114q5 8 13 15l21 15q5 4 11 7.5t12 7.5t11 8l10 8q25 22 33 44q9 21 9 34q0 7 -2 15t-2 14q0 12 5 27q4 14 14 27q5 6 10.5 11t12.5 9q14 8 30 8t29 -7t22 -18q10 -11 15 -24q6 -14 6 -25q0 -32 -13 -59q-14 -28 -33 -50q-20 -23 -45 -42q-12 -10 -24 -17.5
t-24 -14.5q-11 -7 -22 -11.5t-21 -8.5q-18 -7 -30 -7q-4 0 -7.5 0.5t-8.5 1.5q-7 1 -16 5q-4 2 -7.5 4.5t-6.5 4.5q-5 5 -5 11q0 2 1 3t1 2t1 2zM214 0q-64 0 -105.5 28.5t-65.5 71.5t-33.5 93t-9.5 94v599q0 25 6 40t17 22.5t26 9.5t34 2q18 0 33.5 -2t26.5 -9.5t17 -22.5
t6 -40v-614q0 -28 3.5 -62.5t12 -64.5t23 -50.5t37.5 -20.5q16 0 36 15.5t41 40.5t41 55t37 59q5 9 9.5 17.5t9.5 16.5l11 20q4 8 16 8q10 0 21 -4.5t20.5 -11.5t16 -15t6.5 -15q0 -2 -1 -6t-12 -21q-7 -11 -13.5 -22t-13.5 -22q-29 -45 -54.5 -80.5t-54.5 -59.5
t-63.5 -36.5t-80.5 -12.5z" />
    <glyph glyph-name="icircumflex" unicode="&#xee;" horiz-adv-x="503" 
d="M218 1352q8 0 29 -8q10 -4 21 -8.5t22 -11.5q12 -7 24 -14.5t25 -15.5q27 -18 45 -34q20 -17 34 -36q13 -16 13 -32q0 -17 -17 -22q-15 -4 -40 -4q-33 0 -55 5q-20 6 -31 16l-35 36l-25 25q-10 9 -10 11l-11 -11l-25 -25l-35 -36q-14 -10 -32 -15q-18 -6 -53 -6
q-26 0 -41 4q-17 5 -17 22q0 16 13 32q13 18 33 36q20 17 46 34q13 8 25 15.5t24 14.5t22.5 11.5t20.5 8.5q21 8 30 8zM573 189q-11 -17 -20 -33t-19 -30q-31 -45 -61 -72t-69 -41q-35 -13 -82 -13q-49 0 -84 26q-36 28 -58 68t-33 92q-10 49 -10 101v20q-3 -7 -8.5 -17
t-8.5 -16t-6 -11.5t-6 -10.5q-11 -20 -18.5 -24.5t-15.5 -4.5q-9 0 -18.5 4t-17.5 10t-13 14t-5 16q0 3 1 10t9 21q8 17 16.5 33.5t16.5 35.5q17 39 30 86q7 25 15 53t13 60t10.5 70t5.5 82v168q0 26 6 41q6 14 17 22q14 9 27 10q8 1 16 1.5t17 0.5t17 -0.5t16 -1.5
q14 -1 26 -10q11 -8 17 -22q6 -15 6 -41v-614q0 -32 3 -66q2 -17 4.5 -33t5.5 -31q4 -14 7.5 -26.5t8.5 -22.5q9 -19 19 -19q19 0 43 21q24 22 48 54q13 17 21 28.5t19 30.5q6 10 11.5 18.5t10.5 17.5t9.5 17.5t9.5 16.5l11 20q4 8 16 8q10 0 21 -4.5t20.5 -11.5t16 -15
t6.5 -15q0 -2 -1 -6t-12 -21q-7 -11 -13.5 -22t-13.5 -22z" />
    <glyph glyph-name="oacute" unicode="&#xf3;" horiz-adv-x="797" 
d="M166 480q0 -82 13.5 -155.5t36.5 -129t55 -88.5t69 -33q36 0 68 32.5t55.5 88t37 129.5t13.5 156t-13.5 155.5t-37 129t-55.5 88.5t-68 33q-37 0 -68.5 -32.5t-55 -88t-37 -129.5t-13.5 -156zM599 169q-22 -36 -49.5 -67t-60 -53.5t-70 -35.5t-79.5 -13
q-69 0 -130.5 38.5t-108 104t-74 152.5t-27.5 185q0 101 27 188.5t73.5 152.5t108.5 102t131 37q71 0 133 -38.5t108 -104t72.5 -153t26.5 -185.5q0 -65 -14 -134t-40 -127q6 -2 18.5 -7t29 -9t35.5 -6t38 3q20 5 31.5 19.5t18.5 25.5q5 9 9.5 17.5t9.5 16.5l11 20q4 8 16 8
q10 0 21 -4.5t20.5 -11.5t16 -15t6.5 -15q0 -2 -1 -6t-12 -21q-7 -11 -13.5 -22t-13.5 -22q-6 -9 -14.5 -19.5t-20.5 -19.5t-27.5 -15t-34.5 -6q-46 0 -92.5 12.5t-78.5 27.5zM207 1112q5 8 13 15l21 15q5 4 11 7.5t12 7.5t11 8l10 8q25 22 33 44q9 21 9 34q0 7 -2 15t-2 14
q0 12 5 27q4 14 14 27q5 6 10.5 11t12.5 9q14 8 30 8t29 -7t22 -18q10 -11 15 -24q6 -14 6 -25q0 -32 -13 -59q-14 -28 -33 -50q-20 -23 -45 -42q-12 -10 -24 -17.5t-24 -14.5q-11 -7 -22 -11.5t-21 -8.5q-18 -7 -30 -7q-4 0 -7.5 0.5t-8.5 1.5q-7 1 -16 5q-4 2 -7.5 4.5
t-6.5 4.5q-5 5 -5 11q0 2 1 3t1 2t1 2z" />
    <glyph glyph-name="ocircumflex" unicode="&#xf4;" horiz-adv-x="797" 
d="M166 480q0 -82 13.5 -155.5t36.5 -129t55 -88.5t69 -33q36 0 68 32.5t55.5 88t37 129.5t13.5 156t-13.5 155.5t-37 129t-55.5 88.5t-68 33q-37 0 -68.5 -32.5t-55 -88t-37 -129.5t-13.5 -156zM599 169q-22 -36 -49.5 -67t-60 -53.5t-70 -35.5t-79.5 -13
q-69 0 -130.5 38.5t-108 104t-74 152.5t-27.5 185q0 101 27 188.5t73.5 152.5t108.5 102t131 37q71 0 133 -38.5t108 -104t72.5 -153t26.5 -185.5q0 -65 -14 -134t-40 -127q6 -2 18.5 -7t29 -9t35.5 -6t38 3q20 5 31.5 19.5t18.5 25.5q5 9 9.5 17.5t9.5 16.5l11 20q4 8 16 8
q10 0 21 -4.5t20.5 -11.5t16 -15t6.5 -15q0 -2 -1 -6t-12 -21q-7 -11 -13.5 -22t-13.5 -22q-6 -9 -14.5 -19.5t-20.5 -19.5t-27.5 -15t-34.5 -6q-46 0 -92.5 12.5t-78.5 27.5zM336 1352q18 0 47.5 -14.5t59.5 -35t56 -42t37 -36.5q13 -16 13 -32q0 -18 -17.5 -22t-39.5 -4
q-33 0 -52.5 5.5t-32 14t-20 18.5t-16.5 19q-13 14 -24 24.5t-11 12.5q0 -2 -11.5 -14.5t-27.5 -27.5t-34 -28.5t-30 -17.5q-18 -6 -53 -6q-23 0 -40.5 4t-17.5 22q0 19 14 38t35 36t45.5 31.5t45 25t33.5 16.5t11 5q21 8 30 8z" />
    <glyph glyph-name="odieresis" unicode="&#xf6;" horiz-adv-x="797" 
d="M124 1170q0 37 26 63q27 27 64 27q38 0 64 -27q26 -26 26 -63q0 -36 -26 -64q-26 -26 -64 -26q-36 0 -64 26q-26 28 -26 64zM360 1170q0 37 26 63q27 27 64 27q38 0 64 -27q26 -26 26 -63q0 -36 -26 -64q-26 -26 -64 -26q-36 0 -64 26q-26 28 -26 64zM166 480
q0 -82 13.5 -155.5t36.5 -129t55 -88.5t69 -33q36 0 68 32.5t55.5 88t37 129.5t13.5 156t-13.5 155.5t-37 129t-55.5 88.5t-68 33q-37 0 -68.5 -32.5t-55 -88t-37 -129.5t-13.5 -156zM599 169q-22 -36 -49.5 -67t-60 -53.5t-70 -35.5t-79.5 -13q-69 0 -130.5 38.5t-108 104
t-74 152.5t-27.5 185q0 101 27 188.5t73.5 152.5t108.5 102t131 37q71 0 133 -38.5t108 -104t72.5 -153t26.5 -185.5q0 -65 -14 -134t-40 -127q6 -2 18.5 -7t29 -9t35.5 -6t38 3q20 5 31.5 19.5t18.5 25.5q5 9 9.5 17.5t9.5 16.5l11 20q4 8 16 8q10 0 21 -4.5t20.5 -11.5
t16 -15t6.5 -15q0 -2 -1 -6t-12 -21q-7 -11 -13.5 -22t-13.5 -22q-6 -9 -14.5 -19.5t-20.5 -19.5t-27.5 -15t-34.5 -6q-46 0 -92.5 12.5t-78.5 27.5z" />
    <glyph glyph-name="uacute" unicode="&#xfa;" horiz-adv-x="911" 
d="M981 189q-27 -45 -52.5 -80.5t-54 -59.5t-64 -36.5t-82.5 -12.5q-43 0 -72 12t-48 30t-30 37.5t-18 34.5q-50 -59 -102.5 -86.5t-117.5 -27.5q-75 0 -137.5 40t-107.5 105.5t-70 150t-25 173.5v417q0 28 6 43t17 22t26 8t34 1q18 0 33 -1t26.5 -8t17.5 -22t6 -43v-417
q0 -67 11.5 -137t34 -127.5t55 -94t73.5 -36.5q29 0 53.5 18.5t43.5 49t33.5 71.5t24 86t14.5 91.5t5 89.5v406q0 27 5.5 42t16 22t26 8.5t34.5 1.5q18 0 33 -1t26.5 -8t17.5 -22t6 -43v-614q0 -29 4 -63.5t13 -64.5t23.5 -50t36.5 -20q16 0 36 15.5t41 40.5t41 55t37 59
q5 9 9.5 17.5t9.5 16.5l11 20q4 8 16 8q10 0 21 -4.5t20.5 -11.5t16 -15t6.5 -15q0 -2 -1 -6t-12 -21q-7 -11 -13.5 -22t-13.5 -22zM222 1114q5 8 13 15l21 15q5 4 11 7.5t12 7.5t11 8l10 8q25 22 33 44q9 21 9 34q0 7 -2 15t-2 14q0 12 5 27q4 14 14 27q5 6 10.5 11t12.5 9
q14 8 30 8t29 -7t22 -18q10 -11 15 -24q6 -14 6 -25q0 -32 -13 -59q-14 -28 -33 -50q-20 -23 -45 -42q-12 -10 -24 -17.5t-24 -14.5q-11 -7 -22 -11.5t-21 -8.5q-18 -7 -30 -7q-4 0 -7.5 0.5t-8.5 1.5q-7 1 -16 5q-4 2 -7.5 4.5t-6.5 4.5q-5 5 -5 11q0 2 1 3t1 2t1 2z" />
    <glyph glyph-name="udieresis" unicode="&#xfc;" horiz-adv-x="911" 
d="M0 1170q0 37 26 63q27 27 64 27q38 0 64 -27q26 -26 26 -63q0 -36 -26 -64q-26 -26 -64 -26q-36 0 -64 26q-26 28 -26 64zM512 1170q0 37 26 63q27 27 64 27q38 0 64 -27q26 -26 26 -63q0 -36 -26 -64q-26 -26 -64 -26q-36 0 -64 26q-26 28 -26 64zM981 189
q-27 -45 -52.5 -80.5t-54 -59.5t-64 -36.5t-82.5 -12.5q-43 0 -72 12t-48 30t-30 37.5t-18 34.5q-50 -59 -102.5 -86.5t-117.5 -27.5q-75 0 -137.5 40t-107.5 105.5t-70 150t-25 173.5v417q0 28 6 43t17 22t26 8t34 1q18 0 33 -1t26.5 -8t17.5 -22t6 -43v-417
q0 -67 11.5 -137t34 -127.5t55 -94t73.5 -36.5q29 0 53.5 18.5t43.5 49t33.5 71.5t24 86t14.5 91.5t5 89.5v406q0 27 5.5 42t16 22t26 8.5t34.5 1.5q18 0 33 -1t26.5 -8t17.5 -22t6 -43v-614q0 -29 4 -63.5t13 -64.5t23.5 -50t36.5 -20q16 0 36 15.5t41 40.5t41 55t37 59
q5 9 9.5 17.5t9.5 16.5l11 20q4 8 16 8q10 0 21 -4.5t20.5 -11.5t16 -15t6.5 -15q0 -2 -1 -6t-12 -21q-7 -11 -13.5 -22t-13.5 -22z" />
    <glyph glyph-name="yacute" unicode="&#xfd;" horiz-adv-x="882" 
d="M513 -109q-23 -19 -38.5 -38t-26 -43.5t-15 -58.5t-4.5 -82v-35.5t1 -57.5t4 -67t9 -64t16 -47.5t26 -18.5q12 0 18 10.5t8 30t2 47v60.5v93v271zM679 69q47 16 78.5 35.5t53.5 41.5t38 46.5t33 51.5q5 9 9.5 17.5t9.5 16.5l11 20q4 8 16 8q10 0 21 -4.5t20.5 -11.5
t16 -15t6.5 -15q0 -2 -1 -6t-12 -21q-7 -11 -13.5 -22t-13.5 -22q-21 -31 -44.5 -62t-55 -60t-73.5 -55t-100 -48v-344q0 -100 -17.5 -161.5t-45.5 -95.5t-62.5 -45.5t-68.5 -11.5q-54 0 -93.5 24.5t-66 69t-39 105t-12.5 132.5q0 33 9 80t35 98t72.5 100t122.5 86v66
q-10 -9 -26.5 -20.5t-38.5 -22t-49.5 -17.5t-58.5 -7q-69 0 -131 37t-108.5 101.5t-73.5 152.5t-27 189v406q0 28 6 43t17 22t26 8t34 1q18 0 33 -1t26.5 -8t17.5 -22t6 -43v-406q0 -45 5 -92.5t15 -92.5t24.5 -85t34 -70.5t43 -48t52.5 -17.5q39 0 71 36t55 94t35.5 130.5
t12.5 145.5v412q0 25 6 39t16.5 20.5t25.5 7.5t34 1t34.5 -1t26.5 -8t17 -22t6 -43zM239 1114q5 8 13 15l21 15q5 4 11 7.5t12 7.5t11 8l10 8q25 22 33 44q9 21 9 34q0 7 -2 15t-2 14q0 12 5 27q4 14 14 27q5 6 10.5 11t12.5 9q14 8 30 8t29 -7t22 -18q10 -11 15 -24
q6 -14 6 -25q0 -32 -13 -59q-14 -28 -33 -50q-20 -23 -45 -42q-12 -10 -24 -17.5t-24 -14.5q-11 -7 -22 -11.5t-21 -8.5q-18 -7 -30 -7q-4 0 -7.5 0.5t-8.5 1.5q-7 1 -16 5q-4 2 -7.5 4.5t-6.5 4.5q-5 5 -5 11q0 2 1 3t1 2t1 2z" />
    <glyph glyph-name="endash" unicode="&#x2013;" horiz-adv-x="882" 
d="M811 368h-120h-126h-125h-117h-258q-28 0 -41 3t-19 9q-5 7 -5 15v21v21q0 8 5 15q6 6 19 9t41 3h746q27 0 41 -3q13 -3 21 -9q6 -5 8 -15q1 -5 1 -10v-11v-11t-1 -10q-2 -10 -8 -15q-8 -6 -21 -9q-14 -3 -41 -3z" />
    <glyph glyph-name="emdash" unicode="&#x2014;" horiz-adv-x="1512" 
d="M1441 368h-147h-198h-225h-233h-573q-28 0 -41 3t-19 9q-5 7 -5 15v21v21q0 8 5 15q6 6 19 9t41 3h1376q27 0 41 -3q13 -3 21 -9q6 -5 8 -15q1 -5 1 -10v-11v-11t-1 -10q-2 -10 -8 -15q-8 -6 -21 -9q-14 -3 -41 -3z" />
    <glyph glyph-name="quoteleft" unicode="&#x2018;" horiz-adv-x="353" 
d="M204.008 1466.99q-4.99902 -12.999 -6.99902 -23.998q-2 -11 -2 -20.999q0 -17.999 3.5 -29.998q3.49902 -11.999 8.49902 -19.999t9.49902 -12.499l7.5 -7.5q7.99902 -8.99902 10.999 -22.998t3 -25.999q0 -25.998 -17.999 -47.4971q-17.999 -21.498 -50.9971 -21.498
q-24.998 0 -41.9971 11.499t-26.998 28.998q-10 17.499 -13.999 37.498q-4 19.998 -4 36.9971q0 43.998 14.499 82.9951q14.499 38.998 33.498 68.9961t37.9971 48.4971q18.999 18.499 27.999 21.499q4.99902 1.99902 11.999 3.99902t12.999 2q6 0 12.999 -2.5
q7 -2.49902 7 -9.49902q0 -15.999 -4 -29.498t-9.99902 -24.999q-6 -11.499 -11.999 -21.998q-6 -10.5 -11 -21.499z" />
    <glyph glyph-name="quoteright" unicode="&#x2019;" horiz-adv-x="353" 
d="M132 1344q5 13 7 24t2 21q0 18 -3.5 30t-8.5 20t-9.5 12.5l-7.5 7.5q-8 9 -11 23t-3 26q0 26 18 47.5t51 21.5q25 0 42 -11.5t27 -29t14 -37.5t4 -37q0 -44 -14.5 -83t-33.5 -69t-38 -48.5t-28 -21.5q-5 -2 -12 -4t-13 -2t-13 2.5t-7 9.5q0 16 4 29.5t10 25t12 22
t11 21.5z" />
    <glyph glyph-name="quotesinglbase" unicode="&#x201a;" horiz-adv-x="353" 
d="M132 -95q5 13 7 24t2 21q0 18 -3.5 30t-8.5 20t-9.5 12.5l-7.5 7.5q-8 9 -11 23t-3 26q0 26 18 47.5t51 21.5q25 0 42 -11.5t27 -29t14 -37.5t4 -37q0 -44 -14.5 -83t-33.5 -69t-38 -48.5t-28 -21.5q-5 -2 -12 -4t-13 -2t-13 2.5t-7 9.5q0 16 4 29.5t10 25t12 22t11 21.5
z" />
    <glyph glyph-name="quotedblleft" unicode="&#x201c;" horiz-adv-x="554" 
d="M221.008 1466.99q-4.99902 -12.999 -6.99902 -23.998q-2 -11 -2 -20.999q0 -17.999 3.5 -29.998q3.49902 -11.999 8.49902 -19.999t9.49902 -12.499l7.5 -7.5q7.99902 -8.99902 10.999 -22.998t3 -25.999q0 -25.998 -17.999 -47.4971q-17.999 -21.498 -50.9971 -21.498
q-24.998 0 -41.9971 11.499t-26.998 28.998q-10 17.499 -13.999 37.498q-4 19.998 -4 36.9971q0 43.998 14.499 82.9951q14.499 38.998 33.498 68.9961t37.9971 48.4971q18.999 18.499 27.999 21.499q4.99902 1.99902 11.999 3.99902t12.999 2q6 0 12.999 -2.5
q7 -2.49902 7 -9.49902q0 -15.999 -4 -29.498t-9.99902 -24.999q-6 -11.499 -11.999 -21.998q-6 -10.5 -11 -21.499zM422.008 1466.99q-4.99902 -12.999 -6.99902 -23.998q-2 -11 -2 -20.999q0 -17.999 3.5 -29.998q3.49902 -11.999 8.49902 -19.999t9.49902 -12.499
l7.5 -7.5q7.99902 -8.99902 10.999 -22.998t3 -25.999q0 -25.998 -17.999 -47.4971q-17.999 -21.498 -50.9971 -21.498q-24.998 0 -41.9971 11.499t-26.998 28.998q-10 17.499 -13.999 37.498q-4 19.998 -4 36.9971q0 43.998 14.499 82.9951q14.499 38.998 33.498 68.9961
t37.9971 48.4971q18.999 18.499 27.999 21.499q4.99902 1.99902 11.999 3.99902t12.999 2q6 0 12.999 -2.5q7 -2.49902 7 -9.49902q0 -15.999 -4 -29.498t-9.99902 -24.999q-6 -11.499 -11.999 -21.998q-6 -10.5 -11 -21.499z" />
    <glyph glyph-name="quotedblright" unicode="&#x201d;" horiz-adv-x="554" 
d="M132 1344q5 13 7 24t2 21q0 18 -3.5 30t-8.5 20t-9.5 12.5l-7.5 7.5q-8 9 -11 23t-3 26q0 26 18 47.5t51 21.5q25 0 42 -11.5t27 -29t14 -37.5t4 -37q0 -44 -14.5 -83t-33.5 -69t-38 -48.5t-28 -21.5q-5 -2 -12 -4t-13 -2t-13 2.5t-7 9.5q0 16 4 29.5t10 25t12 22
t11 21.5zM334 1344q5 13 7 24t2 21q0 18 -3.5 30t-8.5 20t-9.5 12.5l-7.5 7.5q-8 9 -11 23t-3 26q0 26 18 47.5t51 21.5q25 0 42 -11.5t27 -29t14 -37.5t4 -37q0 -44 -14.5 -83t-33.5 -69t-38 -48.5t-28 -21.5q-5 -2 -12 -4t-13 -2t-13 2.5t-7 9.5q0 16 4 29.5t10 25t12 22
t11 21.5z" />
    <glyph glyph-name="quotedblbase" unicode="&#x201e;" horiz-adv-x="554" 
d="M132 -95q5 13 7 24t2 21q0 18 -3.5 30t-8.5 20t-9.5 12.5l-7.5 7.5q-8 9 -11 23t-3 26q0 26 18 47.5t51 21.5q25 0 42 -11.5t27 -29t14 -37.5t4 -37q0 -44 -14.5 -83t-33.5 -69t-38 -48.5t-28 -21.5q-5 -2 -12 -4t-13 -2t-13 2.5t-7 9.5q0 16 4 29.5t10 25t12 22t11 21.5
zM334 -95q5 13 7 24t2 21q0 18 -3.5 30t-8.5 20t-9.5 12.5l-7.5 7.5q-8 9 -11 23t-3 26q0 26 18 47.5t51 21.5q25 0 42 -11.5t27 -29t14 -37.5t4 -37q0 -44 -14.5 -83t-33.5 -69t-38 -48.5t-28 -21.5q-5 -2 -12 -4t-13 -2t-13 2.5t-7 9.5q0 16 4 29.5t10 25t12 22t11 21.5z
" />
    <glyph glyph-name="perthousand" unicode="&#x2030;" horiz-adv-x="1770" 
d="M198 1274q0 65 16 117q16 54 45 95q14 20 30 36.5t35 27.5q37 24 78 24t79 -24q19 -11 35 -27.5t30 -36.5q27 -39 44 -95q16 -52 16 -117q0 -64 -16 -118q-8 -28 -19 -52t-25 -44q-29 -41 -65 -64q-38 -23 -79 -23q-40 0 -78 23q-36 23 -65 64q-29 40 -45 96
q-16 54 -16 118zM349 1274q0 -24 1 -46.5t3 -43.5q2 -20 4.5 -38.5t6.5 -34.5q7 -29 17 -49q10 -18 21 -18t20 18q5 9 9 21t8 28q7 31 12 73q2 21 3.5 43.5t1.5 46.5q0 23 -1.5 45.5t-3.5 42.5q-4 41 -12 73q-4 16 -8 28.5t-9 21.5q-9 19 -20 19t-21 -19t-17 -50
q-4 -16 -6.5 -34t-4.5 -39q-2 -20 -3 -42.5t-1 -45.5zM745 301q0 65 16 117q16 54 45 95q14 20 30 36.5t35 27.5q37 24 78 24t79 -24q19 -11 35 -27.5t30 -36.5q27 -39 44 -95q16 -52 16 -117q0 -64 -16 -118q-8 -28 -19 -52t-25 -44q-29 -41 -65 -64q-38 -23 -79 -23
q-40 0 -78 23q-36 23 -65 64q-29 40 -45 96q-16 54 -16 118zM896 301q0 -24 1 -46.5t3 -43.5q2 -20 4.5 -38.5t6.5 -34.5q7 -29 17 -49q10 -18 21 -18t20 18q5 9 9 21t8 28q7 31 12 73q2 21 3.5 43.5t1.5 46.5q0 23 -1.5 45.5t-3.5 42.5q-4 41 -12 73q-4 16 -8 28.5t-9 21.5
q-9 18 -20 18t-21 -18q-10 -19 -17 -50q-4 -16 -6.5 -34t-4.5 -39q-2 -20 -3 -42.5t-1 -45.5zM1225 301q0 65 16 117q16 54 45 95q14 20 30 36.5t35 27.5q37 24 78 24t79 -24q19 -11 35 -27.5t30 -36.5q27 -39 44 -95q16 -52 16 -117q0 -64 -16 -118q-8 -28 -19 -52t-25 -44
q-29 -41 -65 -64q-38 -23 -79 -23q-40 0 -78 23q-36 23 -65 64q-29 40 -45 96q-16 54 -16 118zM1376 301q0 -24 1 -46.5t3 -43.5q2 -20 4.5 -38.5t6.5 -34.5q7 -29 17 -49q10 -18 21 -18t20 18q5 9 9 21t8 28q7 31 12 73q2 21 3.5 43.5t1.5 46.5q0 23 -1.5 45.5t-3.5 42.5
q-4 41 -12 73q-4 16 -8 28.5t-9 21.5q-9 18 -20 18t-21 -18q-10 -19 -17 -50q-4 -16 -6.5 -34t-4.5 -39q-2 -20 -3 -42.5t-1 -45.5zM837 1632q8 28 17 40q10 13 23 16q13 4 28 0l16 -4l16 -4t16 -5t15 -5q15 -5 22 -15q9 -10 11 -26q1 -8 0 -18.5t-5 -24.5l-467 -1602
q-7 -26 -18 -40q-10 -13 -23 -17q-12 -3 -27 0q-7 2 -15 4.5t-16 4.5q-20 5 -32 9q-14 6 -23 15q-9 12 -10 26q-2 17 6 44z" />
    <glyph glyph-name="guilsinglleft" unicode="&#x2039;" horiz-adv-x="660" 
d="M150 514l234 340l14 21t11 15q9 12 17 14q9 3 19 -3t27 -18q16 -11 26 -20q9 -7 11 -17q1 -8 -7 -23q-4 -7 -10 -17t-14 -22l-185 -270l185 -270q8 -12 14 -22t10 -17q8 -15 7 -23q-2 -10 -11 -17q-5 -4 -11.5 -9.5t-14.5 -11.5q-17 -12 -27 -18t-19 -4q-8 3 -17 15
q-5 6 -11 15l-14 21z" />
    <glyph glyph-name="guilsinglright" unicode="&#x203a;" horiz-adv-x="660" 
d="M276 173l-14 -21t-11 -15q-9 -12 -18 -15q-8 -2 -18 4q-11 6 -27 18q-8 6 -15 11.5t-12 9.5q-8 7 -10 17q-2 9 6 23q4 7 10.5 16.5t14.5 22.5l185 270l-185 270q-8 13 -14.5 22.5t-10.5 16.5q-8 14 -6 23q2 10 10 17q5 4 12 9t15 11q16 12 27 18q10 6 18 3q9 -1 18 -14
q5 -6 11 -15l14 -21l234 -340z" />
    <glyph glyph-name="trademark" unicode="&#x2122;" horiz-adv-x="2016" 
d="M616 990v-21.5t-1 -16.5q-2 -14 -8 -19q-5 -5 -20 -7q-7 -1 -16.5 -1h-22.5h-22.5t-16.5 1q-14 2 -21 7q-6 5 -7 19q-1 7 -1 16.5v21.5l1 466h-194h-24t-17 1q-13 1 -19 6q-5 7 -5 18v35v34q0 13 5 18t19 7q7 1 17 1h24h525h23.5t16.5 -1q15 -2 19 -7q6 -5 6 -18v-34v-35
q0 -12 -6 -18q-4 -4 -19 -6q-7 -1 -16.5 -1h-23.5h-196v-466zM967 1542q0 15 9 24q10 10 31 10h91h22.5t16.5 -1q14 -2 23 -6q9 -5 16 -14q4 -5 9 -12t10 -17l171 -290l168 290q5 10 9.5 17t8.5 12q6 9 17 14q9 4 23 6q7 1 16.5 1h22.5h85q21 0 30 -10q10 -9 10 -24v-552
v-38q0 -13 -6 -19q-4 -5 -18 -7q-7 -1 -16 -1h-22h-22t-16 1q-13 2 -18 7q-5 7 -5 19v38v457l-206 -372q-15 -27 -61 -27q-20 0 -36 6q-17 7 -24 21l-216 381v-467v-37q0 -13 -6 -19q-4 -5 -18 -7q-7 -1 -16 -1h-22h-22t-16 1q-13 2 -18 7q-5 7 -5 19v38v552z" />
    <glyph glyph-name="periodcentered" unicode="&#xb7;" horiz-adv-x="378" 
d="M151 454q0 37 26 63q27 27 64 27q38 0 64 -27q26 -26 26 -63q0 -36 -26 -64q-26 -26 -64 -26q-36 0 -64 26q-26 28 -26 64z" />
    <glyph glyph-name="space" unicode=" " horiz-adv-x="442" 
 />
    <glyph glyph-name="uni000D" unicode="&#xd;" horiz-adv-x="442" 
 />
    <glyph glyph-name="euro" unicode="&#x20ac;" 
d="M364 650q2 -30 5 -61.5t8 -64.5t11.5 -65.5t14.5 -64.5t18.5 -62.5t22.5 -59.5q25 -59 60 -102q36 -45 81 -70q47 -26 107 -26q30 0 55 2t45 6q40 7 78 24q6 2 12.5 5.5t13.5 7.5q17 10 28 14q15 6 25 5q12 0 19 -13q6 -10 -7 -35t-49 -46q-41 -24 -89 -34
q-25 -5 -57.5 -7.5t-73.5 -2.5q-87 0 -159 26q-70 26 -122 72q-26 23 -49 50t-42 58q-38 63 -63 135q-26 72 -39 151q-7 40 -12 79t-8 79h-60q-28 0 -41 3t-19 9q-5 7 -5 15v21v21q0 8 5 15q6 6 19 9t41 3h55v41v45h-55q-28 0 -41 3t-19 9q-5 7 -5 15v21v21q0 8 5 15
q6 6 19 9t41 3h60q3 40 8 79t12 78q13 79 39 151q26 73 63 134q19 32 42 58.5t49 49.5q52 46 122 72q72 26 159 26q79 0 131 -11q48 -10 89 -34q19 -11 30 -22t19 -24q6 -9 8 -20q2 -10 -1 -14q-7 -12 -19 -14q-10 0 -25 5q-7 3 -13.5 6.5t-14.5 7.5q-15 10 -26 14
q-40 16 -78 23q-20 4 -45 6t-55 2q-60 0 -107 -26q-45 -25 -81 -70q-35 -45 -60 -101q-12 -29 -22.5 -59t-18.5 -62t-14.5 -64t-11.5 -65t-8 -64.5t-5 -61.5h472q27 0 41 -3q13 -3 21 -9q6 -5 8 -15q1 -5 1 -10v-11v-11t-1 -10q-2 -10 -8 -15q-8 -6 -21 -9q-14 -3 -41 -3
q-64 -1 -125 -1.5t-119 0.5t-116 1h-117v-45v-41h477q27 0 41 -3q13 -3 21 -9q6 -5 8 -15q1 -5 1 -10v-11v-11t-1 -10q-2 -10 -8 -15q-8 -6 -21 -9q-14 -3 -41 -3q-64 -1 -124 -1h-118q-58 1 -115 1h-115z" />
    <glyph glyph-name="germandbls" unicode="&#xdf;" horiz-adv-x="1047" 
d="M571 96q77 0 126 29t76.5 76.5t37.5 107t10 120.5q0 86 -31.5 151.5t-83 114.5t-117.5 84t-136 61q-12 4 -26 13.5t-25 22t-18.5 27t-7.5 29.5q0 6 1 16.5t7 24t20 28.5t41 29q7 4 28.5 14t44.5 31t41 56t18 89q0 45 -12.5 91t-38 83.5t-64 61.5t-91.5 24
q-50 0 -79 -10.5t-43.5 -26t-18.5 -33t-4 -32.5v-1766q0 -26 -5.5 -41t-16 -22.5t-26 -9t-35.5 -1.5q-17 0 -32 0.5t-26 7.5t-18 22.5t-7 45.5v1803q0 81 73.5 120t237.5 39q94 0 164 -33.5t116 -85.5t69 -115t23 -122q0 -32 -7.5 -60t-25.5 -55.5t-46.5 -55.5t-70.5 -59
q-18 -14 -34 -27.5t-16 -30.5q0 -15 23 -32t62 -32q72 -27 137 -67t114.5 -94.5t78.5 -126t29 -162.5q0 -75 -18.5 -149.5t-65 -134t-127.5 -97t-205 -37.5q-71 0 -126 14t-92.5 34t-57 43.5t-19.5 41.5q0 13 9.5 18t14.5 5q17 0 39 -11t38 -18q74 -31 194 -31z" />
    <glyph glyph-name="parenright" unicode=")" horiz-adv-x="744" 
d="M293 1520q271 -569 271 -939q0 -371 -271 -940q-14 -27 -22.5 -41.5t-19.5 -14.5t-27.5 8t-33 18.5t-28 20.5t-11.5 15q0 7 5 17.5t12 25.5q229 492 229 891q0 398 -229 890q-8 16 -12.5 25.5t-4.5 17.5q0 11 24 28t62 31q7 3 14 3q12 0 20 -14.5t22 -41.5z" />
    <glyph glyph-name="comma" unicode="," horiz-adv-x="525" 
d="M151 -214q0 12 6 26q4 7 7.5 14t8.5 14q5 8 10 15l10 14t9 14t7 14q18 39 17 67q-2 30 -9 43q-7 12 -10 15q-3 4 -8 16q-3 8 -5.5 16t-3.5 18q-1 19 3 37q4 17 16 34q10 15 31 25q18 7 36 6t35 -9q18 -8 30 -19q13 -12 19 -25q15 -37 14 -74q-2 -38 -12 -75
q-10 -36 -30 -71q-10 -17 -19.5 -31.5t-20.5 -28.5q-20 -27 -39 -45q-21 -19 -31 -23q-8 -3 -18 -6q-5 -1 -10.5 -1.5t-10.5 -0.5q-10 0 -19 3t-13 10q-1 4 0 8z" />
    <glyph glyph-name="period" unicode="." horiz-adv-x="480" 
d="M150 90q0 37 26 63q27 27 64 27q38 0 64 -27q26 -26 26 -63q0 -36 -26 -64q-26 -26 -64 -26q-36 0 -64 26q-26 28 -26 64z" />
    <glyph glyph-name="slash" unicode="/" horiz-adv-x="768" 
d="M538 1612q8 28 17 40q10 13 23 16q13 4 28 0l16 -4l16 -4t16 -5t15 -5q15 -5 22 -15q9 -10 11 -26q1 -8 0 -18.5t-5 -24.5l-467 -1602q-7 -26 -18 -40q-10 -13 -23 -17q-12 -3 -27 0q-7 2 -15 4.5t-16 4.5q-20 5 -32 9q-14 6 -23 15q-9 12 -10 26q-2 17 6 44z" />
    <glyph glyph-name="quotedbl" unicode="&#x22;" horiz-adv-x="680" 
d="M167.787 1293.12q6.05273 15.7207 8.47363 29.0215q2.4209 13.3018 2.4209 25.3945q0 21.7656 -4.23633 36.2764q-4.2373 14.5107 -10.2891 24.1846q-6.05273 9.67383 -11.5 15.1152t-9.0791 9.06934q-9.68457 10.8828 -13.3154 27.8125
q-3.63184 16.9287 -3.63184 31.4395q0 31.4404 21.7891 57.4385t61.7363 25.998q30.2627 0 50.8418 -13.9053q20.5781 -13.9062 32.6836 -35.0684q12.1045 -21.1611 16.9473 -45.3457q4.8418 -24.1846 4.8418 -44.7412q0 -53.2061 -17.5527 -100.366
q-17.5518 -47.1602 -40.5518 -83.4365q-23 -36.2773 -46 -58.6475q-22.999 -22.3711 -33.8936 -25.999q-6.05273 -2.41797 -14.5264 -4.83691q-8.47363 -2.41797 -15.7363 -2.41797q-7.26367 0 -15.7373 3.02246q-8.47363 3.02344 -8.47363 11.4883
q0 19.3477 4.84277 35.6719q4.8418 16.3242 12.1045 30.2305q7.26367 13.9062 14.5264 26.6035t13.3154 25.998zM445.787 1293.12q6.05273 15.7207 8.47363 29.0215q2.4209 13.3018 2.4209 25.3945q0 21.7656 -4.23633 36.2764q-4.2373 14.5107 -10.2891 24.1846
q-6.05273 9.67383 -11.5 15.1152t-9.0791 9.06934q-9.68457 10.8828 -13.3154 27.8125q-3.63184 16.9287 -3.63184 31.4395q0 31.4404 21.7891 57.4385t61.7363 25.998q30.2627 0 50.8418 -13.9053q20.5781 -13.9062 32.6836 -35.0684q12.1045 -21.1611 16.9473 -45.3457
q4.8418 -24.1846 4.8418 -44.7412q0 -53.2061 -17.5527 -100.366q-17.5518 -47.1602 -40.5518 -83.4365q-23 -36.2773 -46 -58.6475q-22.999 -22.3711 -33.8936 -25.999q-6.05273 -2.41797 -14.5264 -4.83691q-8.47363 -2.41797 -15.7363 -2.41797
q-7.26367 0 -15.7373 3.02246q-8.47363 3.02344 -8.47363 11.4883q0 19.3477 4.84277 35.6719q4.8418 16.3242 12.1045 30.2305q7.26367 13.9062 14.5264 26.6035t13.3154 25.998z" />
    <glyph glyph-name="numbersign" unicode="#" horiz-adv-x="768" 
d="M868 1265q10 34 22.5 46t30.5 12q30 0 51 -7.5t34.5 -18.5t19.5 -22.5t6 -20.5q0 -8 -1 -16t-4 -19l-101 -349h114q25 0 39 -5.5t21 -14.5t9 -21t2 -26q0 -10 -1 -22t-7.5 -22t-21 -16.5t-41.5 -6.5h-152l-44 -153h118q25 0 39 -5.5t21 -14.5t9 -21t2 -26q0 -10 -1 -22
t-7.5 -22t-21 -16.5t-41.5 -6.5h-157l-115 -402q-9 -32 -22 -45.5t-32 -13.5q-24 0 -44.5 6t-35 15.5t-23 21t-8.5 22.5q0 8 2 17.5t5 21.5l102 357h-233l-115 -402q-9 -32 -22 -45.5t-32 -13.5q-29 0 -49.5 7t-34.5 17t-20.5 21.5t-6.5 21.5q0 14 6 37l102 357h-152
q-30 0 -44 7.5t-18.5 20.5t-3.5 29t1 33q0 20 13.5 32t51.5 12h191l43 152q-39 0 -78 0.5t-78 0.5q-30 0 -44 7.5t-18.5 20.5t-3.5 29t1 33q0 20 13.5 32t51.5 12h195l113 395q10 35 23.5 46.5t29.5 11.5q27 0 48 -7t35 -17t21.5 -22.5t7.5 -22.5q0 -8 -1 -16t-4 -19
l-101 -349h233zM483 735l-43 -152h233l43 152h-233z" />
    <glyph glyph-name="colon" unicode=":" horiz-adv-x="480" 
d="M150 90q0 37 26 63q27 27 64 27q38 0 64 -27q26 -26 26 -63q0 -36 -26 -64q-26 -26 -64 -26q-36 0 -64 26q-26 28 -26 64zM150 568q0 37 26 63q27 27 64 27q38 0 64 -27q26 -26 26 -63q0 -36 -26 -64q-26 -26 -64 -26q-36 0 -64 26q-26 28 -26 64z" />
    <glyph glyph-name="semicolon" unicode=";" horiz-adv-x="525" 
d="M151 -214q0 12 6 26q4 7 7.5 14t8.5 14q5 8 10 15l10 14t9 14t7 14q18 39 17 67q-2 30 -9 43q-7 12 -10 15q-3 4 -8 16q-3 8 -5.5 16t-3.5 18q-1 19 3 37q4 17 16 34q10 15 31 25q18 7 36 6t35 -9q18 -8 30 -19q13 -12 19 -25q15 -37 14 -74q-2 -38 -12 -75
q-10 -36 -30 -71q-10 -17 -19.5 -31.5t-20.5 -28.5q-20 -27 -39 -45q-21 -19 -31 -23q-8 -3 -18 -6q-5 -1 -10.5 -1.5t-10.5 -0.5q-10 0 -19 3t-13 10q-1 4 0 8zM191 568q0 37 26 63q27 27 64 27q38 0 64 -27q26 -26 26 -63q0 -36 -26 -64q-26 -26 -64 -26q-36 0 -64 26
q-26 28 -26 64z" />
    <glyph glyph-name="bracketleft" unicode="[" horiz-adv-x="720" 
d="M335 -365q0 -33 39 -33h101q29 0 44.5 -1t22 -6t7.5 -14.5t1 -26.5q0 -18 -1 -28t-7.5 -14.5t-22 -5t-44.5 -0.5h-231q-75 0 -75 75v1920q0 75 75 75h231q29 0 44.5 -1t22 -6t7.5 -14.5t1 -26.5q0 -18 -1 -28t-7.5 -14.5t-22 -5t-44.5 -0.5h-101q-39 0 -39 -33v-1812z
" />
    <glyph glyph-name="bracketright" unicode="]" horiz-adv-x="720" 
d="M384 1447q0 33 -40 33h-100h-41t-22.5 4t-9.5 14t-2 30q0 19 1.5 28.5t9 14t22.5 5t42 0.5h231q75 0 75 -75v-1920q0 -75 -75 -75h-231h-41t-22.5 4t-9.5 14t-2 30q0 19 1.5 28.5t9 14t22.5 5t42 0.5h100q40 0 40 33v1812z" />
    <glyph glyph-name="underscore" unicode="_" horiz-adv-x="1024" 
d="M1024 -280q-124 -1 -282 -1h-742v135h1024v-134z" />
    <glyph glyph-name="braceleft" unicode="{" horiz-adv-x="720" 
d="M398 -365q0 -33 40 -33h101q28 0 43 -1t22 -5.5t8 -14.5t1 -27q0 -18 -1 -28t-7.5 -14.5t-22 -5t-43.5 -0.5h-232q-74 0 -74 75v868q0 15 -13 22t-29.5 9.5t-32 2t-21.5 0.5q-21 2 -25.5 14t-4.5 45q0 21 1 33t8 18t21.5 7.5t41.5 1.5q20 0 37 8t17 24v867q0 75 74 75
h232q28 0 43 -1t22 -5.5t8 -14.5t1 -27q0 -18 -1 -28t-7.5 -14.5t-22 -5t-43.5 -0.5h-101q-30 0 -35 -14t-5 -45q2 -18 1.5 -58t-0.5 -107v-104.5t-0.5 -125.5t-0.5 -170.5v-239.5q0 -74 -74 -74q74 0 74 -75v-832z" />
    <glyph glyph-name="braceright" unicode="}" horiz-adv-x="720" 
d="M322 467q0 75 74 75q-74 0 -74 74v254v190t-0.5 137.5t-0.5 97.5v70.5v55.5q0 21 1 26q0 33 -40 33h-101h-42t-22 4.5t-8.5 14t-1.5 29.5q0 18 1.5 28t9 14.5t22 5t41.5 0.5h232q74 0 74 -75v-867q0 -14 12 -21t28 -9.5t32 -2.5t23 -1q23 -2 27 -15.5t4 -42.5
q0 -22 -2 -34t-9 -18t-21.5 -7t-39.5 -1q-18 0 -36 -8t-18 -25v-868q0 -75 -74 -75h-232h-42t-22 4.5t-8.5 14t-1.5 29.5q0 18 1.5 28t9 14.5t22 5t41.5 0.5h101q40 0 40 33v832z" />
    <glyph glyph-name="copyright" unicode="&#xa9;" horiz-adv-x="1500" 
d="M1115 1210q0 -154 -108 -260q-106 -106 -258 -106t-258 106q-107 107 -107 260q0 151 107 258q106 108 258 108q151 0 258 -108q108 -107 108 -258zM1029 1210q0 116 -82 197q-82 82 -198 82t-198 -82q-82 -81 -82 -197t82 -198t198 -82t198 82t82 198zM912 1364l-68 -64
q-36 37 -90 37q-52 0 -88 -37q-36 -36 -36 -88t36 -89q36 -36 88 -36q49 0 86 34l67 -66q-64 -61 -153 -61q-91 0 -155 64t-64 154q0 91 64 155q65 65 155 65q93 0 158 -68z" />
    <glyph glyph-name="guillemotleft" unicode="&#xab;" horiz-adv-x="972" 
d="M150 480l234 340q19 28 28 39.5t20 11.5q9 0 22.5 -8.5t25.5 -19.5t20.5 -21t8.5 -13q0 -15 -31 -59l-185 -270l185 -270q31 -44 31 -60q0 -10 -18.5 -26t-45.5 -32q-7 -4 -15 -4q-10 0 -18.5 12t-27.5 39zM462 480l234 340q19 28 28 39.5t20 11.5q9 0 22.5 -8.5
t25.5 -19.5t20.5 -21t8.5 -13q0 -15 -31 -59l-185 -270l185 -270q31 -44 31 -60q0 -10 -18.5 -26t-45.5 -32q-7 -4 -15 -4q-10 0 -18.5 12t-27.5 39z" />
    <glyph glyph-name="guillemotright" unicode="&#xbb;" horiz-adv-x="972" 
d="M588 139q-18 -26 -27 -38.5t-20 -12.5q-6 0 -18.5 7.5t-26 17.5t-23.5 20.5t-10 17.5q0 10 7.5 23t23.5 36l185 270l-185 270q-16 23 -23.5 36t-7.5 23q0 12 20 28t44 30q7 4 13 4q11 0 20 -11.5t28 -39.5l234 -340zM276 139q-18 -26 -27 -38.5t-20 -12.5q-6 0 -18.5 7.5
t-26 17.5t-23.5 20.5t-10 17.5q0 10 7.5 23t23.5 36l185 270l-185 270q-16 23 -23.5 36t-7.5 23q0 12 20 28t44 30q7 4 13 4q11 0 20 -11.5t28 -39.5l234 -340z" />
    <glyph glyph-name="multiply" unicode="&#xd7;" 
d="M162 814q-18 18 -27 29.5t-11 22.5q0 4 7.5 17t19 27.5t25.5 26t27 11.5q11 0 23.5 -10.5t30.5 -28.5l265 -266l265 266q20 20 31 29.5t23 9.5q3 0 15.5 -7.5t26.5 -19t25 -25.5t11 -27q0 -12 -7.5 -22.5t-29.5 -32.5l-266 -266l248 -247q20 -20 28.5 -32.5t8.5 -23.5
q0 -5 -8.5 -18t-20.5 -26.5t-25.5 -23.5t-23.5 -10q-12 0 -23 9.5t-31 29.5l-247 246l-247 -246q-18 -18 -30.5 -28.5t-23.5 -10.5q-9 0 -30 16t-41 44q-8 11 -8 21q2 11 11.5 23.5t26.5 29.5l248 247z" />
    <glyph glyph-name="ellipsis" unicode="&#x2026;" horiz-adv-x="750" 
d="M35 90q0 37 26 63q27 27 64 27q38 0 64 -27q26 -26 26 -63q0 -36 -26 -64q-26 -26 -64 -26q-36 0 -64 26q-26 28 -26 64zM285 90q0 37 26 63q27 27 64 27q38 0 64 -27q26 -26 26 -63q0 -36 -26 -64q-26 -26 -64 -26q-36 0 -64 26q-26 28 -26 64zM535 90q0 37 26 63
q27 27 64 27q38 0 64 -27q26 -26 26 -63q0 -36 -26 -64q-26 -26 -64 -26q-36 0 -64 26q-26 28 -26 64z" />
    <glyph glyph-name="NULL" horiz-adv-x="0" 
 />
    <glyph glyph-name="NULL" horiz-adv-x="0" 
 />
    <glyph glyph-name="plus" unicode="+" 
d="M596 624h263q27 0 41 -1t21 -8t8 -22t1 -43t-1 -43t-8 -22t-21 -8t-41 -1h-263v-269q0 -24 -1 -37.5t-8 -19.5t-22 -7t-43 -1t-43 1t-22 7t-8 19.5t-1 37.5v269h-269q-24 0 -37.5 1t-19.5 8t-7 22t-1 43t1 43t7 22t19.5 8t37.5 1h269v269q0 24 1 37.5t8 19.5t22 7t43 1
t43 -1t22 -7t8 -19.5t1 -37.5v-269z" />
    <glyph glyph-name="hyphen" unicode="-" 
d="M185 476q-27 0 -41 1t-21 8t-8 22t-1 43t1 43t8 22t21 8t41 1h680q24 0 37.5 -1t19.5 -8t7 -22t1 -43t-1 -43t-7 -22t-19.5 -8t-37.5 -1h-680z" />
    <glyph glyph-name="less" unicode="&#x3c;" 
d="M120 550q0 19 0.5 29t4 16t11 9.5t21.5 8.5l684 233q16 6 25.5 8t15.5 -2.5t11 -17t13 -36.5q9 -27 13.5 -42t3 -23t-10 -12t-24.5 -10q-89 -30 -173 -59q-36 -12 -75.5 -25.5t-78 -27t-74.5 -26.5t-67 -23q31 -11 67 -23.5t74.5 -26t78 -27t75.5 -25.5q84 -29 173 -59
q16 -6 24.5 -10t10 -12t-3 -23t-13.5 -42q-8 -24 -13 -36.5t-11 -17t-15.5 -2.5t-25.5 8l-684 233q-14 5 -21.5 8.5t-11 9.5t-4 16t-0.5 29z" />
    <glyph glyph-name="equal" unicode="=" 
d="M185 346q-27 0 -41 1t-21 8t-8 22t-1 43t1 43t8 22t21 8t41 1h680q24 0 37.5 -1t19.5 -8t7 -22t1 -43t-1 -43t-7 -22t-19.5 -8t-37.5 -1h-680zM185 606q-27 0 -41 1t-21 8t-8 22t-1 43t1 43t8 22t21 8t41 1h680q24 0 37.5 -1t19.5 -8t7 -22t1 -43t-1 -43t-7 -22t-19.5 -8
t-37.5 -1h-680z" />
    <glyph glyph-name="greater" unicode="&#x3e;" 
d="M923 550q0 -19 -0.5 -29t-4 -16t-11 -9.5t-21.5 -8.5l-684 -233q-17 -6 -26 -8t-15 2.5t-11 17t-13 36.5q-9 27 -13.5 42t-3 23t10 12t24.5 10q87 30 172 59q36 12 75 25.5l78 27t75.5 26t67.5 23.5q-31 10 -67.5 23t-75.5 26.5l-78 27t-75 25.5q-85 29 -172 59
q-16 6 -24.5 10t-10 12t3 23t13.5 42q8 24 13 36.5t11 17t15 2.5t26 -8l684 -233q14 -5 21.5 -8.5t11 -9.5t4 -16t0.5 -29z" />
    <glyph glyph-name="currency" unicode="&#xa4;" 
d="M352 701q36 23 77 35.5t87 12.5q45 0 86.5 -12t76.5 -35l140 140q17 17 27.5 25.5t23.5 8.5q6 0 20 -10.5t27.5 -25t24 -28.5t10.5 -20q0 -13 -9 -25.5t-29 -32.5l-133 -133q46 -72 46 -162q0 -92 -48 -166l136 -135q20 -20 29 -32t9 -26q0 -6 -10 -20t-23.5 -28
t-27.5 -25t-21 -11q-13 0 -23 8t-25 23l-9 9l-137 136q-70 -44 -161 -44q-90 0 -161 46l-143 -143q-15 -16 -28 -25.5t-24 -9.5q-7 0 -20.5 10.5t-27.5 25t-24.5 28.5t-10.5 20q0 13 9.5 25.5t29.5 32.5l136 137q-23 37 -35 78t-12 86q0 44 12 85t34 76l-133 134
q-20 20 -30 32.5t-10 26.5q0 6 10.5 19.5t24.5 28t27.5 25t20.5 10.5q11 0 24 -9.5t28 -25.5l5 -5zM324 438q0 -39 15 -74t41 -61t61 -41t75 -15t74.5 15t60.5 41t41 61t15 74t-15 74t-41 61t-60.5 41t-74.5 15t-75 -15t-61 -41t-41 -61t-15 -74z" />
    <glyph glyph-name="registered" unicode="&#xae;" horiz-adv-x="1500" 
d="M1115 1210q0 -76 -29 -142.5t-78.5 -116t-116.5 -78.5t-142 -29t-141.5 28.5t-116 78t-78.5 116.5t-29 143q0 75 29 141.5t79 116.5t116 79t141 29t141.5 -29t116.5 -79t79 -116.5t29 -141.5zM1029 1210q0 58 -22.5 108.5t-60.5 88.5t-89 60t-108 22t-108 -22t-89 -60
t-60.5 -88.5t-22.5 -108.5q0 -57 22 -108t60.5 -89.5t89.5 -60.5t108 -22t108 22t89.5 60.5t60.5 89.5t22 108zM939 1018h-94l-50 80q-11 17 -27 36.5t-37 42.5q-8 2 -17.5 4t-35.5 2h-32v-165h-79v388h200q74 0 106.5 -29.5t32.5 -76.5q0 -24 -9.5 -43.5t-24.5 -34
t-35 -23.5t-41 -12q26 -8 42 -24t32 -40zM825 1300q0 20 -20 38t-63 18h-96v-114h83q51 0 73.5 14.5t22.5 43.5z" />
    <glyph glyph-name="degree" unicode="&#xb0;" 
d="M312 1392q0 50 17.5 91t46.5 70.5t66.5 45.5t76.5 16q43 0 80.5 -17.5t65.5 -48t44 -71t16 -86.5q0 -45 -16 -85.5t-43.5 -71t-65.5 -48t-81 -17.5q-41 0 -78.5 17t-66 46.5t-45.5 70t-17 88.5zM428 1393q0 -31 6 -58.5t17 -48t28 -32.5t40 -12q22 0 39.5 12.5t29 33.5
t17.5 48t6 57t-6 57.5t-18 48.5t-29 33.5t-39 12.5t-39 -12t-28.5 -33t-17.5 -48.5t-6 -58.5z" />
    <glyph glyph-name="plusminus" unicode="&#xb1;" 
d="M186 0q-27 0 -41 1t-21 8t-8 22t-1 43t1 43t8 22t21 8t41 1h675q24 0 37.5 -1t19.5 -8t7 -22t1 -43t-1 -43t-7 -22t-19.5 -8t-37.5 -1h-675zM596 671h263q27 0 41 -1t21 -8t8 -22t1 -43t-1 -43t-8 -22t-21 -8t-41 -1h-263v-269q0 -24 -1 -37.5t-8 -19.5t-22 -7t-43 -1
t-43 1t-22 7t-8 19.5t-1 37.5v269h-269q-24 0 -37.5 1t-19.5 8t-7 22t-1 43t1 43t7 22t19.5 8t37.5 1h269v269q0 24 1 37.5t8 19.5t22 7t43 1t43 -1t22 -7t8 -19.5t1 -37.5v-269z" />
    <glyph glyph-name="divide" unicode="&#xf7;" 
d="M859 476h-680q-24 0 -37.5 1t-19.5 8t-7 22t-1 43t1 43t7 22t19.5 8t37.5 1h680q27 0 41 -1t21 -8t8 -22.5t1 -43.5q0 -27 -1 -42t-8 -22t-21.5 -8t-41.5 -1h1zM422 262q0 19 7.5 35.5t19.5 28.5t28.5 19t34.5 7q37 0 63.5 -26t26.5 -64q0 -18 -7 -34.5t-19 -29
t-28.5 -19.5t-35.5 -7q-38 0 -64 26t-26 64zM422 838q0 19 7.5 35.5t19.5 28.5t28.5 19t34.5 7q37 0 63.5 -26t26.5 -64q0 -18 -7 -34.5t-19 -29t-28.5 -19.5t-35.5 -7q-38 0 -64 26t-26 64z" />
    <glyph glyph-name="scaron" unicode="&#x161;" horiz-adv-x="797" 
d="M351 1079.08q18 0 47.5 14.5q29.5 14.499 59.5 34.9971q30 20.499 56 41.998q26 21.498 37 36.4971q13 16 13 31.998q0 17.999 -17.5 21.999t-39.5 4q-33 0 -52.5 -5.5q-19.5 -5.49902 -32 -13.999q-12.5 -8.49902 -20 -18.499q-7.5 -9.99902 -16.5 -18.999
q-13 -13.999 -24 -24.498t-11 -12.499q0 2 -11.5 14.499t-27.5 27.498t-34 28.498q-18 13.5 -30 17.499q-18 6 -53 6q-23 0 -40.5 -4t-17.5 -21.999q0 -18.998 14 -37.9971t35 -35.998t45.5 -31.498t45 -24.998q20.5 -10.5 33.5 -16.499q13 -6 11 -5q21 -8 30 -8zM894 233
q-18 -31 -41 -47.5t-51 -22t-59.5 -1t-67.5 15.5q-39 -80 -109.5 -129t-165.5 -49q-41 0 -81.5 11.5t-72.5 35.5t-52.5 61t-20.5 88q0 20 15.5 28.5t32.5 8.5t32.5 -8.5t15.5 -28.5q0 -16 6.5 -37t22 -40t40.5 -32t62 -13q39 0 64.5 21.5t40.5 53t21 67t6 64.5
q0 40 -14.5 75t-37.5 65.5t-51.5 58t-56.5 54.5q-21 20 -37.5 35.5t-33 34.5t-34.5 45t-42 67q-4 -103 -18.5 -199.5t-53.5 -175.5q-10 -21 -21 -43t-24 -45q-5 -10 -12.5 -19.5t-21.5 -9.5q-19 0 -36.5 14.5t-17.5 29.5q0 11 3.5 18.5t6.5 12.5q12 23 22.5 45t18.5 44
q16 41 26 92.5t15.5 108.5t8 116.5t2.5 118.5q0 20 -2 39.5t-2 39.5t7 31.5t19 17.5t27 7.5t31 1.5q18 0 33 -1.5t26 -9t17 -22.5t6 -41q0 -29 21.5 -67.5t56.5 -83t79.5 -91.5t91.5 -93q28 -27 57 -58t52.5 -65t38.5 -71.5t15 -78.5q0 -9 -2.5 -26.5t-4.5 -24.5
q34 -9 55 -8t34 9.5t21 21.5t16 28l11 20q4 8 16 8q10 0 21 -4.5t20.5 -11.5t16 -15t6.5 -15q0 -2 -1 -6t-12 -21z" />
    <glyph glyph-name="caron" unicode="&#x2c7;" horiz-adv-x="546" 
d="M285 1166.08q18 0 47.5 14.5q29.5 14.499 59.5 34.9971q30 20.499 56 41.998q26 21.498 37 36.4971q13 16 13 31.998q0 17.999 -17.5 21.999t-39.5 4q-33 0 -52.5 -5.5q-19.5 -5.49902 -32 -13.999q-12.5 -8.49902 -20 -18.499q-7.5 -9.99902 -16.5 -18.999
q-13 -13.999 -24 -24.498t-11 -12.499q0 2 -11.5 14.499t-27.5 27.498t-34 28.498q-18 13.5 -30 17.499q-18 6 -53 6q-23 0 -40.5 -4t-17.5 -21.999q0 -18.998 14 -37.9971t35 -35.998t45.5 -31.498t45 -24.998q20.5 -10.5 33.5 -16.499q13 -6 11 -5q21 -8 30 -8z" />
    <glyph glyph-name="Scaron" unicode="&#x160;" horiz-adv-x="976" 
d="M1046 189q-6 -9 -14.5 -19.5t-20.5 -19.5t-27.5 -15t-34.5 -6q-39 0 -79 9t-72 22q-24 -32 -62.5 -61t-85.5 -51t-100 -35t-107 -13q-53 0 -96 6.5t-79.5 20t-68 34t-60.5 48.5q-21 21 -30.5 41.5t-9.5 37.5q2 13 9.5 18t16.5 5q22 0 42 -13.5t40 -31.5t41.5 -37
t45.5 -30q54 -25 139 -25q78 0 136.5 37t96.5 94.5t57 127t19 135.5q0 91 -26.5 161.5t-69.5 120t-98.5 78t-113.5 36.5q-91 12 -162.5 47t-120.5 84t-75 107t-26 117q0 73 30 138t81.5 113.5t121.5 77t151 28.5q110 0 175.5 -21.5t95.5 -69.5q10 -14 10 -27q0 -10 -7.5 -15
t-13.5 -6q-18 0 -38.5 12.5t-41.5 20.5q-18 7 -31.5 13t-30 10t-38.5 6t-56 2q-57 0 -101.5 -25.5t-76 -66t-48 -91t-16.5 -99.5q0 -27 9.5 -67.5t34 -80t66.5 -71t108 -40.5q102 -15 188.5 -54t150 -100t99 -143.5t35.5 -182.5q0 -44 -7.5 -83.5t-18.5 -74t-25.5 -63
t-27.5 -50.5q19 -7 45 -11.5t53 1.5q20 5 31.5 19.5t18.5 25.5q5 9 9.5 17.5t9.5 16.5l11 20q4 8 16 8q10 0 21 -4.5t20.5 -11.5t16 -15t6.5 -15q0 -2 -1 -6t-12 -21q-7 -11 -13.5 -22t-13.5 -22zM475 1616.08q18 0 47.5 14.5q29.5 14.499 59.5 34.9971q30 20.499 56 41.998
q26 21.498 37 36.4971q13 16 13 31.998q0 17.999 -17.5 21.999t-39.5 4q-33 0 -52.5 -5.5q-19.5 -5.49902 -32 -13.999q-12.5 -8.49902 -20 -18.499q-7.5 -9.99902 -16.5 -18.999q-13 -13.999 -24 -24.498t-11 -12.499q0 2 -11.5 14.499t-27.5 27.498t-34 28.498
q-18 13.5 -30 17.499q-18 6 -53 6q-23 0 -40.5 -4t-17.5 -21.999q0 -18.998 14 -37.9971t35 -35.998t45.5 -31.498t45 -24.998q20.5 -10.5 33.5 -16.499q13 -6 11 -5q21 -8 30 -8z" />
    <glyph glyph-name="dagger" unicode="&#x2020;" horiz-adv-x="1101" 
d="M624 1020h346q27 0 41 -1t21 -8t8 -22t1 -43t-1 -43t-8 -22t-21 -8t-41 -1h-346v-1153q0 -24 -1 -37.5t-8 -19.5t-22 -7t-43 -1t-43 1t-22 7t-8 19.5t-1 37.5v1153h-351q-24 0 -37.5 1t-19.5 8t-7 22t-1 43t1 43t7 22t19.5 8t37.5 1h351v347q0 24 1 37.5t8 19.5t22 7
t43 1t43 -1t22 -7t8 -19.5t1 -37.5v-347z" />
    <glyph glyph-name="zcaron" unicode="&#x17e;" horiz-adv-x="837" 
d="M654 0q-31 0 -80 9.5t-101 20.5t-100 20.5t-78 9.5q-23 0 -33.5 -9.5t-17 -20.5t-14 -20.5t-24.5 -9.5q-12 0 -28 6t-30.5 14.5t-25.5 17.5t-13 15q-3 6 -3 15q1 11 4.5 23t11.5 28l346 650q-17 -5 -29 -9t-22.5 -6t-22 -3t-26.5 -1q-48 0 -82 12t-62 22q3 -21 4.5 -35
t2 -25.5t0.5 -22.5v-26q0 -101 -23.5 -185t-54.5 -150q-10 -21 -21 -43t-24 -45q-5 -10 -12.5 -19.5t-21.5 -9.5q-19 0 -36.5 14.5t-17.5 29.5q0 11 3.5 18.5t6.5 12.5q12 23 22.5 45t18.5 44q16 42 27.5 93t11.5 107q0 20 -1.5 45.5t-7.5 59t-18 76.5t-33 100
q-5 13 -8.5 25t-3.5 19q0 6 5.5 14t19.5 15.5t37.5 13t58.5 5.5q23 0 29.5 -13t13.5 -43q3 -13 17.5 -27t35.5 -25t45.5 -18.5t47.5 -7.5q28 0 48.5 1t38.5 4.5t37 11.5t46 23q26 50 41.5 72t35.5 22q3 0 19.5 -5t34.5 -14t32.5 -22t14.5 -30q0 -8 -2.5 -18.5t-10.5 -24.5
l-379 -714q22 6 47 6q36 0 80.5 -8.5t89.5 -20t87 -22t74 -13.5q16 0 36 15.5t41 40.5t41 55t37 59q5 9 9.5 17.5t9.5 16.5l11 20q4 8 16 8q10 0 21 -4.5t20.5 -11.5t16 -15t6.5 -15q0 -2 -1 -6t-12 -21q-7 -11 -13.5 -22t-13.5 -22q-29 -45 -54.5 -80.5t-54.5 -59.5
t-63.5 -36.5t-80.5 -12.5zM395 1079.08q18 0 47.5 14.5q29.5 14.499 59.5 34.9971q30 20.499 56 41.998q26 21.498 37 36.4971q13 16 13 31.998q0 17.999 -17.5 21.999t-39.5 4q-33 0 -52.5 -5.5q-19.5 -5.49902 -32 -13.999q-12.5 -8.49902 -20 -18.499
q-7.5 -9.99902 -16.5 -18.999q-13 -13.999 -24 -24.498t-11 -12.499q0 2 -11.5 14.499t-27.5 27.498t-34 28.498q-18 13.5 -30 17.499q-18 6 -53 6q-23 0 -40.5 -4t-17.5 -21.999q0 -18.998 14 -37.9971t35 -35.998t45.5 -31.498t45 -24.998q20.5 -10.5 33.5 -16.499
q13 -6 11 -5q21 -8 30 -8z" />
    <glyph glyph-name="bullet" unicode="&#x2022;" horiz-adv-x="480" 
d="M110 563q0 27 10.5 51t28.5 41.5t41.5 27.5t49.5 10q27 0 50.5 -10t41 -28t28 -41.5t10.5 -50.5t-10 -50.5t-27.5 -41t-41.5 -28t-51 -10.5t-50.5 10t-41.5 28t-28 41.5t-10 50.5z" />
    <glyph glyph-name="exclamdown" unicode="&#xa1;" horiz-adv-x="504" 
d="M166 1264q0 28 6 43q6 14 17 22q9 6 26 8q8 1 16 1h17h17t16 -1q17 -2 26 -8q12 -8 18 -22q6 -15 6 -43v-1190q0 -28 -6 -43q-6 -14 -18 -22q-9 -6 -26 -8q-8 -1 -16 -1h-17h-17t-16 1q-17 2 -26 8q-11 8 -17 22q-6 15 -6 43v1190zM166 1493q0 34 24 58q24 25 58 25
q35 0 59 -25q24 -24 24 -58q0 -35 -24 -59t-59 -24q-34 0 -58 24t-24 59z" />
    <glyph glyph-name="cent" unicode="&#xa2;" 
d="M371 68q-22 15 -41.5 33t-37.5 38q-36 40 -62 91q-25 48 -40 108q-14 61 -14 123q0 88 18 177q10 45 25 85t37 75q43 72 114 117q70 45 174 45q22 0 42 -3q10 -1 19.5 -2t18.5 -3l32 111q4 12 6.5 21t4.5 16q4 12 12 17t19 2q6 -1 14.5 -3t19.5 -5q10 -3 17.5 -5.5
t12.5 -4.5q11 -5 14 -12t0 -20q-1 -13 -9 -37l-36 -124q7 -5 13.5 -10t13.5 -10t13 -10.5t13 -11.5q21 -21 28 -44q8 -27 8 -35q0 -13 -13 -14q-14 0 -31 7q-20 8 -38 18q-10 6 -17.5 12t-14.5 11l-206 -708q43 -27 92 -27q27 0 48 3q24 3 40 10q18 7 33 18q8 5 16 11.5
t16 14.5q5 5 13 10.5t18 11.5q11 6 21 10.5t20 8.5q22 8 36 8q15 0 15 -14q0 -9 -8 -36q-7 -23 -28 -44t-48 -40q-13 -9 -26.5 -16.5t-27.5 -14.5t-30 -11.5t-33 -8.5q-32 -7 -75 -7q-62 0 -119 18l-35 -121l-7 -21t-5 -16q-5 -13 -11 -17t-19 -2q-5 1 -12.5 3t-17.5 5
t-18 5t-13 4q-10 4 -14 11q-3 6 -1 20q2 7 4 16t6 21zM342 461q0 -70 18 -136q18 -65 50 -119l194 675q-14 2 -29 3.5t-31 1.5q-54 0 -93 -40q-38 -41 -62 -102t-36 -137q-5 -38 -8 -74.5t-3 -71.5z" />
    <glyph glyph-name="sterling" unicode="&#xa3;" 
d="M162 0q-17 0 -20 10t-3 38q0 27 3 38q3 10 20 10q33 0 60 29q26 29 48 71q22 44 35 86q16 46 23 73q13 46 21.5 91t13.5 91t8.5 91t4.5 91h-114q-13 0 -24.5 0.5t-22.5 0.5q-28 0 -41 3t-19 9q-5 7 -5 15v21v21q0 8 5 15q6 6 19 9t41 3h159q-1 90 -6 176q-2 43 -3 86
t-1 86q0 78 14 154q15 74 50 132q34 56 95 91t150 35q10 0 19 -0.5t19 -1.5q16 -2 36 -6q10 -2 20 -5t20 -8q18 -9 30 -21q12 -10 19 -23q7 -11 9 -21q2 -11 -1 -15q-7 -13 -19 -13q-5 1 -11.5 2.5t-13.5 4.5t-14 6.5l-15 7.5q-15 8 -26 11q-20 5 -32 6q-7 1 -12 1.5
t-10 0.5q-13 0 -18 -1q-38 0 -69 -29q-30 -29 -51 -79q-10 -25 -18 -54.5t-13 -63.5t-8 -70t-3 -75q0 -42 1.5 -81.5t3.5 -78.5q2 -38 4 -77t3 -77h168q27 0 41 -3q13 -3 21 -9q6 -5 8 -15q1 -5 1 -10v-11v-11t-1 -10q-2 -10 -8 -15q-8 -6 -21 -9q-14 -3 -41 -3h-48t-41 -1
h-78q-1 -20 -1.5 -42.5t-2.5 -48.5q-1 -26 -3.5 -53.5t-6.5 -56.5t-8.5 -58.5t-11.5 -60.5q-6 -31 -14 -60t-18 -57t-22.5 -54t-26.5 -51q-29 -49 -67 -81h265h227q27 0 41 -3q13 -1 21 -8q6 -4 8 -14q1 -5 1 -10.5v-12.5v-12.5t-1 -10.5q-2 -10 -8 -15q-9 -5 -21 -8
q-7 -1 -17 -1.5t-24 -0.5h-270h-148h-254z" />
    <glyph glyph-name="yen" unicode="&#xa5;" 
d="M443 864l-250 599q-5 13 -9.5 22.5t-6.5 16.5q-5 14 0 23q5 10 17 15q7 4 16 8.5t22 9.5q12 5 21.5 8.5t16.5 5.5q15 5 23 1q9 -3 15 -16q4 -7 8.5 -16t9.5 -22l197 -474l195 473q5 13 9 22t8 16q7 12 16 17q8 4 23 -1q7 -2 16.5 -5.5t21.5 -8.5q13 -5 22 -9.5t16 -8.5
q12 -5 17 -15q4 -8 -1 -24q-5 -14 -15 -39l-252 -598v-790v-24.5t-1 -18.5q-1 -14 -9 -22q-7 -7 -23 -8q-8 -1 -19.5 -1h-25.5h-25.5t-19.5 1q-18 2 -24 8t-8 22q-1 8 -1 18.5v24.5v790zM770 943q-58 -1 -108.5 -1h-95.5q-45 1 -81.5 1h-67.5h-124q-27 0 -40 3t-19 9
q-5 7 -5 15v21v21q0 8 5 15q6 6 19 9t40 3h477q27 0 41 -3q13 -3 21 -9q6 -5 8 -15q1 -5 1 -10v-11v-11t-1 -10q-2 -10 -8 -15q-8 -6 -21 -9q-14 -3 -41 -3zM770 769q-58 -1 -108.5 -1h-95.5q-45 1 -81.5 1h-67.5h-124q-27 0 -40 3t-19 9q-5 7 -5 15v21v21q0 8 5 15
q6 6 19 9t40 3h477q27 0 41 -3q13 -3 21 -9q6 -5 8 -15q1 -5 1 -10v-11v-11t-1 -10q-2 -10 -8 -15q-8 -6 -21 -9q-14 -3 -41 -3z" />
    <glyph glyph-name="onequarter" unicode="&#xbc;" horiz-adv-x="1134" 
d="M596 1544q9 29 21 30q15 2 33 -4q5 -2 8.5 -2.5t7.5 -2.5q7 -1 12 -8q4 -4 6 -14q1 -7 -2 -23l-248 -846q-5 -14 -9 -21q-5 -8 -12 -9q-6 -2 -14 0l-8 2t-9 3q-5 1 -9.5 2t-8.5 2q-7 3 -12 8q-3 4 -5 14q-2 9 3 23zM658 977q2 13 4.5 25t4.5 24q2 13 4 25.5t4 25.5
q4 25 6 55q1 14 1.5 30.5t0.5 33.5q0 25 13 29q15 5 36 5q18 0 33 -5q14 -5 14 -29q0 -17 -0.5 -33.5t-1.5 -30.5t-1.5 -27t-2.5 -26q-2 -12 -3.5 -23.5t-3.5 -22.5t-4 -21t-4 -21q-4 -13 -8 -13h161v218q0 25 13 29q15 5 35 5q18 0 33 -5q14 -5 14 -29v-520q0 -24 -14 -29
q-12 -4 -33 -4q-22 0 -34 4q-14 5 -14 29v256h-202q-20 0 -29 6q-10 8 -14 15h1q-11 13 -9 24zM230 1543q3 18 13 25q11 8 33 8h9q46 0 46 -34v-520q0 -24 -14 -29q-12 -4 -34 -4q-23 0 -35 4q-14 5 -14 29v410l-10 -4t-12 -4q-6 -2 -12.5 -4.5t-13.5 -4.5h1q-17 -6 -27 -9
q-9 -3 -15 -3q-5 2 -8 6q-1 2 -2 6t-3 9q-2 4 -2.5 7t-1.5 5q0 4 2 8q4 4 10 5q10 4 22 8l17.5 7t12.5 6q12 7 19 16q6 7 11 22q2 7 4 15.5t4 19.5z" />
    <glyph glyph-name="onehalf" unicode="&#xbd;" horiz-adv-x="1134" 
d="M612 1544q9 29 21 30q15 2 33 -4q5 -2 8.5 -2.5t7.5 -2.5q7 -1 12 -8q4 -4 6 -14q2 -8 -3 -23l-247 -846q-5 -15 -10 -21q-5 -8 -12 -9q-6 -2 -14 0l-8 2t-9 3q-10 3 -17 5.5t-12 6.5q-11 8 -2 37zM234 1543q3 18 13 25q11 8 33 8h9q46 0 46 -34v-520q0 -24 -14 -29
q-12 -4 -34 -4q-23 0 -35 4q-14 5 -14 29v410l-10 -4t-12 -4q-6 -2 -12.5 -4.5t-13.5 -4.5h1q-17 -6 -27 -9q-9 -3 -15 -3q-5 2 -8 6q-1 2 -2 6t-3 9q-2 4 -2.5 7t-1.5 5q0 4 2 8q4 4 10 5q10 4 22 8l17.5 7t12.5 6q12 7 19 16q6 7 11 22q2 7 4 15.5t4 19.5zM750 694l-5 -4
h213q8 0 14.5 -0.5t11.5 -1.5q9 -2 13 -4q5 -3 5 -8q1 -3 1 -9q0 -8 -1 -11q0 -4 -5 -7q-6 -4 -13 -5q-5 -1 -11.5 -1h-14.5h-264q-22 0 -29 6l-7 7t-6 7q-8 13 -7 23q3 11 13 25h-1l149 232v-1q29 50 43 88q13 36 13 66q0 31 -7 46q-6 18 -16 26q-11 10 -21 11q-11 3 -20 3
q-19 0 -34 -4q-8 -2 -16 -3.5t-15 -4.5l-11 -5h1q-2 -1 -4.5 -2t-4.5 -2t-14 -1q-8 0 -18 3q-9 3 -9 11q0 6 8 16q7 10 24 18q18 10 39 14q24 6 54 6q39 0 66 -10q31 -9 50 -27q21 -17 32 -40q11 -24 11 -50v-5v-9t-1 -12q0 -11 -5 -33q-4 -18 -17 -47q-11 -28 -32 -61
q-18 -29 -37.5 -58.5t-39.5 -61.5q-41 -62 -75 -120z" />
    <glyph glyph-name="threequarters" unicode="&#xbe;" horiz-adv-x="1134" 
d="M646 1544q9 29 21 30q15 2 33 -4q5 -2 8.5 -2.5t7.5 -2.5q6 -1 11 -8q4 -4 6 -14t-2 -23l-247 -846q-5 -15 -10 -21q-5 -8 -12 -9q-6 -2 -14 0l-8 2t-9 3q-10 3 -17 5.5t-12 6.5q-11 8 -2 37zM680 977q2 13 5 25t5 24q2 13 4 25.5t4 25.5q4 25 6 55q1 14 1.5 30.5
t0.5 33.5q0 25 13 29q15 5 36 5q18 0 33 -5q14 -5 14 -29q0 -19 -0.5 -36t-1.5 -33q-1 -15 -1.5 -29t-2.5 -27q-3 -26 -9 -48q-4 -20 -14 -45h161v218q0 25 13 29q15 5 35 5q17 0 32 -5q14 -5 14 -29v-520q0 -24 -14 -29q-12 -4 -32 -4q-22 0 -34 4q-14 5 -14 29v256h-202
q-21 0 -30 6l-7.5 7.5t-5.5 7.5q-3 3 -4.5 6t-3.5 5q-2 8 -1 13zM232 1034q33 0 56 12t36 31q14 20 18 43q6 25 6 50q0 30 -12 54q-12 26 -31 42q-18 17 -40 28q-21 10 -41 10q-33 0 -39 6q-5 7 -5 17t5 17q6 6 39 6q16 0 27 7q7 4 12.5 9t10.5 11q11 14 15 29q6 16 6 34
q0 17 -4 32q-2 14 -11 29q-7 12 -18 20t-26 8q-13 0 -22 -4l-10 -4l-10 -4t-10.5 -4t-10.5 -4q-11 -3 -22 -3q-6 0 -16 3t-10 11t6 17q6 11 19 18q14 9 34 15q22 6 52 6q42 0 69 -13q28 -14 48 -33q18 -18 28 -44q9 -24 9 -46q0 -27 -18 -57q-16 -30 -55 -53q55 -14 90 -55
q37 -40 37 -105q0 -33 -9 -64q-9 -33 -33 -58q-25 -27 -65 -43q-39 -16 -105 -16q-16 0 -29.5 1.5t-25.5 3.5q-11 3 -21 6.5t-18 7.5q-16 7 -24 17q-8 11 -8 18q0 6 10 10q9 4 16 4q14 0 23 -4l12 -4l12 -4l12 -4t13 -4q13 -3 28 -3z" />
    <glyph glyph-name="questiondown" unicode="&#xbf;" horiz-adv-x="731" 
d="M515 302q0 28 6 43q5 15 17 23q10 6 27 8q8 1 16 1h17h17t16 -1q17 -2 26 -8q12 -8 17 -23q6 -15 6 -43q0 -67 -27 -122q-26 -54 -72 -95q-45 -40 -104 -63q-57 -22 -123 -22t-127 23q-59 23 -104 63q-46 41 -71 96q-26 57 -26 120q0 15 1 29t3 27q4 27 12 54q4 14 9 29
t10 31q6 17 13 35.5t15 40.5q29 76 50.5 133.5t35.5 97.5q15 40 23 63t10 28q26 90 42 176q17 89 21 179q1 14 2 24.5t4 18.5q5 15 17 23q9 6 26 8q8 1 16 1h17h17t16 -1q17 -2 26 -8q12 -8 18 -23q3 -8 5 -18.5t1 -24.5q-2 -43 -7 -86t-13 -86t-17.5 -86.5t-22.5 -88.5
q-4 -12 -13.5 -39t-24.5 -69q-14 -42 -34.5 -99.5t-46.5 -130.5q-8 -23 -15 -42t-13 -36q-12 -33 -21 -60q-8 -27 -12 -51q-2 -11 -3 -23.5t-1 -25.5q0 -48 12 -88q7 -20 15.5 -38.5t19.5 -34.5q22 -31 51 -49q30 -18 64 -18t63 18t51 49q21 30 34 73q13 39 13 88zM437 1493
q0 -35 -24 -59t-59 -24t-59 24t-24 59q0 34 24 58q24 25 59 25t59 -25q24 -24 24 -58z" />
    <glyph glyph-name="Agrave" unicode="&#xc0;" horiz-adv-x="1102" 
d="M1172 189q-28 -46 -53.5 -81.5t-54 -59.5t-63.5 -36t-81 -12q-30 0 -52 9.5t-38.5 25t-27.5 34.5t-18 38q-21 -26 -53 -46t-71 -33.5t-82.5 -20.5t-87.5 -7q-242 0 -366 200.5t-124 586.5q0 163 40.5 306.5t119.5 251t195.5 169.5t267.5 62q107 0 171.5 -20.5t96.5 -70.5
q10 -14 10 -27q0 -10 -7.5 -15t-13.5 -6q-19 0 -38.5 12.5t-41.5 20.5q-39 16 -78.5 23.5t-98.5 7.5q-75 0 -138 -29t-114 -80t-89.5 -119.5t-64 -148t-38.5 -165.5t-13 -172q0 -79 7.5 -162.5t23 -163t41 -149.5t61.5 -123t83.5 -84t107.5 -31q62 0 108 24.5t76 60.5
t45 78.5t15 78.5v930q0 28 6 43t17 22t26 8t34 1q18 0 33 -1t26.5 -8t17.5 -22t6 -43v-974q0 -30 3.5 -64.5t9.5 -64.5t15 -49.5t20 -19.5q16 0 36 15.5t40.5 40.5t40.5 55t37 59q5 9 9.5 17.5t9.5 16.5l11 20q4 8 16 8q10 0 21 -4.5t20.5 -11.5t16 -15t6.5 -15q0 -2 -1 -6
t-12 -21q-7 -11 -13.5 -22t-13.5 -22zM737 1650q2 -6 2 -8q0 -5 -5 -10t-12.5 -8.5t-16.5 -5.5t-16 -2q-13 0 -35.5 9t-48 24.5t-50.5 36t-42 42.5q-6 7 -12.5 19t-12 25.5t-9 27.5t-3.5 27q0 12 5.5 25t15.5 23.5t23 17.5t28 7q16 0 29 -7.5t22.5 -19t15 -26.5t5.5 -30
q0 -8 -1.5 -13t-1.5 -13q0 -18 12 -45t51 -51q17 -11 33.5 -22.5t23.5 -22.5z" />
    <glyph glyph-name="Atilde" unicode="&#xc3;" horiz-adv-x="1102" 
d="M1172 189q-28 -46 -53.5 -81.5t-54 -59.5t-63.5 -36t-81 -12q-30 0 -52 9.5t-38.5 25t-27.5 34.5t-18 38q-21 -26 -53 -46t-71 -33.5t-82.5 -20.5t-87.5 -7q-242 0 -366 200.5t-124 586.5q0 163 40.5 306.5t119.5 251t195.5 169.5t267.5 62q107 0 171.5 -20.5t96.5 -70.5
q10 -14 10 -27q0 -10 -7.5 -15t-13.5 -6q-19 0 -38.5 12.5t-41.5 20.5q-39 16 -78.5 23.5t-98.5 7.5q-75 0 -138 -29t-114 -80t-89.5 -119.5t-64 -148t-38.5 -165.5t-13 -172q0 -79 7.5 -162.5t23 -163t41 -149.5t61.5 -123t83.5 -84t107.5 -31q62 0 108 24.5t76 60.5
t45 78.5t15 78.5v930q0 28 6 43t17 22t26 8t34 1q18 0 33 -1t26.5 -8t17.5 -22t6 -43v-974q0 -30 3.5 -64.5t9.5 -64.5t15 -49.5t20 -19.5q16 0 36 15.5t40.5 40.5t40.5 55t37 59q5 9 9.5 17.5t9.5 16.5l11 20q4 8 16 8q10 0 21 -4.5t20.5 -11.5t16 -15t6.5 -15q0 -2 -1 -6
t-12 -21q-7 -11 -13.5 -22t-13.5 -22zM614 1738q-9 5 -17 8.5t-16 5.5t-14.5 4t-13.5 3q-12 3 -24 3h-24q-19 0 -37 -5q-17 -5 -30 -12q-7 -4 -13 -7.5t-13 -7.5t-14 -7.5t-15 -6.5q-15 -6 -26 5q-10 11 -11 30q-1 10 1 21t6 23q8 23 29 47q35 38 73 47q39 10 85 10
q22 0 46 -10q13 -5 27 -11.5t31 -14.5q19 -10 34 -14q8 -2 14.5 -4t12.5 -4q7 -1 13 -1.5t12 -0.5h24q19 0 37 5q15 4 29 12q7 4 13.5 7t13.5 7t14 7.5t15 6.5q16 6 25 -5q9 -9 11 -30q2 -20 -7 -44q-4 -13 -11 -24.5t-17 -22.5q-17 -20 -36 -30q-19 -11 -38 -17
q-21 -7 -41 -8q-11 -1 -21.5 -1h-21.5q-22 0 -47 9q-13 5 -27.5 12t-30.5 15z" />
    <glyph glyph-name="Aring" unicode="&#xc5;" horiz-adv-x="1102" 
d="M1172 189q-28 -46 -53.5 -81.5t-54 -59.5t-63.5 -36t-81 -12q-30 0 -52 9.5t-38.5 25t-27.5 34.5t-18 38q-21 -26 -53 -46t-71 -33.5t-82.5 -20.5t-87.5 -7q-242 0 -366 200.5t-124 586.5q0 163 40.5 306.5t119.5 251t195.5 169.5t267.5 62q107 0 171.5 -20.5t96.5 -70.5
q10 -14 10 -27q0 -10 -7.5 -15t-13.5 -6q-19 0 -38.5 12.5t-41.5 20.5q-39 16 -78.5 23.5t-98.5 7.5q-75 0 -138 -29t-114 -80t-89.5 -119.5t-64 -148t-38.5 -165.5t-13 -172q0 -79 7.5 -162.5t23 -163t41 -149.5t61.5 -123t83.5 -84t107.5 -31q62 0 108 24.5t76 60.5
t45 78.5t15 78.5v930q0 28 6 43t17 22t26 8t34 1q18 0 33 -1t26.5 -8t17.5 -22t6 -43v-974q0 -30 3.5 -64.5t9.5 -64.5t15 -49.5t20 -19.5q16 0 36 15.5t40.5 40.5t40.5 55t37 59q5 9 9.5 17.5t9.5 16.5l11 20q4 8 16 8q10 0 21 -4.5t20.5 -11.5t16 -15t6.5 -15q0 -2 -1 -6
t-12 -21q-7 -11 -13.5 -22t-13.5 -22zM560 1677q0 -30 19 -49q20 -20 49 -20q28 0 48 20t20 49q0 28 -20 48t-48 20q-29 0 -49 -20q-19 -19 -19 -48zM476 1677q0 30 12 59q12 28 32 48q19 21 47 33t60 12q30 0 59 -12q28 -12 48 -33q21 -20 33 -48q12 -29 12 -59
q0 -32 -12 -60t-33 -47q-20 -20 -48 -32q-29 -12 -59 -12q-32 0 -60 12q-27 12 -47 32t-32 47q-12 28 -12 60z" />
    <glyph glyph-name="Egrave" unicode="&#xc8;" horiz-adv-x="917" 
d="M1061 189q-70 -99 -163.5 -144t-208.5 -45q-146 0 -248 37.5t-166 102t-93 152t-29 188.5q0 65 19.5 130.5t57.5 123.5t95 104.5t132 74.5q-57 28 -98 63.5t-66.5 75.5t-37.5 82.5t-12 84.5q0 58 21 121t65.5 115.5t113 86.5t163.5 34q107 0 171.5 -20.5t96.5 -70.5
q10 -14 10 -27q0 -10 -7.5 -15t-13.5 -6q-18 0 -38.5 12.5t-41.5 20.5q-18 7 -31.5 13t-29 10t-37 6t-55.5 2q-50 0 -90.5 -24t-69.5 -62.5t-45 -87t-16 -97.5q0 -47 14 -95t41.5 -87t68 -63.5t94.5 -24.5q27 0 41.5 -3.5t21 -10t7.5 -15.5t1 -20t-1 -20t-7.5 -15.5t-21 -10
t-41.5 -3.5q-60 0 -116 -32.5t-98.5 -87t-68 -126t-25.5 -148.5q0 -68 16.5 -138t58 -127t113 -93t182.5 -36q63 0 111 15.5t84 39.5t62 54.5t45 60.5q5 9 9.5 17.5t9.5 16.5l11 20q4 8 16 8q10 0 21 -4.5t20.5 -11.5t16 -15t6.5 -15q0 -2 -1 -6t-12 -21q-7 -11 -13.5 -22
t-13.5 -22zM697 1650q2 -6 2 -8q0 -5 -5 -10t-12.5 -8.5t-16.5 -5.5t-16 -2q-13 0 -35.5 9t-48 24.5t-50.5 36t-42 42.5q-6 7 -12.5 19t-12 25.5t-9 27.5t-3.5 27q0 12 5.5 25t15.5 23.5t23 17.5t28 7q16 0 29 -7.5t22.5 -19t15 -26.5t5.5 -30q0 -8 -1.5 -13t-1.5 -13
q0 -18 12 -45t51 -51q17 -11 33.5 -22.5t23.5 -22.5z" />
    <glyph glyph-name="Ecircumflex" unicode="&#xca;" horiz-adv-x="917" 
d="M1061 189q-70 -99 -163.5 -144t-208.5 -45q-146 0 -248 37.5t-166 102t-93 152t-29 188.5q0 65 19.5 130.5t57.5 123.5t95 104.5t132 74.5q-57 28 -98 63.5t-66.5 75.5t-37.5 82.5t-12 84.5q0 58 21 121t65.5 115.5t113 86.5t163.5 34q107 0 171.5 -20.5t96.5 -70.5
q10 -14 10 -27q0 -10 -7.5 -15t-13.5 -6q-18 0 -38.5 12.5t-41.5 20.5q-18 7 -31.5 13t-29 10t-37 6t-55.5 2q-50 0 -90.5 -24t-69.5 -62.5t-45 -87t-16 -97.5q0 -47 14 -95t41.5 -87t68 -63.5t94.5 -24.5q27 0 41.5 -3.5t21 -10t7.5 -15.5t1 -20t-1 -20t-7.5 -15.5t-21 -10
t-41.5 -3.5q-60 0 -116 -32.5t-98.5 -87t-68 -126t-25.5 -148.5q0 -68 16.5 -138t58 -127t113 -93t182.5 -36q63 0 111 15.5t84 39.5t62 54.5t45 60.5q5 9 9.5 17.5t9.5 16.5l11 20q4 8 16 8q10 0 21 -4.5t20.5 -11.5t16 -15t6.5 -15q0 -2 -1 -6t-12 -21q-7 -11 -13.5 -22
t-13.5 -22zM568 1899q18 0 47.5 -14.5t59.5 -35t56 -42t37 -36.5q13 -16 13 -32q0 -18 -17.5 -22t-39.5 -4q-33 0 -52.5 5.5t-32 14t-20 18.5t-16.5 19q-13 14 -24 24.5t-11 12.5q0 -2 -11.5 -14.5t-27.5 -27.5t-34 -28.5t-30 -17.5q-18 -6 -53 -6q-23 0 -40.5 4t-17.5 22
q0 19 14 38t35 36t45.5 31.5t45 25t33.5 16.5t11 5q21 8 30 8z" />
    <glyph glyph-name="Igrave" unicode="&#xcc;" horiz-adv-x="401" 
d="M283 107q0 -12 0.5 -18t5 -9t15.5 -4.5t31 -3.5q24 -2 45 -14.5t21 -29.5q0 -9 -3 -14.5t-22 -8.5t-60 -4t-116 -1t-115.5 0.5t-59.5 3.5t-22 8.5t-3 15.5q0 18 14.5 27t31.5 13.5t31 5t13 0.5q22 0 25 9.5t3 23.5v1362q0 16 -1.5 21t-10 6.5t-25 3.5t-46.5 11
q-14 4 -24.5 13t-10.5 24q0 10 3 16t22 8.5t59.5 3t115.5 0.5t116 -0.5t60 -3t22 -8.5t3 -16q0 -14 -11 -23t-25.5 -14.5t-29.5 -7.5t-24 -2q-20 0 -24 -7.5t-4 -24.5v-1362zM328 1650q2 -6 2 -8q0 -5 -5 -10t-12.5 -8.5t-16.5 -5.5t-16 -2q-13 0 -35.5 9t-48 24.5t-50.5 36
t-42 42.5q-6 7 -12.5 19t-12 25.5t-9 27.5t-3.5 27q0 12 5.5 25t15.5 23.5t23 17.5t28 7q16 0 29 -7.5t22.5 -19t15 -26.5t5.5 -30q0 -8 -1.5 -13t-1.5 -13q0 -18 12 -45t51 -51q17 -11 33.5 -22.5t23.5 -22.5z" />
    <glyph glyph-name="Idieresis" unicode="&#xcf;" horiz-adv-x="401" 
d="M6 1824q0 37 26 63q27 27 64 27q38 0 64 -27q26 -26 26 -63q0 -36 -26 -64q-26 -26 -64 -26q-36 0 -64 26q-26 28 -26 64zM193 1824q0 37 26 63q27 27 64 27q38 0 64 -27q26 -26 26 -63q0 -36 -26 -64q-26 -26 -64 -26q-36 0 -64 26q-26 28 -26 64zM283 107
q0 -12 0.5 -18t5 -9t15.5 -4.5t31 -3.5q24 -2 45 -14.5t21 -29.5q0 -9 -3 -14.5t-22 -8.5t-60 -4t-116 -1t-115.5 0.5t-59.5 3.5t-22 8.5t-3 15.5q0 18 14.5 27t31.5 13.5t31 5t13 0.5q22 0 25 9.5t3 23.5v1362q0 16 -1.5 21t-10 6.5t-25 3.5t-46.5 11q-14 4 -24.5 13
t-10.5 24q0 10 3 16t22 8.5t59.5 3t115.5 0.5t116 -0.5t60 -3t22 -8.5t3 -16q0 -14 -11 -23t-25.5 -14.5t-29.5 -7.5t-24 -2q-20 0 -24 -7.5t-4 -24.5v-1362z" />
    <glyph glyph-name="Ntilde" unicode="&#xd1;" horiz-adv-x="1249" 
d="M1319 189q-30 -51 -58.5 -86.5t-59 -58.5t-63.5 -33.5t-72 -10.5q-34 0 -69 16.5t-63.5 49t-46.5 80.5t-18 112v892q0 29 -3.5 66.5t-10.5 76.5t-19 76.5t-29 66.5t-40 47t-53 18h1q-39 0 -68.5 -32t-48.5 -83t-28.5 -113.5t-9.5 -122.5v-1074q0 -29 -6 -44t-17 -22.5
t-26.5 -8.5t-34.5 -1t-34 1t-25.5 8t-16.5 22.5t-6 43.5v1075q0 8 -0.5 37.5t-4.5 68.5t-12.5 82t-24 79.5t-39.5 60t-59 23.5q-29 0 -51 -1.5t-42.5 -6.5t-41 -13.5t-45.5 -23.5q-14 -8 -27.5 -13.5t-26.5 -5.5q-5 1 -12.5 6t-7.5 15q0 18 16 37t42 35t59 27.5t68 15.5
q28 3 69 3q45 0 79.5 -10t60.5 -29.5t46 -48t37 -65.5q17 43 43 72t57.5 47t66.5 26t71 8q27 0 62 -6.5t71 -23.5t69.5 -46.5t57.5 -76.5q17 -33 28.5 -63.5t18.5 -62.5t10 -68t3 -79v-878q0 -30 2 -64.5t8 -64t18 -49.5t32 -20q16 0 36 16t41 41t41 55t36 58q5 9 9.5 17.5
t9.5 16.5l11 20q4 8 16 8q10 0 21 -4.5t20.5 -11.5t16 -15t6.5 -15q0 -2 -1 -6t-12 -21q-7 -11 -13.5 -22t-13.5 -22zM650 1648q-9 5 -17 8.5t-16 5.5t-14.5 4t-13.5 3q-12 3 -24 3h-24q-19 0 -37 -5q-17 -5 -30 -12q-7 -4 -13 -7.5t-13 -7.5t-14 -7.5t-15 -6.5
q-15 -6 -26 5q-10 11 -11 30q-1 10 1 21t6 23q8 23 29 47q35 38 73 47q39 10 85 10q22 0 46 -10q13 -5 27 -11.5t31 -14.5q19 -10 34 -14q8 -2 14.5 -4t12.5 -4q7 -1 13 -1.5t12 -0.5h24q19 0 37 5q15 4 29 12q7 4 13.5 7t13.5 7t14 7.5t15 6.5q16 6 25 -5q9 -9 11 -30
q2 -20 -7 -44q-4 -13 -11 -24.5t-17 -22.5q-17 -20 -36 -30q-19 -11 -38 -17q-21 -7 -41 -8q-11 -1 -21.5 -1h-21.5q-22 0 -47 9q-13 5 -27.5 12t-30.5 15z" />
    <glyph glyph-name="Ograve" unicode="&#xd2;" horiz-adv-x="1068" 
d="M1138 189q-14 -24 -42.5 -34t-62.5 -10q-14 0 -35 3.5t-45 10t-49 16.5t-47 24q-68 -93 -155 -146t-186 -53q-72 0 -138.5 29t-124 81t-104 125t-80 160.5t-51.5 187.5t-18 207q0 110 19 211t53 188.5t81.5 158.5t105 122t122.5 78.5t135 27.5q103 0 172.5 -20t95.5 -71
q10 -14 10 -27q0 -10 -7.5 -15t-13.5 -6q-19 0 -39 12.5t-40 20.5q-19 7 -36 13t-36 10t-41.5 6t-52.5 2q-59 0 -108.5 -27t-90 -75t-71 -114.5t-51 -146t-31 -169t-10.5 -182.5q0 -85 12 -171t34 -165t53 -148t70 -120t84.5 -80t96.5 -29q55 0 102.5 32.5t86.5 87t69 126.5
t50.5 151t31 160.5t10.5 155.5q0 118 -15 205.5t-40.5 149.5t-59 102t-70 64.5t-74 35.5t-71.5 16q-17 2 -34.5 7.5t-17.5 15.5q0 6 12 18t48 12q37 0 87.5 -11.5t103 -35.5t100.5 -60t81 -84q25 -38 46.5 -85t37 -102.5t24 -117t8.5 -127.5q0 -161 -40 -302.5t-109 -250.5
q11 -7 27.5 -13t33.5 -10.5t32 -7.5t22 -3q29 -1 44 11.5t26 29.5q5 9 9.5 17.5t9.5 16.5l11 20q4 8 16 8q10 0 21 -4.5t20.5 -11.5t16 -15t6.5 -15q0 -2 -1 -6t-12 -21q-7 -11 -13.5 -22t-13.5 -22zM648 1650q2 -6 2 -8q0 -5 -5 -10t-12.5 -8.5t-16.5 -5.5t-16 -2
q-13 0 -35.5 9t-48 24.5t-50.5 36t-42 42.5q-6 7 -12.5 19t-12 25.5t-9 27.5t-3.5 27q0 12 5.5 25t15.5 23.5t23 17.5t28 7q16 0 29 -7.5t22.5 -19t15 -26.5t5.5 -30q0 -8 -1.5 -13t-1.5 -13q0 -18 12 -45t51 -51q17 -11 33.5 -22.5t23.5 -22.5z" />
    <glyph glyph-name="Otilde" unicode="&#xd5;" horiz-adv-x="1068" 
d="M1138 189q-14 -24 -42.5 -34t-62.5 -10q-14 0 -35 3.5t-45 10t-49 16.5t-47 24q-68 -93 -155 -146t-186 -53q-72 0 -138.5 29t-124 81t-104 125t-80 160.5t-51.5 187.5t-18 207q0 110 19 211t53 188.5t81.5 158.5t105 122t122.5 78.5t135 27.5q103 0 172.5 -20t95.5 -71
q10 -14 10 -27q0 -10 -7.5 -15t-13.5 -6q-19 0 -39 12.5t-40 20.5q-19 7 -36 13t-36 10t-41.5 6t-52.5 2q-59 0 -108.5 -27t-90 -75t-71 -114.5t-51 -146t-31 -169t-10.5 -182.5q0 -85 12 -171t34 -165t53 -148t70 -120t84.5 -80t96.5 -29q55 0 102.5 32.5t86.5 87t69 126.5
t50.5 151t31 160.5t10.5 155.5q0 118 -15 205.5t-40.5 149.5t-59 102t-70 64.5t-74 35.5t-71.5 16q-17 2 -34.5 7.5t-17.5 15.5q0 6 12 18t48 12q37 0 87.5 -11.5t103 -35.5t100.5 -60t81 -84q25 -38 46.5 -85t37 -102.5t24 -117t8.5 -127.5q0 -161 -40 -302.5t-109 -250.5
q11 -7 27.5 -13t33.5 -10.5t32 -7.5t22 -3q29 -1 44 11.5t26 29.5q5 9 9.5 17.5t9.5 16.5l11 20q4 8 16 8q10 0 21 -4.5t20.5 -11.5t16 -15t6.5 -15q0 -2 -1 -6t-12 -21q-7 -11 -13.5 -22t-13.5 -22zM502 1739q-9 5 -17 8.5t-16 5.5t-14.5 4t-13.5 3q-12 3 -24 3h-24
q-19 0 -37 -5q-17 -5 -30 -12q-7 -4 -13 -7.5t-13 -7.5t-14 -7.5t-15 -6.5q-15 -6 -26 5q-10 11 -11 30q-1 10 1 21t6 23q8 23 29 47q35 38 73 47q39 10 85 10q22 0 46 -10q13 -5 27 -11.5t31 -14.5q19 -10 34 -14q8 -2 14.5 -4t12.5 -4q7 -1 13 -1.5t12 -0.5h24q19 0 37 5
q15 4 29 12q7 4 13.5 7t13.5 7t14 7.5t15 6.5q16 6 25 -5q9 -9 11 -30q2 -20 -7 -44q-4 -13 -11 -24.5t-17 -22.5q-17 -20 -36 -30q-19 -11 -38 -17q-21 -7 -41 -8q-11 -1 -21.5 -1h-21.5q-22 0 -47 9q-13 5 -27.5 12t-30.5 15z" />
    <glyph glyph-name="Oslash" unicode="&#xd8;" horiz-adv-x="1068" 
d="M674 1612q10 34 22.5 46t30.5 12q30 0 51 -7.5t34.5 -18.5t19.5 -22.5t6 -20.5q0 -8 -1 -16t-4 -19l-467 -1602q-9 -32 -22 -45.5t-32 -13.5q-13 0 -28.5 4t-30 9t-26 11t-15.5 11q-10 13 -10 32q0 15 6 38zM1138 189q-14 -24 -42.5 -34t-62.5 -10q-14 0 -35 3.5t-45 10
t-49 16.5t-47 24q-68 -93 -155 -146t-186 -53q-72 0 -138.5 29t-124 81t-104 125t-80 160.5t-51.5 187.5t-18 207q0 110 19 211t53 188.5t81.5 158.5t105 122t122.5 78.5t135 27.5q103 0 172.5 -20t95.5 -71q10 -14 10 -27q0 -10 -7.5 -15t-13.5 -6q-19 0 -39 12.5t-40 20.5
q-19 7 -36 13t-36 10t-41.5 6t-52.5 2q-59 0 -108.5 -27t-90 -75t-71 -114.5t-51 -146t-31 -169t-10.5 -182.5q0 -85 12 -171t34 -165t53 -148t70 -120t84.5 -80t96.5 -29q55 0 102.5 32.5t86.5 87t69 126.5t50.5 151t31 160.5t10.5 155.5q0 118 -15 205.5t-40.5 149.5
t-59 102t-70 64.5t-74 35.5t-71.5 16q-17 2 -34.5 7.5t-17.5 15.5q0 6 12 18t48 12q37 0 87.5 -11.5t103 -35.5t100.5 -60t81 -84q25 -38 46.5 -85t37 -102.5t24 -117t8.5 -127.5q0 -161 -40 -302.5t-109 -250.5q11 -7 27.5 -13t33.5 -10.5t32 -7.5t22 -3q29 -1 44 11.5
t26 29.5q5 9 9.5 17.5t9.5 16.5l11 20q4 8 16 8q10 0 21 -4.5t20.5 -11.5t16 -15t6.5 -15q0 -2 -1 -6t-12 -21q-7 -11 -13.5 -22t-13.5 -22z" />
    <glyph glyph-name="Ugrave" unicode="&#xd9;" horiz-adv-x="1100" 
d="M1170 189q-28 -46 -53 -81.5t-53.5 -59.5t-63 -36t-80.5 -12q-31 0 -53.5 8.5t-38.5 22t-26.5 30.5t-17.5 34q-21 -25 -43.5 -43t-55.5 -29.5t-79.5 -17t-115.5 -5.5q-242 0 -366 200.5t-124 586.5v714q0 30 7 45.5t18.5 22t26.5 7t31 0.5q18 0 33.5 -1t26.5 -8t17 -22.5
t6 -43.5v-714q0 -79 7.5 -162.5t23 -163t41 -149.5t61.5 -123t83.5 -84t107.5 -31q62 0 108 24.5t76 60.5t45 78.5t15 78.5v1185q0 30 7 45.5t18.5 22t26.5 7t31 0.5q18 0 33.5 -1t26.5 -8t17 -22.5t6 -43.5v-1229q0 -30 3.5 -64.5t9.5 -64.5t15 -49.5t20 -19.5
q16 0 35.5 15.5t40 40.5t40 55t36.5 59q5 9 9.5 17.5t9.5 16.5l11 20q4 8 16 8q10 0 21 -4.5t20.5 -11.5t16 -15t6.5 -15q0 -2 -1 -6t-12 -21q-7 -11 -13.5 -22t-13.5 -22zM589 1650q2 -6 2 -8q0 -5 -5 -10t-12.5 -8.5t-16.5 -5.5t-16 -2q-13 0 -35.5 9t-48 24.5t-50.5 36
t-42 42.5q-6 7 -12.5 19t-12 25.5t-9 27.5t-3.5 27q0 12 5.5 25t15.5 23.5t23 17.5t28 7q16 0 29 -7.5t22.5 -19t15 -26.5t5.5 -30q0 -8 -1.5 -13t-1.5 -13q0 -18 12 -45t51 -51q17 -11 33.5 -22.5t23.5 -22.5z" />
    <glyph glyph-name="Ucircumflex" unicode="&#xdb;" horiz-adv-x="1100" 
d="M1170 189q-28 -46 -53 -81.5t-53.5 -59.5t-63 -36t-80.5 -12q-31 0 -53.5 8.5t-38.5 22t-26.5 30.5t-17.5 34q-21 -25 -43.5 -43t-55.5 -29.5t-79.5 -17t-115.5 -5.5q-242 0 -366 200.5t-124 586.5v714q0 30 7 45.5t18.5 22t26.5 7t31 0.5q18 0 33.5 -1t26.5 -8t17 -22.5
t6 -43.5v-714q0 -79 7.5 -162.5t23 -163t41 -149.5t61.5 -123t83.5 -84t107.5 -31q62 0 108 24.5t76 60.5t45 78.5t15 78.5v1185q0 30 7 45.5t18.5 22t26.5 7t31 0.5q18 0 33.5 -1t26.5 -8t17 -22.5t6 -43.5v-1229q0 -30 3.5 -64.5t9.5 -64.5t15 -49.5t20 -19.5
q16 0 35.5 15.5t40 40.5t40 55t36.5 59q5 9 9.5 17.5t9.5 16.5l11 20q4 8 16 8q10 0 21 -4.5t20.5 -11.5t16 -15t6.5 -15q0 -2 -1 -6t-12 -21q-7 -11 -13.5 -22t-13.5 -22zM465 1899q18 0 47.5 -14.5t59.5 -35t56 -42t37 -36.5q13 -16 13 -32q0 -18 -17.5 -22t-39.5 -4
q-33 0 -52.5 5.5t-32 14t-20 18.5t-16.5 19q-13 14 -24 24.5t-11 12.5q0 -2 -11.5 -14.5t-27.5 -27.5t-34 -28.5t-30 -17.5q-18 -6 -53 -6q-23 0 -40.5 4t-17.5 22q0 19 14 38t35 36t45.5 31.5t45 25t33.5 16.5t11 5q21 8 30 8z" />
    <glyph glyph-name="agrave" unicode="&#xe0;" horiz-adv-x="911" 
d="M728 0q-31 0 -58.5 11.5t-49 29t-36.5 38t-22 37.5q-51 -57 -104.5 -86.5t-117.5 -29.5q-78 0 -141 42.5t-107 111t-68 154t-24 172.5q0 110 29 198.5t77 151t109 96.5t125 34q55 0 98 -20t76 -48q0 25 6 39t16.5 20.5t25.5 7.5t34 1t34.5 -1t26.5 -8t17 -22t6 -43v-614
q0 -29 3.5 -63.5t12.5 -64.5t23.5 -50t36.5 -20q16 0 36 15.5t41 40.5t41 55t37 59q5 9 9.5 17.5t9.5 16.5l11 20q4 8 16 8q10 0 21 -4.5t20.5 -11.5t16 -15t6.5 -15q0 -2 -1 -6t-12 -21q-7 -11 -13.5 -22t-13.5 -22q-29 -45 -54.5 -80.5t-54.5 -59.5t-63.5 -36.5
t-80.5 -12.5zM166 480q0 -82 13.5 -155.5t36.5 -129t55 -88.5t69 -33q36 0 68 32.5t55.5 88t37 129.5t13.5 156t-13.5 155.5t-37 129t-55.5 88.5t-68 33q-37 0 -68.5 -32.5t-55 -88t-37 -129.5t-13.5 -156zM503 1114q2 -6 2 -8q0 -5 -5 -10t-12.5 -8.5t-16.5 -5.5t-16 -2
q-13 0 -35.5 9t-48 24.5t-50.5 36t-42 42.5q-6 7 -12.5 19t-12 25.5t-9 27.5t-3.5 27q0 12 5.5 25t15.5 23.5t23 17.5t28 7q16 0 29 -7.5t22.5 -19t15 -26.5t5.5 -30q0 -8 -1.5 -13t-1.5 -13q0 -18 12 -45t51 -51q17 -11 33.5 -22.5t23.5 -22.5z" />
    <glyph glyph-name="atilde" unicode="&#xe3;" horiz-adv-x="911" 
d="M728 0q-31 0 -58.5 11.5t-49 29t-36.5 38t-22 37.5q-51 -57 -104.5 -86.5t-117.5 -29.5q-78 0 -141 42.5t-107 111t-68 154t-24 172.5q0 110 29 198.5t77 151t109 96.5t125 34q55 0 98 -20t76 -48q0 25 6 39t16.5 20.5t25.5 7.5t34 1t34.5 -1t26.5 -8t17 -22t6 -43v-614
q0 -29 3.5 -63.5t12.5 -64.5t23.5 -50t36.5 -20q16 0 36 15.5t41 40.5t41 55t37 59q5 9 9.5 17.5t9.5 16.5l11 20q4 8 16 8q10 0 21 -4.5t20.5 -11.5t16 -15t6.5 -15q0 -2 -1 -6t-12 -21q-7 -11 -13.5 -22t-13.5 -22q-29 -45 -54.5 -80.5t-54.5 -59.5t-63.5 -36.5
t-80.5 -12.5zM166 480q0 -82 13.5 -155.5t36.5 -129t55 -88.5t69 -33q36 0 68 32.5t55.5 88t37 129.5t13.5 156t-13.5 155.5t-37 129t-55.5 88.5t-68 33q-37 0 -68.5 -32.5t-55 -88t-37 -129.5t-13.5 -156zM363 1140q-9 5 -17 8.5t-16 5.5t-14.5 4t-13.5 3q-12 3 -24 3h-24
q-19 0 -37 -5q-17 -5 -30 -12q-7 -4 -13 -7.5t-13 -7.5t-14 -7.5t-15 -6.5q-15 -6 -26 5q-10 11 -11 30q-1 10 1 21t6 23q8 23 29 47q35 38 73 47q39 10 85 10q22 0 46 -10q13 -5 27 -11.5t31 -14.5q19 -10 34 -14q8 -2 14.5 -4t12.5 -4q7 -1 13 -1.5t12 -0.5h24q19 0 37 5
q15 4 29 12q7 4 13.5 7t13.5 7t14 7.5t15 6.5q16 6 25 -5q9 -9 11 -30q2 -20 -7 -44q-4 -13 -11 -24.5t-17 -22.5q-17 -20 -36 -30q-19 -11 -38 -17q-21 -7 -41 -8q-11 -1 -21.5 -1h-21.5q-22 0 -47 9q-13 5 -27.5 12t-30.5 15z" />
    <glyph glyph-name="aring" unicode="&#xe5;" horiz-adv-x="911" 
d="M728 0q-31 0 -58.5 11.5t-49 29t-36.5 38t-22 37.5q-51 -57 -104.5 -86.5t-117.5 -29.5q-78 0 -141 42.5t-107 111t-68 154t-24 172.5q0 110 29 198.5t77 151t109 96.5t125 34q55 0 98 -20t76 -48q0 25 6 39t16.5 20.5t25.5 7.5t34 1t34.5 -1t26.5 -8t17 -22t6 -43v-614
q0 -29 3.5 -63.5t12.5 -64.5t23.5 -50t36.5 -20q16 0 36 15.5t41 40.5t41 55t37 59q5 9 9.5 17.5t9.5 16.5l11 20q4 8 16 8q10 0 21 -4.5t20.5 -11.5t16 -15t6.5 -15q0 -2 -1 -6t-12 -21q-7 -11 -13.5 -22t-13.5 -22q-29 -45 -54.5 -80.5t-54.5 -59.5t-63.5 -36.5
t-80.5 -12.5zM166 480q0 -82 13.5 -155.5t36.5 -129t55 -88.5t69 -33q36 0 68 32.5t55.5 88t37 129.5t13.5 156t-13.5 155.5t-37 129t-55.5 88.5t-68 33q-37 0 -68.5 -32.5t-55 -88t-37 -129.5t-13.5 -156zM274 1152q0 -30 19 -49q20 -20 49 -20q28 0 48 20t20 49
q0 28 -20 48t-48 20q-29 0 -49 -20q-19 -19 -19 -48zM190 1152q0 30 12 59q12 28 32 48q19 21 47 33t60 12q30 0 59 -12q28 -12 48 -33q21 -20 33 -48q12 -29 12 -59q0 -32 -12 -60t-33 -47q-20 -20 -48 -32q-29 -12 -59 -12q-32 0 -60 12q-27 12 -47 32t-32 47
q-12 28 -12 60z" />
    <glyph glyph-name="egrave" unicode="&#xe8;" horiz-adv-x="742" 
d="M474 1111q2 -6 2 -8q0 -5 -5 -10t-12.5 -8.5t-16.5 -5.5t-16 -2q-13 0 -35.5 9t-48 24.5t-50.5 36t-42 42.5q-6 7 -12.5 19t-12 25.5t-9 27.5t-3.5 27q0 12 5.5 25t15.5 23.5t23 17.5t28 7q16 0 29 -7.5t22.5 -19t15 -26.5t5.5 -30q0 -8 -1.5 -13t-1.5 -13q0 -18 12 -45
t51 -51q17 -11 33.5 -22.5t23.5 -22.5zM322 886q-40 0 -69.5 -35.5t-49 -93t-29.5 -131.5t-10 -150q0 -23 3 -32q47 26 87.5 40.5t73.5 22.5t58 14t42.5 15.5t26.5 26t9 47.5q0 18 -3.5 45.5t-11 58.5t-19 61.5t-27.5 55t-36 40t-45 15.5zM445 0q-113 0 -196.5 40
t-139 106.5t-82.5 153t-27 180.5q0 88 21 174t62 154t101 110t138 42q60 0 111 -28.5t88.5 -73t60 -98.5t25.5 -105q1 -11 1 -21v-20q0 -34 -7.5 -66.5t-31.5 -59t-68.5 -45t-118.5 -24.5q-53 -2 -108.5 -13.5t-99.5 -38.5q7 -52 31.5 -104.5t62 -94.5t86.5 -68t106 -26
q39 0 76.5 7.5t73 27t69 52t63.5 83.5q5 9 9.5 17.5t9.5 16.5l11 20q4 8 16 8q10 0 21 -4.5t20.5 -11.5t16 -15t6.5 -15q0 -2 -1 -6t-12 -21q-7 -11 -13.5 -22t-13.5 -22q-20 -32 -50.5 -65.5t-75 -61t-104 -45t-137.5 -17.5z" />
    <glyph glyph-name="ecircumflex" unicode="&#xea;" horiz-adv-x="742" 
d="M322 886q-40 0 -69.5 -35.5t-49 -93t-29.5 -131.5t-10 -150q0 -23 3 -32q47 26 87.5 40.5t73.5 22.5t58 14t42.5 15.5t26.5 26t9 47.5q0 18 -3.5 45.5t-11 58.5t-19 61.5t-27.5 55t-36 40t-45 15.5zM445 0q-113 0 -196.5 40t-139 106.5t-82.5 153t-27 180.5q0 88 21 174
t62 154t101 110t138 42q60 0 111 -28.5t88.5 -73t60 -98.5t25.5 -105q1 -11 1 -21v-20q0 -34 -7.5 -66.5t-31.5 -59t-68.5 -45t-118.5 -24.5q-53 -2 -108.5 -13.5t-99.5 -38.5q7 -52 31.5 -104.5t62 -94.5t86.5 -68t106 -26q39 0 76.5 7.5t73 27t69 52t63.5 83.5
q5 9 9.5 17.5t9.5 16.5l11 20q4 8 16 8q10 0 21 -4.5t20.5 -11.5t16 -15t6.5 -15q0 -2 -1 -6t-12 -21q-7 -11 -13.5 -22t-13.5 -22q-20 -32 -50.5 -65.5t-75 -61t-104 -45t-137.5 -17.5zM340 1353q18 0 47.5 -14.5t59.5 -35t56 -42t37 -36.5q13 -16 13 -32q0 -18 -17.5 -22
t-39.5 -4q-33 0 -52.5 5.5t-32 14t-20 18.5t-16.5 19q-13 14 -24 24.5t-11 12.5q0 -2 -11.5 -14.5t-27.5 -27.5t-34 -28.5t-30 -17.5q-18 -6 -53 -6q-23 0 -40.5 4t-17.5 22q0 19 14 38t35 36t45.5 31.5t45 25t33.5 16.5t11 5q21 8 30 8z" />
    <glyph glyph-name="igrave" unicode="&#xec;" horiz-adv-x="397" 
d="M261 1114q5 -8 0 -14q-5 -7 -13 -11q-6 -4 -18 -7q-5 -1 -9 -1.5t-8 -0.5q-21 0 -55 17q-16 9 -33 20.5t-36 25.5q-16 12 -29 24t-23 25q-20 26 -32 70q-18 62 35 92q17 10 32 10q37 0 58 -35q13 -20 14 -36q2 -19 -2 -30q-3 -9 3 -35q7 -25 38 -53l10 -8t11 -8t12 -7.5
t11 -7.5t10 -7.5t10 -7.5q9 -6 14 -15zM214 0q-64 0 -105.5 28.5t-65.5 71.5t-33.5 93t-9.5 94v599q0 25 6 40t17 22.5t26 9.5t34 2q18 0 33.5 -2t26.5 -9.5t17 -22.5t6 -40v-614q0 -28 3.5 -62.5t12 -64.5t23 -50.5t37.5 -20.5q16 0 36 15.5t41 40.5t41 55t37 59
q5 9 9.5 17.5t9.5 16.5l11 20q4 8 16 8q10 0 21 -4.5t20.5 -11.5t16 -15t6.5 -15q0 -2 -1 -6t-12 -21q-7 -11 -13.5 -22t-13.5 -22q-29 -45 -54.5 -80.5t-54.5 -59.5t-63.5 -36.5t-80.5 -12.5z" />
    <glyph glyph-name="ntilde" unicode="&#xf1;" horiz-adv-x="749" 
d="M278 1140q-9 5 -17 8.5t-16 5.5t-14.5 4t-13.5 3q-12 3 -24 3h-24q-19 0 -37 -5q-17 -5 -30 -12q-7 -4 -13 -7.5t-13 -7.5t-14 -7.5t-15 -6.5q-15 -6 -26 5q-10 11 -11 30q-1 10 1 21t6 23q8 23 29 47q35 38 73 47q39 10 85 10q22 0 46 -10q13 -5 27 -11.5t31 -14.5
q19 -10 34 -14q8 -2 14.5 -4t12.5 -4q7 -1 13 -1.5t12 -0.5h24q19 0 37 5q15 4 29 12q7 4 13.5 7t13.5 7t14 7.5t15 6.5q16 6 25 -5q9 -9 11 -30q2 -20 -7 -44q-4 -13 -11 -24.5t-17 -22.5q-17 -20 -36 -30q-19 -11 -38 -17q-21 -7 -41 -8q-11 -1 -21.5 -1h-21.5
q-22 0 -47 9q-13 5 -27.5 12t-30.5 15zM819 189q-27 -45 -52.5 -80.5t-54 -59.5t-63 -36.5t-81.5 -12.5q-65 0 -103 25.5t-57.5 66.5t-25.5 92.5t-6 104.5q1 59 4.5 106t7 89.5t6 84.5t2.5 92q0 41 -4 81t-15 72t-31.5 52t-53.5 20q-27 0 -50 -31t-40 -82t-26.5 -117
t-9.5 -136v-446q0 -25 -5.5 -40t-16 -22.5t-26 -9.5t-35.5 -2q-16 0 -31 1t-26.5 7.5t-18.5 21.5t-7 44v812q0 25 5.5 40t16 22.5t26 9.5t34.5 2t34.5 -0.5t26.5 -7t17 -22t6 -44.5q18 28 36.5 43.5t35 22t31 7.5t23.5 1q69 0 119 -23t83 -64.5t49 -100t16 -128.5
q0 -10 -1 -29t-4 -53t-8 -87t-13 -132q-4 -33 -6 -69t-2 -70q0 -27 2.5 -50.5t10 -41.5t21 -28t36.5 -10q18 0 38 16t40 40.5t39.5 54.5t36.5 59q5 9 9.5 17.5t9.5 16.5l11 20q4 8 16 8q10 0 21 -4.5t20.5 -11.5t16 -15t6.5 -15q0 -2 -1 -6t-12 -21q-7 -11 -13.5 -22
t-13.5 -22z" />
    <glyph glyph-name="ograve" unicode="&#xf2;" horiz-adv-x="797" 
d="M166 480q0 -82 13.5 -155.5t36.5 -129t55 -88.5t69 -33q36 0 68 32.5t55.5 88t37 129.5t13.5 156t-13.5 155.5t-37 129t-55.5 88.5t-68 33q-37 0 -68.5 -32.5t-55 -88t-37 -129.5t-13.5 -156zM599 169q-22 -36 -49.5 -67t-60 -53.5t-70 -35.5t-79.5 -13
q-69 0 -130.5 38.5t-108 104t-74 152.5t-27.5 185q0 101 27 188.5t73.5 152.5t108.5 102t131 37q71 0 133 -38.5t108 -104t72.5 -153t26.5 -185.5q0 -65 -14 -134t-40 -127q6 -2 18.5 -7t29 -9t35.5 -6t38 3q20 5 31.5 19.5t18.5 25.5q5 9 9.5 17.5t9.5 16.5l11 20q4 8 16 8
q10 0 21 -4.5t20.5 -11.5t16 -15t6.5 -15q0 -2 -1 -6t-12 -21q-7 -11 -13.5 -22t-13.5 -22q-6 -9 -14.5 -19.5t-20.5 -19.5t-27.5 -15t-34.5 -6q-46 0 -92.5 12.5t-78.5 27.5zM462 1112q2 -6 2 -8q0 -5 -5 -10t-12.5 -8.5t-16.5 -5.5t-16 -2q-13 0 -35.5 9t-48 24.5
t-50.5 36t-42 42.5q-6 7 -12.5 19t-12 25.5t-9 27.5t-3.5 27q0 12 5.5 25t15.5 23.5t23 17.5t28 7q16 0 29 -7.5t22.5 -19t15 -26.5t5.5 -30q0 -8 -1.5 -13t-1.5 -13q0 -18 12 -45t51 -51q17 -11 33.5 -22.5t23.5 -22.5z" />
    <glyph glyph-name="otilde" unicode="&#xf5;" horiz-adv-x="797" 
d="M166 480q0 -82 13.5 -155.5t36.5 -129t55 -88.5t69 -33q36 0 68 32.5t55.5 88t37 129.5t13.5 156t-13.5 155.5t-37 129t-55.5 88.5t-68 33q-37 0 -68.5 -32.5t-55 -88t-37 -129.5t-13.5 -156zM599 169q-22 -36 -49.5 -67t-60 -53.5t-70 -35.5t-79.5 -13
q-69 0 -130.5 38.5t-108 104t-74 152.5t-27.5 185q0 101 27 188.5t73.5 152.5t108.5 102t131 37q71 0 133 -38.5t108 -104t72.5 -153t26.5 -185.5q0 -65 -14 -134t-40 -127q6 -2 18.5 -7t29 -9t35.5 -6t38 3q20 5 31.5 19.5t18.5 25.5q5 9 9.5 17.5t9.5 16.5l11 20q4 8 16 8
q10 0 21 -4.5t20.5 -11.5t16 -15t6.5 -15q0 -2 -1 -6t-12 -21q-7 -11 -13.5 -22t-13.5 -22q-6 -9 -14.5 -19.5t-20.5 -19.5t-27.5 -15t-34.5 -6q-46 0 -92.5 12.5t-78.5 27.5zM326 1140q-9 5 -17 8.5t-16 5.5t-14.5 4t-13.5 3q-12 3 -24 3h-24q-19 0 -37 -5q-17 -5 -30 -12
q-7 -4 -13 -7.5t-13 -7.5t-14 -7.5t-15 -6.5q-15 -6 -26 5q-10 11 -11 30q-1 10 1 21t6 23q8 23 29 47q35 38 73 47q39 10 85 10q22 0 46 -10q13 -5 27 -11.5t31 -14.5q19 -10 34 -14q8 -2 14.5 -4t12.5 -4q7 -1 13 -1.5t12 -0.5h24q19 0 37 5q15 4 29 12q7 4 13.5 7t13.5 7
t14 7.5t15 6.5q16 6 25 -5q9 -9 11 -30q2 -20 -7 -44q-4 -13 -11 -24.5t-17 -22.5q-17 -20 -36 -30q-19 -11 -38 -17q-21 -7 -41 -8q-11 -1 -21.5 -1h-21.5q-22 0 -47 9q-13 5 -27.5 12t-30.5 15z" />
    <glyph glyph-name="oslash" unicode="&#xf8;" horiz-adv-x="797" 
d="M599 169q-22 -36 -49.5 -67t-60 -53.5t-70 -35.5t-79.5 -13q-36 0 -67 10l-54 -152q-8 -23 -17 -34t-20 -13.5t-24.5 1t-30.5 9.5q-18 6 -31 11.5t-20.5 14.5t-7.5 23t8 37l66 186q-64 67 -103 168t-39 219q0 101 27 188.5t73.5 152.5t108.5 102t131 37q51 0 101 -22
l66 187q8 23 17 34t20 13.5t25 -1t32 -9.5t31 -11.5t20 -14.5t7 -23.5t-8 -37.5l-85 -238q53 -67 83.5 -159.5t30.5 -198.5q0 -65 -14 -134t-40 -127q6 -2 18.5 -7t29 -9t35.5 -6t38 3q20 5 31.5 19.5t18.5 25.5l19 34l11 20q4 8 16 8q10 0 21 -4.5t20.5 -11.5t16 -15
t6.5 -15q0 -2 -1 -6t-12 -21l-27 -44q-6 -9 -14.5 -19.5t-20.5 -19.5t-27.5 -15t-34.5 -6q-46 0 -92.5 12.5t-78.5 27.5zM166 480q0 -64 8 -122.5t23 -109.5l213 603q-35 35 -70 35q-37 0 -68.5 -32.5t-55 -88t-37 -129.5t-13.5 -156zM340 74q36 0 68 32.5t55.5 88t37 129.5
t13.5 156q0 44 -4 85.5t-12 79.5l-199 -561q19 -10 41 -10z" />
    <glyph glyph-name="ugrave" unicode="&#xf9;" horiz-adv-x="911" 
d="M981 189q-27 -45 -52.5 -80.5t-54 -59.5t-64 -36.5t-82.5 -12.5q-43 0 -72 12t-48 30t-30 37.5t-18 34.5q-50 -59 -102.5 -86.5t-117.5 -27.5q-75 0 -137.5 40t-107.5 105.5t-70 150t-25 173.5v417q0 28 6 43t17 22t26 8t34 1q18 0 33 -1t26.5 -8t17.5 -22t6 -43v-417
q0 -67 11.5 -137t34 -127.5t55 -94t73.5 -36.5q29 0 53.5 18.5t43.5 49t33.5 71.5t24 86t14.5 91.5t5 89.5v406q0 27 5.5 42t16 22t26 8.5t34.5 1.5q18 0 33 -1t26.5 -8t17.5 -22t6 -43v-614q0 -29 4 -63.5t13 -64.5t23.5 -50t36.5 -20q16 0 36 15.5t41 40.5t41 55t37 59
q5 9 9.5 17.5t9.5 16.5l11 20q4 8 16 8q10 0 21 -4.5t20.5 -11.5t16 -15t6.5 -15q0 -2 -1 -6t-12 -21q-7 -11 -13.5 -22t-13.5 -22zM471 1114q2 -6 2 -8q0 -5 -5 -10t-12.5 -8.5t-16.5 -5.5t-16 -2q-13 0 -35.5 9t-48 24.5t-50.5 36t-42 42.5q-6 7 -12.5 19t-12 25.5
t-9 27.5t-3.5 27q0 12 5.5 25t15.5 23.5t23 17.5t28 7q16 0 29 -7.5t22.5 -19t15 -26.5t5.5 -30q0 -8 -1.5 -13t-1.5 -13q0 -18 12 -45t51 -51q17 -11 33.5 -22.5t23.5 -22.5z" />
    <glyph glyph-name="ucircumflex" unicode="&#xfb;" horiz-adv-x="911" 
d="M981 189q-27 -45 -52.5 -80.5t-54 -59.5t-64 -36.5t-82.5 -12.5q-43 0 -72 12t-48 30t-30 37.5t-18 34.5q-50 -59 -102.5 -86.5t-117.5 -27.5q-75 0 -137.5 40t-107.5 105.5t-70 150t-25 173.5v417q0 28 6 43t17 22t26 8t34 1q18 0 33 -1t26.5 -8t17.5 -22t6 -43v-417
q0 -67 11.5 -137t34 -127.5t55 -94t73.5 -36.5q29 0 53.5 18.5t43.5 49t33.5 71.5t24 86t14.5 91.5t5 89.5v406q0 27 5.5 42t16 22t26 8.5t34.5 1.5q18 0 33 -1t26.5 -8t17.5 -22t6 -43v-614q0 -29 4 -63.5t13 -64.5t23.5 -50t36.5 -20q16 0 36 15.5t41 40.5t41 55t37 59
q5 9 9.5 17.5t9.5 16.5l11 20q4 8 16 8q10 0 21 -4.5t20.5 -11.5t16 -15t6.5 -15q0 -2 -1 -6t-12 -21q-7 -11 -13.5 -22t-13.5 -22zM330 1352q18 0 47.5 -14.5t59.5 -35t56 -42t37 -36.5q13 -16 13 -32q0 -18 -17.5 -22t-39.5 -4q-33 0 -52.5 5.5t-32 14t-20 18.5t-16.5 19
q-13 14 -24 24.5t-11 12.5q0 -2 -11.5 -14.5t-27.5 -27.5t-34 -28.5t-30 -17.5q-18 -6 -53 -6q-23 0 -40.5 4t-17.5 22q0 19 14 38t35 36t45.5 31.5t45 25t33.5 16.5t11 5q21 8 30 8z" />
    <glyph glyph-name="ydieresis" unicode="&#xff;" horiz-adv-x="882" 
d="M0 1170q0 37 26 63q27 27 64 27q38 0 64 -27q26 -26 26 -63q0 -36 -26 -64q-26 -26 -64 -26q-36 0 -64 26q-26 28 -26 64zM494 1170q0 37 26 63q27 27 64 27q38 0 64 -27q26 -26 26 -63q0 -36 -26 -64q-26 -26 -64 -26q-36 0 -64 26q-26 28 -26 64zM513 -380v-93v-60.5
t-2 -47t-8 -30t-18 -10.5q-16 0 -26 18.5t-16 47.5t-9 64t-4 67t-1 57.5v35.5q0 48 4.5 82t15 58.5t26 43.5t38.5 38v-271zM680 886q0 28 -6 43t-17 22t-26.5 8t-34.5 1t-34 -1t-25.5 -7.5t-16.5 -20.5t-6 -39v-412q0 -73 -12.5 -145.5t-35.5 -130.5t-55 -94t-71 -36
q-29 0 -52.5 17.5t-43 48t-34 70.5t-24.5 85t-15 92.5t-5 92.5v406q0 28 -6 43t-17.5 22t-26.5 8t-33 1q-19 0 -34 -1t-26 -8t-17 -22t-6 -43v-406q0 -101 27 -189t73.5 -152.5t108.5 -101.5t131 -37q31 0 58.5 7t49.5 17.5t38.5 22t26.5 20.5v-66q-76 -37 -122.5 -86
t-72.5 -100t-35 -98t-9 -80q0 -72 12.5 -132.5t39 -105t66 -69t93.5 -24.5q34 0 68.5 11.5t62.5 45.5t45.5 95.5t17.5 161.5v344q58 22 100 48t73.5 55t55 60t44.5 62q7 11 13.5 22t13.5 22q11 17 12 21t1 6q0 7 -6.5 15t-16 15t-20.5 11.5t-21 4.5q-12 0 -16 -8l-11 -20
q-5 -8 -9.5 -16.5t-9.5 -17.5q-17 -27 -33 -51.5t-38 -46.5t-53.5 -41.5t-78.5 -35.5z" />
    <glyph glyph-name="oe" unicode="&#x153;" horiz-adv-x="1227" 
d="M930 0q-112 0 -193.5 47.5t-135.5 127.5q-21 -35 -47 -66.5t-58 -55.5t-72 -38.5t-88 -14.5q-69 0 -130 38.5t-106.5 104t-72.5 152.5t-27 185q0 101 27 188.5t73.5 152.5t108.5 102t131 37q75 0 140 -43t113 -118q40 72 101.5 116.5t141.5 44.5q60 0 111.5 -29t89 -73.5
t60 -98.5t25.5 -104q1 -11 1 -21v-20q0 -34 -8 -66.5t-32 -59t-68.5 -45t-117.5 -24.5q-53 -2 -108.5 -13.5t-99.5 -38.5q7 -52 31 -104.5t59 -94.5t78 -68t88 -26q39 0 76.5 7.5t73 27t69 52t63.5 83.5q5 9 9.5 17.5t9.5 16.5l11 20q4 8 16 8q10 0 21 -4.5t20.5 -11.5
t16 -15t6.5 -15q0 -2 -1 -6t-12 -21q-7 -11 -13.5 -22t-13.5 -22q-20 -32 -50.5 -65.5t-75 -61t-104 -45t-137.5 -17.5zM166 480q0 -82 13.5 -155.5t36.5 -129t55 -88.5t69 -33q36 0 68 32.5t55.5 88t37 129.5t13.5 156t-13.5 155.5t-37 129t-55.5 88.5t-68 33
q-37 0 -68.5 -32.5t-55 -88t-37 -129.5t-13.5 -156zM836 886q-31 0 -54.5 -20.5t-41 -54.5t-29.5 -77t-19 -88t-10 -88.5t-3 -77.5v-16q0 -13 3 -20q47 27 87.5 41t73.5 22t58 14t42.5 16t26 27.5t8.5 49.5q0 29 -8.5 75t-26 90t-44 75.5t-63.5 31.5z" />
    <glyph glyph-name="Ydieresis" unicode="&#x178;" horiz-adv-x="1239" 
d="M156 1710q0 37 26 63q27 27 64 27q38 0 64 -27q26 -26 26 -63q0 -36 -26 -64q-26 -26 -64 -26q-36 0 -64 26q-26 28 -26 64zM891 1710q0 37 26 63q27 27 64 27q38 0 64 -27q26 -26 26 -63q0 -36 -26 -64q-26 -26 -64 -26q-36 0 -64 26q-26 28 -26 64zM907 -110
q-37 -30 -57.5 -62t-30 -68t-11 -77t-1.5 -89q0 -29 2.5 -66.5t9 -70.5t17 -55.5t26.5 -22.5q14 0 23 17.5t14 41.5t6.5 49t1.5 41v362zM1309 189q-18 -28 -38 -53t-44 -48t-53.5 -44t-67.5 -41q-11 -6 -16 -9t-17 -9v-365q0 -61 -10.5 -118t-35.5 -100.5t-65 -69.5t-99 -26
q-54 0 -94 24.5t-66.5 68.5t-39 105t-11.5 133q0 45 14 93.5t44 95.5t78.5 90t118.5 76v157q-21 -29 -48.5 -56t-58 -47.5t-63 -33t-65.5 -12.5q-76 0 -138 40.5t-110.5 109.5t-83.5 161t-58.5 194t-34.5 208.5t-11 205.5q0 81 2.5 157.5t2.5 145.5q0 57 -3.5 107.5t-15 88
t-32.5 59t-55 21.5q-13 0 -27.5 -5t-45.5 -28q-10 -8 -21 -10.5t-20 -2.5t-15 8.5t-6 14.5q2 18 20 36.5t44.5 32.5t57.5 23t58 9q85 0 130.5 -37t66.5 -109t23.5 -177t1.5 -240q-1 -88 3.5 -192t16 -208.5t31.5 -201.5t50.5 -172t72 -120t96.5 -45q47 0 83 33t62 87.5
t43.5 123.5t28 141t14.5 141t4 122v779q0 30 7 45t19 22t27 7.5t31 0.5q18 0 33.5 -1t26 -8t16.5 -22.5t6 -43.5v-1440q5 3 11 7q5 3 11 6.5t11 7.5q26 18 59.5 58t73.5 104q5 9 9.5 17.5t9.5 16.5l11 20q4 8 16 8q10 0 21 -4.5t20.5 -11.5t16 -15t6.5 -15q0 -2 -1 -6
t-12 -21q-7 -11 -13.5 -22t-13.5 -22z" />
    <glyph glyph-name="florin" unicode="&#x192;" 
d="M763 888h-45t-39 -1h-75v-493q0 -43 -4 -81.5t-12 -72.5q-15 -69 -51 -118q-35 -49 -96 -79q-59 -29 -147 -39q-5 -1 -7.5 -1t-4.5 -1t-4 -1t-6 -1h-23h-49h-24t-17 1q-14 1 -21 6q-7 4 -8 11q-1 5 -1 19t1 19q1 7 8 11q4 2 9 3t12 2t17 1.5t24 0.5q40 0 72 4.5t55 15.5
q47 21 71 62q13 20 20.5 45.5t11.5 55.5t6.5 64.5t2.5 72.5v493h-108q-13 0 -24 0.5t-21 0.5q-27 0 -40 3t-19 9q-5 7 -5 15v21v21q0 8 5 15q6 6 19 9t40 3h153v197q0 86 15 154q17 69 52 117q38 50 96 80q59 29 148 40q4 1 6.5 1h4.5q2 1 10 1q5 1 23 1q8 1 20 1h29
q14 0 24 -0.5t17 -1.5t12 -2t9 -3q6 -4 8 -12q1 -5 1 -19t-1 -19q-1 -7 -8 -11q-8 -5 -21 -6q-7 -1 -17 -1h-24q-40 0 -72 -4.5t-55 -15.5q-46 -19 -72 -61q-25 -41 -32 -101q-4 -30 -6 -64.5t-2 -72.5v-198h159q27 0 41 -3q13 -3 21 -9q6 -5 8 -15q1 -5 1 -10v-11v-11
t-1 -10q-2 -10 -8 -15q-8 -6 -21 -9q-14 -3 -41 -3z" />
    <glyph glyph-name="ring" unicode="&#x2da;" horiz-adv-x="1087" 
d="M250 1349q0 -30 19 -49q20 -20 49 -20q28 0 48 20t20 49q0 28 -20 48t-48 20q-29 0 -49 -20q-19 -19 -19 -48zM166 1349q0 30 12 59q12 28 32 48q19 21 47 33t60 12q30 0 59 -12q28 -12 48 -33q21 -20 33 -48q12 -29 12 -59q0 -32 -12 -60t-33 -47q-20 -20 -48 -32
q-29 -12 -59 -12q-32 0 -60 12q-27 12 -47 32t-32 47q-12 28 -12 60z" />
    <glyph glyph-name="glyph202" horiz-adv-x="442" 
 />
    <glyph glyph-name="macron" unicode="&#xaf;" horiz-adv-x="1024" 
d="M1024 1670l-1024 -1v135h1024v-134v0z" />
    <glyph glyph-name="ordfeminine" unicode="&#xaa;" horiz-adv-x="939" 
d="M591 955q-34 0 -54 16.5t-33 39.5q-29 -27 -61 -41.5t-69 -14.5q-53 0 -95 28.5t-70.5 73.5t-43.5 100t-15 108q0 72 20 129.5t52.5 97t72.5 61t79 21.5q26 0 48.5 -7t42.5 -18q7 18 23 21.5t36 3.5h5q15 0 27.5 -1.5t22 -7.5t15 -19t5.5 -36v-372q0 -12 0.5 -29
t1.5 -32.5t3 -26.5t4 -11q7 0 16.5 8.5t19.5 22t20 29.5t18 30q4 7 8 13t7 11q1 2 3 4q2 4 4 6q5 15 24 15q10 0 20.5 -4.5t19 -11.5t14 -15.5t5.5 -16.5q0 -2 -0.5 -5t-2.5 -8l-7 -12q-23 -39 -43 -67.5t-41 -47t-45 -27t-57 -8.5zM289 1265q0 -48 7 -89t18.5 -71.5t27 -48
t32.5 -17.5q19 0 35 19t27 50.5t17.5 72.5t6.5 84q0 45 -6.5 86t-18 71.5t-27.5 49t-34 18.5t-33.5 -17.5t-27 -48t-18 -71.5t-6.5 -88zM235 770q-31 0 -48 1t-24.5 7t-9 18.5t-1.5 35.5t1.5 35.5t10 18t25 6.5t46.5 1h466q32 0 49.5 -1t26 -6.5t10.5 -18t2 -35.5
t-1.5 -35.5t-9.5 -18.5t-26 -7t-51 -1h-466z" />
    <glyph glyph-name="twosuperior" unicode="&#xb2;" 
d="M399 855h335q22 0 34 -2.5t18 -8t7 -14t1 -20.5q0 -11 -1 -18.5t-7 -12.5t-18 -7.5t-34 -2.5h-425q-15 0 -28.5 6.5t-23.5 16t-16 21t-6 20.5q0 13 7 25t17 24l240 307q45 61 66.5 115t21.5 85q0 36 -11.5 56t-28.5 30.5t-36 13t-34 2.5q-43 0 -72.5 -6.5t-57.5 -17.5
q-17 -6 -29 -6q-9 0 -21.5 8t-12.5 22q0 13 13.5 27.5t38.5 27.5t61 21.5t80 8.5q57 0 102.5 -14.5t77.5 -39t49 -58t17 -70.5v-8q0 -4 0.5 -8.5t0.5 -9.5q1 -26 -18.5 -79.5t-73.5 -125.5z" />
    <glyph glyph-name="threesuperior" unicode="&#xb3;" 
d="M445 854q60 0 98 15t60 39t30 54t8 60q0 39 -21.5 70t-53 53t-68 33.5t-65.5 11.5q-23 0 -35.5 2t-18 7.5t-6.5 14t-1 21.5q0 10 1 17.5t7 12.5t18 8t35 3q27 0 49.5 9t39 24t25.5 34.5t9 39.5q0 19 -6 38t-18.5 34.5t-31.5 25t-45 9.5q-17 0 -29.5 -1t-24.5 -4
t-24.5 -7.5t-30.5 -11.5q-17 -6 -28 -6q-9 0 -21.5 8t-12.5 22q0 12 9 27t29.5 28t53 22t79.5 9q60 0 105 -18t74 -46t43.5 -62.5t14.5 -66.5q0 -34 -19.5 -72.5t-67.5 -69.5q37 -11 68.5 -31t54.5 -47.5t36 -63t13 -77.5q0 -43 -14 -88t-51 -82t-101.5 -60.5t-165.5 -23.5
q-47 0 -82.5 9t-60 22t-37 27.5t-12.5 25.5q0 18 14 25t20 7q9 0 20 -3.5t21 -8.5l10 -4q20 -8 47 -11t60 -3z" />
    <glyph glyph-name="onesuperior" unicode="&#xb9;" 
d="M529 1525q7 26 19 39t44 13h15q63 0 63 -57v-695q0 -21 -5 -32.5t-14.5 -17t-23.5 -6t-32 -0.5q-12 0 -23 1.5t-19.5 7t-13.5 16.5t-5 31v543q-19 -8 -47 -16.5t-68 -19.5q-9 -3 -16 -3q-5 0 -12 3.5t-13.5 10.5t-11.5 16.5t-5 20.5q0 17 11 22.5t30 11.5l9 3
q37 10 58 20t32.5 22t17 27.5t10.5 38.5z" />
    <glyph glyph-name="ordmasculine" unicode="&#xba;" horiz-adv-x="692" 
d="M150 1270q0 65 16 121t43 97t62.5 64.5t74.5 23.5q41 0 76.5 -25t62 -67t42 -97.5t15.5 -116.5t-14.5 -116.5t-40.5 -97.5t-62 -67t-79 -25q-40 0 -75.5 23t-62.5 64t-42.5 97t-15.5 122zM283 1270q0 -49 5 -91t14 -73t20.5 -49t23.5 -18q14 0 26 20t20.5 53t13 74.5
t4.5 83.5q0 48 -5.5 90t-14.5 73t-20.5 48.5t-23.5 17.5q-11 0 -22.5 -17t-20.5 -47t-14.5 -72t-5.5 -93zM233 770q-31 0 -48 1t-24.5 7t-9 18.5t-1.5 35.5t1.5 35.5t10 18t25 6.5t46.5 1h220q32 0 50 -1t26.5 -6.5t10.5 -18t2 -35.5t-1.5 -35.5t-9.5 -18.5t-26.5 -7
t-51.5 -1h-220z" />
    <glyph glyph-name="OE" unicode="&#x152;" horiz-adv-x="1665" 
d="M1735 189q-29 -44 -61.5 -79t-75 -59.5t-98 -37.5t-128.5 -13q-75 0 -139 19.5t-116 54.5t-92 83t-67 105q-33 -57 -75 -104.5t-91 -81.5t-103.5 -53t-112.5 -19q-71 0 -137 28t-123 79t-104.5 123t-81 159.5t-52 188t-18.5 208.5q0 110 19 211t53 188.5t81.5 158.5
t105 122t122.5 78.5t135 27.5q103 0 172.5 -20t95.5 -71q10 -14 10 -27q0 -10 -7.5 -15t-13.5 -6q-19 0 -39 12.5t-40 20.5q-19 7 -36 13t-36 10t-41.5 6t-52.5 2q-59 0 -108.5 -27t-90 -75t-71 -114.5t-51 -146t-31 -169t-10.5 -182.5q0 -85 12 -171t34 -165t53 -148
t70 -120t84.5 -80t96.5 -29q55 0 102.5 32.5t86.5 87t69 126.5t50.5 151t31 160.5t10.5 155.5q0 104 -13.5 191.5t-36.5 156t-53.5 116t-64.5 71.5t-80 36.5t-107 26.5q-27 6 -27 18q0 6 12 18t48 12q28 0 64.5 -7t76.5 -21t80 -34t76 -47q48 -36 89 -108v3q0 59 26.5 122
t76.5 115.5t123.5 86t167.5 33.5q107 0 171.5 -20.5t96.5 -70.5q10 -14 10 -27q0 -10 -7.5 -15t-13.5 -6q-18 0 -38.5 12.5t-41.5 20.5q-18 7 -31.5 13t-29 10t-37 6t-55.5 2q-44 0 -79.5 -18t-64 -47.5t-49.5 -67.5t-34.5 -77.5t-20.5 -78t-7 -69.5q0 -38 9 -71t25.5 -58
t40.5 -39.5t55 -14.5q28 0 42.5 -4t21 -11t7 -17t0.5 -22q0 -10 -1.5 -18t-8 -14t-21 -9t-40.5 -3q-62 0 -102.5 -33t-64.5 -88t-33.5 -126t-9.5 -147q0 -68 19 -138t57 -127t96 -93t136 -36q59 0 103 12.5t77 35t58 53.5t46 69q5 9 9.5 17.5t9.5 16.5l11 20q4 8 16 8
q10 0 21 -4.5t20.5 -11.5t16 -15t6.5 -15q0 -2 -1 -6t-12 -21q-7 -11 -13.5 -22t-13.5 -22z" />
    <glyph glyph-name="approxequal" unicode="&#x2248;" 
d="M498 628q-23 7 -42.5 11.5t-36.5 6t-34 2t-35 0.5q-38 0 -61.5 -6t-46.5 -15q-14 -6 -30 -11.5t-30 -9.5q-8 -2 -12 -2q-17 0 -26.5 14t-9.5 34q0 43 29 70t70 43t86.5 22t77.5 6q27 0 61 -9t80 -25v1q25 -8 45 -12.5t36.5 -6.5t31 -2.5t29.5 -0.5h9q41 0 68 8t50 16
q13 5 28 10.5t18 6.5q2 0 2.5 0.5t1.5 0.5q3 1 10 1q18 0 27 -15.5t9 -35.5q0 -34 -24 -59.5t-62 -43t-85 -26t-92 -8.5q-29 0 -63 9t-79 26zM498 373q-23 8 -42.5 12t-36.5 6t-34 2.5t-35 0.5q-38 0 -61.5 -6.5t-46.5 -15.5q-14 -6 -30 -11.5t-30 -9.5q-8 -2 -12 -2
q-17 0 -26.5 14t-9.5 35q0 42 29 69.5t70 43t86.5 21.5t77.5 6q27 0 61 -9t80 -25v1q25 -8 45 -12.5t36.5 -6.5t31 -2.5t29.5 -0.5h9q41 0 68 8t50 16q13 5 28 10.5t18 6.5q2 0 2.5 0.5t1.5 0.5q3 1 10 1q18 0 27 -15t9 -35q0 -34 -24 -60t-62 -43t-85 -26t-92 -9
q-29 0 -63 9t-79 26z" />
    <glyph glyph-name="lessequal" unicode="&#x2264;" 
d="M858 69h-679q-24 0 -37.5 1t-19.5 8t-7 22t-1 43t1 43t7 22t19.5 8t37.5 1h679q27 0 41 -1t21 -8t8 -22t1 -43t-1 -43t-8 -22t-21 -8t-41 -1zM120 553q0 19 0.5 29t4 16t11 9.5t21.5 8.5l684 233q16 6 25.5 8t15.5 -2.5t11 -17t13 -36.5q9 -27 13.5 -42t3 -23t-10 -12
t-24.5 -10q-89 -30 -173 -59q-36 -12 -75.5 -25.5t-78 -27t-74.5 -26.5t-67 -23q31 -11 67 -23.5t74.5 -26t78 -27t75.5 -25.5q84 -29 173 -59q16 -6 24.5 -10t10 -12t-3 -23t-13.5 -42q-8 -24 -13 -36.5t-11 -17t-15.5 -2.5t-25.5 8l-684 233q-14 5 -21.5 8.5t-11 9.5
t-4 16t-0.5 29z" />
    <glyph glyph-name="notequal" unicode="&#x2260;" 
d="M185 345q-27 0 -41 1t-21 8t-8 22t-1 43t1 43t8 22t21 8t41 1h238l33 115h-271q-27 0 -41 1t-21 8t-8 22t-1 43t1 43t8 22t21 8t41 1h313l56 194q8 29 14 44t15.5 20.5t26 2t46.5 -12.5t45.5 -14.5t21 -15t2 -25.5t-11.5 -44l-43 -148l195 -1q24 0 37.5 -1t19.5 -8t7 -22
t1 -43t-1 -43t-7 -22t-19.5 -8t-37.5 -1h-237l-33 -115h270q24 0 37.5 -1t19.5 -8t7 -22t1 -43t-1 -43t-7 -22t-19.5 -8t-37.5 -1h-313l-55 -192q-8 -27 -13.5 -41.5t-15 -19t-26.5 -1t-47 12.5q-29 8 -44.5 13.5t-20.5 14.5t-2 24.5t11 43.5l41 145h-195z" />
    <glyph glyph-name="greaterequal" unicode="&#x2265;" 
d="M186 89q-27 0 -41 1t-21 7t-8 19t-1 37t1 37t8 19t21 7t41 1h679q24 0 37.5 -1t19.5 -7t7 -19t1 -37t-1 -37t-7 -19t-19.5 -7t-37.5 -1h-679zM923 551q0 -19 -0.5 -29t-4 -16t-11 -9.5t-21.5 -8.5l-684 -233q-17 -6 -26 -8t-15 2.5t-11 17t-13 36.5q-9 27 -13.5 42t-3 23
t10 12t24.5 10q87 30 172 59q36 12 75 25.5l78 27t75.5 26t67.5 23.5q-31 10 -67.5 23t-75.5 26.5l-78 27t-75 25.5q-85 29 -172 59q-16 6 -24.5 10t-10 12t3 23t13.5 42q8 24 13 36.5t11 17t15 2.5t26 -8l684 -233q14 -5 21.5 -8.5t11 -9.5t4 -16t0.5 -29z" />
    <glyph glyph-name="AE" unicode="&#xc6;" horiz-adv-x="1752" 
d="M1086 241l78 -56q-16 -26 -29.5 -48.5t-26.5 -40.5q-23 -33 -50 -57q-25 -21 -59 -30q-32 -9 -79 -9q-31 0 -55 11q-23 10 -39 27q-8 8 -14.5 17t-11.5 18l-9 18t-7 16q-20 -25 -53 -45q-16 -10 -33 -18.5t-37 -15.5q-37 -13 -82 -21q-41 -7 -89 -7q-122 0 -213 51
q-93 52 -154 151q-31 51 -53.5 112t-38.5 135q-31 145 -31 338q0 165 40 306q41 145 120 251q80 109 195 170q118 62 268 62q79 0 131 -11q25 -5 46.5 -14t41.5 -20q19 -11 30 -22t19 -24q7 -10 9 -20t-1 -14q-7 -12 -19 -14q-10 0 -25 5q-7 3 -14 6.5l-15 7.5
q-15 10 -26 14q-40 16 -78 23q-43 8 -99 8q-75 0 -135 -28q-31 -14 -59 -33t-54 -44q-51 -50 -90 -117q-39 -68 -66 -147q-13 -40 -23 -81t-17 -86t-10 -89t-3 -89q0 -40 1.5 -80.5t5.5 -82.5q7 -83 24 -163q8 -40 18 -77.5t23 -72.5q26 -72 61 -123q36 -52 83 -84
q48 -30 108 -30q59 0 105 23q45 22 76 59q30 34 47 78q16 42 16 82v982q0 28 6 43q6 14 17 22q10 6 27 8q8 1 16 1h17h17t16 -1q17 -2 26 -8q12 -8 18 -22q6 -15 6 -43v-1026q0 -30 3 -64q2 -17 4.5 -33t5.5 -31q6 -31 15 -50q9 -20 20 -20q19 0 35 13q8 7 16.5 16.5
t16.5 20.5q15 21 33 53q8 16 17.5 32t19.5 33v-1zM1451 0q-54 0 -101 5t-89 15q-41 10 -76 24t-65 31q-29 17 -54 38t-45 44q-38 45 -63 100q-23 54 -33 111q-5 29 -7.5 56.5t-2.5 55.5q0 66 19 129q19 64 57 123q37 58 95 105q29 23 62 42.5t71 33.5q-29 14 -54.5 30
t-45.5 35t-36.5 38t-29.5 39q-24 39 -37 83q-11 44 -11 81q0 59 21 122q20 61 65 115q45 53 113 86q68 34 164 34q79 0 131 -11q25 -5 46.5 -14t41.5 -20q19 -11 30 -22t19 -24q7 -10 9 -20t-1 -14q-7 -12 -19 -14q-10 0 -25 5q-7 3 -14 6.5l-15 7.5q-15 10 -26 14
q-9 4 -17 7t-15 6q-12 5 -29 10q-15 5 -37 6q-11 1 -24.5 1.5t-30.5 0.5q-52 0 -95 -26q-41 -26 -69 -66t-43 -88q-14 -50 -14 -91q0 -50 15 -99q16 -50 43 -86q29 -38 69 -62q41 -23 91 -23q29 0 41 -4q13 -3 21 -9q6 -5 8 -15q1 -5 1 -10v-11v-11t-1 -10q-2 -10 -8 -15
t-21 -10q-14 -3 -41 -3q-62 0 -117 -33q-54 -32 -98 -88q-43 -55 -68 -126q-25 -69 -25 -147q0 -68 17 -141q16 -70 59 -126q42 -56 113 -92q73 -35 181 -35q72 0 123 19q52 19 89 49q19 15 35 31.5t29 34.5t24 35.5t21 34.5l11 20q5 10 21 8q14 -1 30 -11q15 -8 24 -21
q9 -12 3 -22l-11 -19q-36 -63 -78.5 -107.5t-93.5 -71.5q-101 -54 -227 -54z" />
    <glyph glyph-name="dotlessi" unicode="&#x131;" horiz-adv-x="397" 
d="M214 0q-64 0 -105.5 28.5t-65.5 71.5t-33.5 93t-9.5 94v599q0 25 6 40t17 22.5t26 9.5t34 2q18 0 33.5 -2t26.5 -9.5t17 -22.5t6 -40v-614q0 -28 3.5 -62.5t12 -64.5t23 -50.5t37.5 -20.5q16 0 36 15.5t41 40.5t41 55t37 59q5 9 9.5 17.5t9.5 16.5l11 20q4 8 16 8
q10 0 21 -4.5t20.5 -11.5t16 -15t6.5 -15q0 -2 -1 -6t-12 -21q-7 -11 -13.5 -22t-13.5 -22q-29 -45 -54.5 -80.5t-54.5 -59.5t-63.5 -36.5t-80.5 -12.5z" />
    <glyph glyph-name="idieresis" unicode="&#xef;" horiz-adv-x="503" 
d="M573 189q-11 -17 -20 -33t-19 -30q-31 -45 -61 -72t-69 -41q-35 -13 -82 -13q-49 0 -84 26q-36 28 -58 68t-33 92q-10 49 -10 101v20q-3 -7 -8.5 -17t-8.5 -16t-6 -11.5t-6 -10.5q-11 -20 -18.5 -24.5t-15.5 -4.5q-9 0 -18.5 4t-17.5 10t-13 14t-5 16q0 3 1 10t9 21
q8 17 16.5 33.5t16.5 35.5q17 39 30 86q7 25 15 53t13 60t10.5 70t5.5 82v168q0 26 6 41q6 14 17 22q14 9 27 10q8 1 16 1.5t17 0.5t17 -0.5t16 -1.5q14 -1 26 -10q11 -8 17 -22q6 -15 6 -41v-614q0 -32 3 -66q2 -17 4.5 -33t5.5 -31q4 -14 7.5 -26.5t8.5 -22.5
q9 -19 19 -19q19 0 43 21q24 22 48 54q13 17 21 28.5t19 30.5q6 10 11.5 18.5t10.5 17.5t9.5 17.5t9.5 16.5l11 20q4 8 16 8q10 0 21 -4.5t20.5 -11.5t16 -15t6.5 -15q0 -2 -1 -6t-12 -21q-7 -11 -13.5 -22t-13.5 -22zM12 1170q0 37 26 63q27 27 64 27q38 0 64 -27
q26 -26 26 -63q0 -36 -26 -64q-26 -26 -64 -26q-36 0 -64 26q-26 28 -26 64zM249 1170q0 37 26 63q27 27 64 27q38 0 64 -27q26 -26 26 -63q0 -36 -26 -64q-26 -26 -64 -26q-36 0 -64 26q-26 28 -26 64z" />
    <glyph glyph-name="ae" unicode="&#xe6;" horiz-adv-x="1386" 
d="M1095 0q-54 0 -100 11.5t-87 31.5q-20 -16 -44.5 -29t-64.5 -14q-53 -2 -92.5 7t-68 25t-47 38t-29.5 46q-51 -57 -104.5 -86.5t-117.5 -29.5q-78 0 -141 42.5t-107 111t-68 154t-24 172.5q0 110 29 198.5t77 151t109 96.5t125 34q55 0 98 -20t76 -48q0 25 5.5 39
t16 20.5t25.5 7.5t35 1q18 0 33.5 -2t26.5 -9.5t17 -22.5t6 -40v-342q7 80 31.5 155t65 133t96 93t126.5 35q46 0 85 -15.5t71 -41.5t56 -60.5t40.5 -73t25 -78.5t8.5 -77q0 -34 -7.5 -62.5t-31.5 -50.5t-68.5 -36.5t-118.5 -20.5q-53 -2 -112.5 -1.5t-103.5 0.5
q0 -52 17 -116t50 -120t82 -94t113 -38q39 0 76.5 7.5t73 26.5t69 51.5t63.5 83.5q5 9 9.5 17.5t9.5 16.5l11 20q4 8 16 8q10 0 21 -4.5t20.5 -11.5t16 -15t6.5 -15q0 -2 -1 -6t-12 -21q-7 -11 -13.5 -22t-13.5 -22q-20 -32 -49.5 -65.5t-73 -61t-102 -45t-136.5 -17.5z
M166 480q0 -82 13.5 -155.5t36.5 -129t55 -88.5t69 -33q36 0 68 32.5t55.5 88t37 129.5t13.5 156t-13.5 155.5t-37 129t-55.5 88.5t-68 33q-37 0 -68.5 -32.5t-55 -88t-37 -129.5t-13.5 -156zM998 885q-28 0 -50 -17.5t-39.5 -47t-30 -67.5t-20.5 -79t-12 -81.5t-4 -74.5
q70 0 125.5 1.5t94 10t58.5 27t20 53.5q0 18 -3.5 45.5t-11 58t-19 61t-27.5 55t-36 40t-45 15.5zM799 75q11 3 18.5 7t15.5 12q-67 59 -106 143.5t-48 181.5v-147q0 -30 2 -64.5t13 -64t35.5 -49t69.5 -19.5z" />
    </font>
</defs>
</svg>
